{"glyphs":{"0":{"ha":734,"x_min":83,"x_max":711,"o":"m 286 -11 q 178 13 222 -11 q 108 91 133 37 q 83 234 83 145 q 100 406 83 313 q 144 581 116 498 q 212 730 172 663 q 298 843 251 797 q 399 912 345 888 q 509 937 452 937 q 604 919 566 937 q 666 870 642 901 q 701 794 690 838 q 711 699 711 751 q 668 403 711 553 q 559 155 625 253 q 427 27 500 69 q 286 -11 361 -11 m 201 191 q 210 105 201 136 q 239 61 220 75 q 294 47 259 47 q 392 95 345 47 q 483 239 440 143 q 559 484 525 334 q 594 741 594 633 q 573 846 594 813 q 505 879 551 879 q 446 864 475 879 q 379 804 412 846 q 304 669 339 753 q 250 500 275 596 q 220 365 232 431 q 201 191 201 267 z "},"1":{"ha":734,"x_min":75,"x_max":579,"o":"m 413 196 q 401 117 401 140 q 415 76 401 90 q 462 57 429 63 q 564 50 495 52 l 554 0 l 75 0 l 85 50 q 173 57 142 52 q 222 70 203 62 q 252 90 241 78 q 273 120 264 101 q 290 177 281 139 l 398 669 q 407 714 404 697 q 410 742 410 731 q 400 771 410 762 q 376 779 390 779 q 322 762 358 779 q 215 703 286 745 l 189 757 l 532 937 l 579 937 l 559 857 q 536 756 549 814 l 413 196 z "},"2":{"ha":734,"x_min":-7,"x_max":685,"o":"m 394 109 q 433 111 419 109 q 456 119 447 114 q 474 134 465 124 q 491 158 484 144 q 511 198 499 172 l 574 198 l 524 0 l -7 0 l -1 33 q 102 180 39 103 q 274 361 165 258 q 399 483 365 447 q 494 591 461 545 q 540 675 526 636 q 553 755 553 715 q 521 843 553 812 q 429 874 489 874 q 329 841 374 874 q 258 747 285 808 l 170 747 l 199 877 q 341 922 276 907 q 472 937 407 937 q 587 915 538 937 q 660 853 635 892 q 685 768 685 814 q 674 687 685 724 q 640 615 663 651 q 553 511 612 572 q 378 349 500 458 q 143 109 209 197 l 394 109 z "},"3":{"ha":734,"x_min":13,"x_max":696,"o":"m 179 747 l 207 877 q 347 923 283 909 q 479 937 410 937 q 563 926 524 937 q 632 895 602 916 q 679 841 661 874 q 696 763 696 808 q 671 652 696 701 q 592 563 647 604 q 444 486 538 522 l 443 478 q 572 407 527 458 q 616 281 616 355 q 592 168 616 224 q 523 71 568 111 q 414 10 479 31 q 263 -11 350 -11 q 130 3 201 -11 q 13 37 58 17 l 44 181 l 122 181 q 163 79 126 112 q 273 47 201 47 q 389 77 340 47 q 464 164 437 106 q 490 294 490 222 q 443 404 490 368 q 302 441 396 441 l 234 441 l 247 500 q 392 530 329 506 q 494 592 455 555 q 550 671 534 629 q 567 756 567 713 q 534 843 567 812 q 443 874 500 874 q 336 842 378 874 q 264 747 294 810 l 179 747 z "},"4":{"ha":734,"x_min":35,"x_max":715,"o":"m 275 33 q 314 44 302 37 q 336 66 327 52 q 355 107 346 80 q 376 194 363 135 l 395 281 l 35 281 l 47 345 l 541 930 l 654 930 l 525 347 l 548 347 q 600 352 584 347 q 628 372 616 358 q 654 420 640 386 l 715 420 l 676 281 l 511 281 l 489 183 q 480 131 483 154 q 478 94 478 108 q 492 49 478 62 q 545 33 507 36 l 537 0 l 268 0 l 275 33 m 156 347 l 411 347 l 448 515 q 513 781 477 648 l 503 781 l 158 356 l 156 347 z "},"5":{"ha":734,"x_min":46,"x_max":745,"o":"m 284 522 q 419 544 346 544 q 538 517 488 544 q 614 442 588 491 q 641 328 641 393 q 601 155 641 239 q 482 30 560 71 q 291 -11 404 -11 q 166 2 233 -11 q 46 37 99 15 l 77 181 l 155 181 q 295 47 159 47 q 416 85 368 47 q 489 188 465 123 q 513 319 513 253 q 477 435 513 395 q 370 475 440 475 q 311 471 338 475 q 248 457 285 468 l 190 500 l 284 926 l 623 926 q 656 929 646 926 q 674 942 667 933 q 690 970 682 951 l 745 970 l 701 813 l 349 813 l 284 522 z "},"6":{"ha":734,"x_min":98,"x_max":715,"o":"m 259 488 q 362 537 312 521 q 465 553 412 553 q 569 528 522 553 q 643 452 615 503 q 670 328 670 401 q 658 230 670 280 q 621 137 646 180 q 555 60 595 93 q 461 8 515 27 q 339 -11 407 -11 q 233 11 278 -11 q 158 72 188 33 q 113 163 128 111 q 98 277 98 216 q 106 385 98 331 q 140 518 118 459 q 219 666 168 595 q 342 793 270 736 q 503 887 415 850 q 690 937 591 924 l 715 899 l 708 866 q 429 758 545 854 q 252 491 313 661 l 259 488 m 208 243 q 245 96 208 145 q 357 47 283 47 q 454 82 410 47 q 523 180 498 117 q 548 322 548 243 q 414 484 548 484 q 369 480 391 484 q 325 466 347 475 q 281 443 302 456 q 249 418 260 429 q 233 396 239 408 q 222 368 226 383 q 212 307 218 351 q 208 243 208 273 z "},"7":{"ha":734,"x_min":134,"x_max":789,"o":"m 782 893 l 235 -5 l 134 -5 l 142 33 l 636 802 l 638 812 l 357 812 q 303 805 323 812 q 267 779 282 798 q 230 706 251 760 l 168 706 l 222 926 l 789 926 l 782 893 z "},"8":{"ha":734,"x_min":47,"x_max":739,"o":"m 543 481 l 543 472 q 651 300 651 420 q 644 238 651 273 q 614 149 635 189 q 547 64 589 100 q 444 9 504 29 q 309 -11 383 -11 q 170 14 229 -11 q 79 86 111 39 q 47 197 47 134 q 67 306 47 252 q 133 404 87 361 q 251 477 179 448 l 252 486 q 182 563 204 520 q 160 659 160 606 q 165 714 160 685 q 192 791 173 757 q 256 866 215 833 q 355 918 297 899 q 481 937 413 937 q 629 910 571 937 q 713 840 687 884 q 739 742 739 797 q 718 637 739 688 q 651 544 696 586 q 543 481 605 503 m 277 637 q 282 588 277 612 q 303 547 288 565 q 344 518 319 529 q 410 508 370 508 q 515 537 470 508 q 589 624 561 566 q 617 749 617 682 q 584 847 617 814 q 484 879 550 879 q 369 846 416 879 q 299 754 322 813 q 277 637 277 695 m 170 185 q 207 82 170 117 q 316 47 244 47 q 413 70 372 47 q 478 132 454 94 q 516 222 503 171 q 529 319 529 273 q 496 418 529 385 q 393 452 463 452 q 295 429 338 452 q 225 367 252 406 q 184 278 198 328 q 170 185 170 229 z "},"9":{"ha":734,"x_min":94,"x_max":698,"o":"m 536 437 q 438 389 488 405 q 336 373 389 373 q 226 401 274 373 q 153 480 178 429 q 127 600 127 531 q 139 695 127 645 q 177 788 151 745 q 242 865 202 831 q 335 918 282 899 q 452 937 389 937 q 559 915 513 937 q 636 853 606 892 q 682 761 667 814 q 698 644 698 707 q 685 513 698 585 q 652 393 675 455 q 597 279 629 333 q 524 181 565 227 q 437 102 483 136 q 339 43 391 67 q 231 5 287 18 q 119 -11 177 -9 l 94 26 l 101 60 q 303 113 218 69 q 447 236 389 157 q 543 435 505 315 l 536 437 m 383 441 q 463 456 422 441 q 528 492 499 469 q 559 524 550 509 q 578 580 572 543 q 585 676 585 616 q 547 828 585 777 q 437 879 510 879 q 340 843 385 879 q 271 742 296 807 q 246 600 246 677 q 278 480 246 519 q 383 441 311 441 z "},"\u0000":{"ha":0,"x_min":0,"x_max":0,"o":""},"\t":{"ha":306,"x_min":0,"x_max":0,"o":""},"A":{"ha":817,"x_min":-63,"x_max":749,"o":"m 460 0 l 467 33 q 515 51 498 36 q 539 92 532 66 q 547 162 547 119 q 545 220 547 189 l 540 307 l 241 307 l 204 241 q 165 160 178 194 q 153 101 153 127 q 222 33 153 44 l 214 0 l -63 0 l -56 33 q -16 50 -35 36 q 24 92 3 64 q 83 185 45 120 l 517 937 l 620 937 l 669 180 q 681 97 672 127 q 705 52 690 66 q 749 33 720 37 l 742 0 l 460 0 m 272 366 l 537 366 l 526 585 q 522 696 524 629 q 521 793 521 764 l 513 793 l 272 366 z "},"B":{"ha":828,"x_min":28,"x_max":824,"o":"m 607 474 q 704 402 670 449 q 738 297 738 356 q 712 172 738 227 q 632 75 687 117 q 506 17 577 34 q 330 0 435 0 l 28 0 l 36 33 q 75 46 62 37 q 96 72 87 56 q 113 112 105 88 q 135 202 120 135 l 250 724 q 265 831 265 792 q 250 878 265 865 q 199 892 234 890 l 206 926 l 542 926 q 705 904 644 926 q 795 842 766 883 q 824 738 824 800 q 770 583 824 649 q 608 481 715 517 l 607 474 m 420 511 q 533 520 490 511 q 604 549 576 530 q 652 593 631 568 q 686 653 673 618 q 699 734 699 688 q 688 789 699 764 q 653 832 678 814 q 596 858 629 850 q 511 866 564 866 q 401 864 452 866 l 324 511 l 420 511 m 226 62 q 325 60 279 60 q 483 85 427 60 q 574 170 539 111 q 608 309 608 228 q 591 384 608 353 q 536 433 574 414 q 433 451 498 451 l 310 451 l 226 62 z "},"C":{"ha":749,"x_min":85,"x_max":803,"o":"m 803 902 l 762 718 l 697 718 q 661 839 692 802 q 562 876 630 876 q 454 842 505 876 q 359 745 404 808 q 281 596 315 682 q 231 423 248 511 q 213 263 213 334 q 249 101 213 153 q 363 49 286 49 q 452 64 414 49 q 523 116 490 79 q 589 217 556 152 l 654 217 l 612 24 q 479 -3 543 5 q 347 -11 414 -11 q 203 24 262 -11 q 115 125 144 59 q 85 284 85 191 q 92 379 85 333 q 117 503 100 436 q 174 655 140 587 q 257 783 210 728 q 353 869 301 835 q 455 919 400 901 q 572 937 510 937 q 686 929 633 937 q 803 902 739 922 z "},"D":{"ha":898,"x_min":28,"x_max":859,"o":"m 463 926 q 629 910 566 926 q 748 854 693 895 q 831 746 804 813 q 859 586 859 678 q 838 411 859 494 q 778 257 817 328 q 684 135 739 187 q 577 56 629 83 q 462 14 526 28 q 313 0 398 0 l 28 0 l 36 33 q 75 46 62 37 q 96 72 87 56 q 113 112 105 88 q 135 202 120 135 l 250 724 q 261 784 257 755 q 265 833 265 813 q 249 878 265 865 q 199 892 233 890 l 206 926 l 463 926 m 225 62 q 300 60 245 60 q 425 75 369 60 q 528 123 481 90 q 614 211 575 156 q 676 322 652 266 q 714 444 701 379 q 728 582 728 509 q 662 795 728 724 q 465 867 595 867 q 401 865 435 867 l 225 62 z "},"E":{"ha":789,"x_min":28,"x_max":830,"o":"m 830 926 l 783 718 l 718 718 q 711 794 716 766 q 699 834 705 821 q 683 854 692 848 q 661 863 674 861 q 623 866 648 866 l 402 866 l 325 511 l 454 511 q 504 519 484 511 q 541 547 524 527 q 579 608 558 567 l 641 608 l 580 348 l 522 348 q 519 403 522 385 q 512 429 517 420 q 501 442 508 437 q 484 449 494 447 q 448 451 473 451 l 312 451 l 225 60 l 426 60 q 476 64 456 60 q 514 79 497 68 q 547 107 531 90 q 579 152 562 125 q 624 235 595 179 l 690 235 l 630 0 l 28 0 l 36 33 q 75 46 62 37 q 96 72 87 56 q 113 112 105 88 q 135 202 120 135 l 250 724 q 265 833 265 792 q 249 878 265 865 q 199 892 233 890 l 206 926 l 830 926 z "},"F":{"ha":732,"x_min":28,"x_max":818,"o":"m 255 197 q 248 163 250 177 q 243 128 245 149 q 241 92 241 107 q 248 59 241 71 q 268 41 254 47 q 315 33 281 36 l 307 0 l 28 0 l 36 33 q 75 46 62 37 q 96 72 87 56 q 113 112 105 88 q 135 202 120 135 l 250 724 q 265 831 265 792 q 250 878 265 865 q 199 892 234 890 l 206 926 l 818 926 l 771 718 l 706 718 q 699 793 703 766 q 687 834 694 821 q 671 854 680 848 q 649 863 662 861 q 611 866 635 866 l 402 866 l 321 497 l 448 497 q 498 505 478 497 q 534 535 517 513 q 576 608 551 556 l 638 608 l 572 321 l 513 321 q 511 387 513 363 q 503 420 509 411 q 485 434 496 430 q 441 437 473 437 l 309 437 l 255 197 z "},"G":{"ha":812,"x_min":85,"x_max":812,"o":"m 553 217 q 568 326 568 281 q 552 371 568 358 q 502 385 536 383 l 509 418 l 781 418 l 773 385 q 740 375 750 380 q 723 362 730 370 q 708 338 715 353 q 693 295 701 323 q 674 216 685 267 l 627 3 l 574 -12 l 538 42 q 463 9 490 19 q 406 -5 435 0 q 345 -11 377 -11 q 202 24 261 -11 q 114 125 144 60 q 85 280 85 191 q 100 429 85 353 q 145 589 117 515 q 208 718 172 661 q 288 819 243 774 q 372 883 326 857 q 469 923 418 909 q 576 937 520 937 q 694 929 641 937 q 812 901 748 921 l 770 718 l 705 718 q 685 811 701 777 q 641 861 670 846 q 566 877 612 877 q 461 847 509 877 q 369 758 413 817 q 288 611 324 700 q 232 430 252 522 q 213 263 213 338 q 249 101 213 153 q 361 48 286 48 q 418 55 389 48 q 472 77 447 61 q 517 119 498 92 q 546 185 537 145 l 553 217 z "},"H":{"ha":929,"x_min":28,"x_max":962,"o":"m 740 197 q 728 134 731 157 q 726 92 726 111 q 741 48 726 61 q 792 33 756 36 l 785 0 l 513 0 l 521 33 q 559 46 547 37 q 581 72 572 56 q 597 112 590 88 q 620 202 605 135 l 675 454 l 311 454 l 255 197 q 247 156 250 172 q 242 125 243 140 q 241 92 241 110 q 254 50 241 62 q 307 33 268 37 l 300 0 l 28 0 l 36 33 q 75 46 62 37 q 96 72 87 56 q 113 112 105 88 q 135 202 120 135 l 250 724 q 261 784 256 752 q 265 833 265 815 q 249 878 265 865 q 199 892 233 890 l 206 926 l 477 926 l 470 892 q 433 880 444 887 q 413 860 422 873 q 394 818 404 846 q 371 724 385 789 l 325 516 l 689 516 l 735 724 q 746 784 741 752 q 750 833 750 815 q 734 878 750 865 q 684 892 718 890 l 691 926 l 962 926 l 955 892 q 922 882 932 887 q 905 869 913 878 q 890 846 897 861 q 875 801 883 831 q 856 724 867 772 l 740 197 z "},"I":{"ha":445,"x_min":28,"x_max":477,"o":"m 255 197 q 243 134 246 157 q 241 92 241 111 q 256 48 241 61 q 307 33 271 36 l 300 0 l 28 0 l 36 33 q 75 46 62 37 q 96 72 87 56 q 113 112 105 88 q 135 202 120 135 l 250 724 q 261 784 257 755 q 265 833 265 813 q 249 878 265 865 q 199 892 233 890 l 206 926 l 477 926 l 470 892 q 433 880 444 887 q 413 860 422 873 q 394 818 404 846 q 371 724 385 789 l 255 197 z "},"J":{"ha":416,"x_min":-153,"x_max":463,"o":"m 204 29 q 145 -139 181 -77 q 52 -232 109 -202 q -89 -262 -5 -262 q -125 -261 -107 -262 q -153 -256 -142 -259 l -136 -191 q -112 -195 -125 -194 q -84 -196 -98 -196 q -16 -178 -45 -196 q 36 -114 13 -159 q 77 9 60 -69 l 236 724 q 247 784 243 754 q 251 833 251 813 q 235 878 251 865 q 184 892 218 890 l 192 926 l 463 926 l 456 892 q 419 880 430 887 q 398 860 408 873 q 380 818 389 846 q 357 724 371 789 l 204 29 z "},"K":{"ha":838,"x_min":28,"x_max":949,"o":"m 323 507 l 345 507 q 397 517 374 507 q 452 551 420 526 q 551 644 483 576 q 648 746 619 711 q 690 806 677 781 q 703 852 703 831 q 690 880 703 869 q 651 892 676 890 l 659 926 l 949 926 l 942 892 q 881 864 915 888 q 776 770 846 840 l 513 514 l 657 167 q 687 102 675 123 q 711 67 698 81 q 740 45 724 54 q 779 33 756 37 l 772 0 l 510 0 l 517 33 q 554 66 554 37 q 552 84 554 75 q 545 112 551 94 q 529 156 539 130 l 441 372 q 414 426 425 410 q 389 448 402 441 q 349 454 376 454 l 311 454 l 255 197 q 243 133 246 157 q 241 92 241 110 q 256 48 241 61 q 307 33 271 36 l 300 0 l 28 0 l 36 33 q 75 46 62 37 q 96 72 87 56 q 113 112 105 88 q 135 202 120 135 l 250 724 q 261 784 257 755 q 265 833 265 813 q 249 878 265 865 q 199 892 233 890 l 206 926 l 477 926 l 470 892 q 433 880 444 887 q 413 860 422 873 q 394 818 404 846 q 371 724 385 789 l 323 507 z "},"L":{"ha":726,"x_min":28,"x_max":671,"o":"m 36 33 q 75 46 62 37 q 96 72 87 56 q 113 112 105 88 q 135 202 120 135 l 250 724 q 261 784 257 755 q 265 833 265 813 q 249 878 265 865 q 199 892 233 890 l 206 926 l 477 926 l 470 892 q 433 880 444 887 q 413 860 422 873 q 394 818 404 846 q 371 724 385 789 l 226 62 l 393 62 q 464 71 438 62 q 514 103 490 80 q 559 167 537 127 q 605 267 582 207 l 671 267 l 602 0 l 28 0 l 36 33 z "},"M":{"ha":1100,"x_min":27,"x_max":1133,"o":"m 920 926 l 1133 926 l 1126 892 q 1089 880 1100 887 q 1068 860 1078 873 q 1050 818 1059 846 q 1027 724 1041 789 l 911 197 q 899 134 902 157 q 897 92 897 111 q 912 48 897 61 q 963 33 927 36 l 956 0 l 684 0 l 692 33 q 730 46 718 37 q 752 72 743 56 q 768 112 761 88 q 791 202 776 135 l 881 611 q 926 784 899 692 l 916 784 q 877 714 897 747 q 820 617 858 680 l 511 108 l 437 108 l 372 616 l 354 799 l 340 799 q 289 511 315 629 l 224 215 q 209 138 212 163 q 205 92 205 113 q 221 48 205 61 q 272 33 236 36 l 264 0 l 27 0 l 35 33 q 73 46 60 37 q 95 72 86 56 q 111 112 104 88 q 134 202 119 135 l 249 724 q 260 780 256 753 q 264 833 264 806 q 248 878 264 865 q 197 892 231 890 l 205 926 l 447 926 l 524 268 l 920 926 z "},"N":{"ha":932,"x_min":27,"x_max":968,"o":"m 968 926 l 961 892 q 924 880 935 887 q 904 860 913 873 q 885 818 895 846 q 862 724 876 789 l 703 0 l 610 0 l 412 582 q 349 790 376 686 l 340 790 q 318 658 336 755 q 279 468 300 561 l 220 197 q 210 142 214 169 q 205 92 205 116 q 221 48 205 61 q 272 33 236 36 l 264 0 l 27 0 l 35 33 q 73 46 60 37 q 95 72 86 56 q 111 112 104 88 q 134 202 119 135 l 249 724 q 260 780 256 753 q 264 833 264 806 q 248 878 264 865 q 197 892 231 890 l 205 926 l 421 926 l 600 397 q 660 205 639 283 l 667 205 q 692 342 673 246 q 728 511 711 439 l 775 724 q 785 777 780 747 q 790 833 790 808 q 774 878 790 865 q 724 892 758 890 l 731 926 l 968 926 z "},"O":{"ha":863,"x_min":84,"x_max":840,"o":"m 568 937 q 713 904 652 937 q 807 805 774 871 q 840 641 840 739 q 804 405 840 536 q 700 177 768 273 q 545 35 632 81 q 361 -12 457 -12 q 204 25 267 -12 q 113 127 142 62 q 84 281 84 193 q 109 474 84 368 q 177 667 134 581 q 279 814 220 753 q 412 905 338 874 q 568 937 485 937 m 711 669 q 560 877 711 877 q 491 865 524 877 q 418 821 453 850 q 347 736 380 787 q 278 597 307 675 q 229 421 248 515 q 212 258 212 331 q 250 100 212 152 q 364 48 288 48 q 480 85 425 48 q 602 230 548 131 q 692 490 661 336 q 711 669 711 580 z "},"P":{"ha":771,"x_min":28,"x_max":790,"o":"m 505 926 q 638 913 586 926 q 723 874 690 901 q 773 808 757 848 q 790 715 790 768 q 742 539 790 614 q 611 429 694 465 q 414 394 529 394 q 298 397 345 394 l 255 197 q 247 155 249 170 q 242 122 244 140 q 241 92 241 105 q 248 59 241 71 q 268 41 254 47 q 315 33 281 36 l 307 0 l 28 0 l 36 33 q 75 46 62 37 q 96 72 87 56 q 113 112 105 88 q 135 202 120 135 l 250 724 q 265 831 265 792 q 250 878 265 865 q 199 892 234 890 l 206 926 l 505 926 m 380 453 q 513 470 463 453 q 596 523 564 487 q 646 607 628 558 q 663 714 663 656 q 643 805 663 772 q 585 852 623 838 q 490 866 548 866 q 402 864 448 866 l 310 453 l 380 453 z "},"Q":{"ha":863,"x_min":84,"x_max":840,"o":"m 458 1 q 487 -81 473 -49 q 513 -133 500 -113 q 538 -163 526 -153 q 562 -176 550 -173 q 591 -180 574 -180 q 643 -165 616 -180 q 702 -113 669 -150 l 737 -151 q 636 -235 683 -210 q 540 -259 589 -259 q 448 -234 484 -259 q 386 -154 412 -209 q 336 -10 360 -99 q 149 71 213 -3 q 84 281 84 146 q 109 474 84 368 q 177 667 134 581 q 279 814 220 753 q 412 905 338 874 q 568 937 485 937 q 713 904 652 937 q 807 805 774 871 q 840 641 840 739 q 810 429 840 546 q 728 221 781 311 q 607 77 676 132 q 458 1 538 22 m 712 669 q 675 824 712 770 q 560 877 637 877 q 491 865 524 877 q 418 821 453 850 q 347 736 380 787 q 278 597 307 675 q 229 421 248 515 q 212 258 212 331 q 250 100 212 152 q 364 48 288 48 q 490 92 431 48 q 598 223 549 136 q 680 435 648 310 q 712 669 712 559 z "},"R":{"ha":820,"x_min":28,"x_max":800,"o":"m 549 420 q 601 361 581 395 q 633 267 621 328 l 649 189 q 660 143 654 164 q 673 103 665 122 q 690 72 681 83 q 710 53 699 60 q 733 41 720 45 q 767 33 747 37 l 760 0 l 572 0 q 534 144 551 60 l 504 288 q 486 350 496 325 q 461 390 475 376 q 427 408 446 404 q 380 412 408 412 l 302 412 l 255 197 q 247 155 249 171 q 242 122 244 140 q 241 92 241 105 q 248 59 241 71 q 268 41 254 47 q 315 33 281 36 l 307 0 l 28 0 l 36 33 q 75 46 62 37 q 96 72 87 56 q 113 112 105 88 q 135 202 120 135 l 250 724 q 265 831 265 792 q 250 878 265 865 q 199 892 234 890 l 206 926 l 508 926 q 625 917 580 926 q 703 892 671 909 q 757 848 735 875 q 789 788 779 821 q 800 716 800 754 q 780 609 800 656 q 726 527 760 562 q 645 467 691 492 q 549 427 600 443 l 549 420 m 395 471 q 518 485 469 471 q 600 530 567 500 q 653 608 632 559 q 674 714 674 657 q 669 766 674 743 q 654 804 663 789 q 632 830 646 819 q 598 850 618 842 q 551 862 578 859 q 478 866 524 866 q 402 863 442 866 l 315 471 l 395 471 z "},"S":{"ha":669,"x_min":2,"x_max":707,"o":"m 108 211 q 146 89 108 129 q 264 48 184 48 q 372 71 327 48 q 439 137 416 94 q 463 237 463 179 q 448 310 463 279 q 404 371 433 342 q 319 437 374 399 q 235 504 269 471 q 182 577 202 536 q 163 668 163 618 q 201 809 163 748 q 311 903 240 870 q 473 937 381 937 q 589 928 536 937 q 707 899 642 920 l 669 725 l 604 725 q 586 815 601 783 q 543 863 571 848 q 469 877 515 877 q 370 854 413 877 q 305 791 328 831 q 283 703 283 751 q 295 640 283 667 q 334 585 307 612 q 412 523 361 558 q 514 440 479 477 q 565 363 549 404 q 582 269 582 323 q 542 123 582 187 q 430 24 503 59 q 266 -11 358 -11 q 132 -1 203 -11 q 2 24 61 8 l 43 211 l 108 211 z "},"T":{"ha":797,"x_min":126,"x_max":885,"o":"m 483 0 l 197 0 l 205 33 q 244 44 231 37 q 267 65 257 51 q 287 110 277 79 q 311 202 297 140 l 456 866 l 370 866 q 302 854 328 866 q 252 808 277 842 q 191 697 227 775 l 126 697 l 177 926 l 885 926 l 832 687 l 767 687 q 764 786 767 753 q 751 836 760 819 q 727 860 741 853 q 678 866 713 866 l 578 866 l 431 197 q 422 155 425 171 q 418 122 420 140 q 416 92 416 105 q 423 59 416 71 q 444 41 430 47 q 490 33 457 36 l 483 0 z "},"U":{"ha":878,"x_min":127,"x_max":936,"o":"m 176 892 l 184 926 l 456 926 l 449 892 q 412 880 423 887 q 392 860 401 873 q 373 818 382 846 q 350 724 364 789 l 265 344 q 251 270 256 305 q 246 198 246 235 q 282 86 246 124 q 392 48 319 48 q 507 77 461 48 q 581 159 553 105 q 628 298 609 212 l 722 724 q 733 784 729 755 q 737 833 737 813 q 721 878 737 865 q 671 892 705 890 l 678 926 l 936 926 l 928 892 q 891 880 903 887 q 870 859 880 873 q 852 817 861 846 q 829 724 844 787 l 741 317 q 667 124 715 196 q 546 20 618 52 q 370 -12 474 -12 q 190 45 252 -12 q 127 210 127 102 q 135 297 127 248 q 157 408 143 347 l 228 724 q 240 788 236 760 q 243 833 243 817 q 228 877 243 864 q 176 892 212 890 z "},"V":{"ha":799,"x_min":129,"x_max":923,"o":"m 417 926 l 410 892 q 363 875 380 889 q 340 835 347 861 q 333 767 333 810 q 334 739 333 753 l 354 210 l 354 155 l 361 155 l 654 685 q 693 765 680 732 q 706 825 706 799 q 690 869 706 852 q 638 892 674 886 l 646 926 l 923 926 l 916 892 q 881 879 897 890 q 843 841 864 867 q 779 741 823 815 l 345 -11 l 255 -11 l 210 745 q 200 821 207 789 q 177 870 193 852 q 129 892 162 888 l 136 926 l 417 926 z "},"W":{"ha":1245,"x_min":130,"x_max":1368,"o":"m 713 -9 l 713 488 q 719 739 713 608 l 712 739 l 349 -9 l 243 -9 l 211 745 q 199 831 208 802 q 174 875 190 861 q 130 892 159 888 l 138 926 l 420 926 l 413 892 q 365 874 382 890 q 341 831 348 859 q 334 753 334 804 l 334 730 q 335 705 334 718 l 341 440 q 342 351 342 411 l 342 296 l 341 154 l 348 154 l 723 926 l 825 926 l 825 473 q 823 317 825 393 l 819 154 l 826 154 l 1101 685 q 1134 755 1116 715 q 1151 825 1151 795 q 1135 869 1151 852 q 1083 892 1119 886 l 1090 926 l 1368 926 l 1360 892 q 1301 858 1329 888 q 1225 741 1272 828 l 817 -9 l 713 -9 z "},"X":{"ha":757,"x_min":-45,"x_max":855,"o":"m 434 926 l 427 892 q 380 872 397 888 q 363 828 363 857 q 385 719 363 785 l 441 555 l 587 739 q 607 765 597 751 q 624 792 616 779 q 636 815 632 806 q 641 832 640 825 q 643 846 643 840 q 632 878 643 865 q 595 892 621 890 l 602 926 l 855 926 l 848 892 q 809 873 827 886 q 767 832 791 859 q 675 725 742 805 l 473 484 l 572 208 q 608 114 594 146 q 633 64 623 80 q 652 46 642 53 q 684 33 661 40 l 677 0 l 403 0 l 410 33 q 457 55 441 38 q 474 98 474 71 q 458 186 474 138 l 387 393 l 233 200 q 182 129 198 157 q 167 82 167 102 q 171 56 167 66 q 186 41 176 47 q 215 33 197 35 l 208 0 l -45 0 l -38 33 q -14 44 -24 38 q 9 60 -3 50 q 43 94 22 71 q 92 150 64 118 l 356 465 l 256 743 q 229 812 241 785 q 207 857 218 840 q 183 881 195 873 q 153 892 171 889 l 160 926 l 434 926 z "},"Y":{"ha":761,"x_min":128,"x_max":884,"o":"m 398 926 l 391 892 q 347 876 362 890 q 332 833 332 862 q 351 724 332 791 l 423 469 l 590 692 q 644 769 627 741 q 667 819 661 798 q 673 850 673 836 q 660 880 673 869 q 623 892 647 890 l 630 926 l 884 926 l 877 892 q 849 883 861 889 q 822 862 837 876 q 780 816 806 848 q 713 732 754 785 l 450 389 l 408 197 q 399 155 401 170 q 395 122 397 140 q 393 92 393 105 q 400 59 393 71 q 420 41 407 47 q 467 33 434 36 l 460 0 l 174 0 l 182 33 q 222 44 209 37 q 244 65 235 51 q 264 110 254 79 q 288 202 274 140 l 328 389 l 229 732 q 194 838 207 810 q 166 878 181 866 q 128 892 152 889 l 136 926 l 398 926 z "},"Z":{"ha":711,"x_min":-10,"x_max":785,"o":"m 161 62 l 378 62 q 427 66 408 62 q 460 79 446 71 q 488 99 475 87 q 514 128 501 111 q 544 174 528 145 q 578 245 559 202 l 644 245 l 591 0 l -10 0 l -3 33 l 612 863 l 404 863 q 359 860 376 863 q 329 851 342 857 q 306 836 316 844 q 282 811 296 827 q 251 768 268 794 q 213 696 235 741 l 148 696 l 198 926 l 785 926 l 778 893 l 161 62 z "},"À":{"ha":817,"x_min":-63,"x_max":749,"o":"m 460 0 l 467 33 q 515 51 498 36 q 539 92 532 66 q 547 162 547 119 q 545 220 547 189 l 540 307 l 241 307 l 204 241 q 165 160 178 194 q 153 101 153 127 q 222 33 153 44 l 214 0 l -63 0 l -56 33 q -16 50 -35 36 q 24 92 3 64 q 83 185 45 120 l 517 937 l 620 937 l 669 180 q 681 97 672 127 q 705 52 690 66 q 749 33 720 37 l 742 0 l 460 0 m 272 366 l 537 366 l 526 585 q 522 696 524 629 q 521 793 521 764 l 513 793 l 272 366 m 561 1208 l 691 1034 l 652 994 l 431 1175 l 438 1208 l 561 1208 z "},"Á":{"ha":817,"x_min":-63,"x_max":814,"o":"m 460 0 l 467 33 q 515 51 498 36 q 539 92 532 66 q 547 162 547 119 q 545 220 547 189 l 540 307 l 241 307 l 204 241 q 165 160 178 194 q 153 101 153 127 q 222 33 153 44 l 214 0 l -63 0 l -56 33 q -16 50 -35 36 q 24 92 3 64 q 83 185 45 120 l 517 937 l 620 937 l 669 180 q 681 97 672 127 q 705 52 690 66 q 749 33 720 37 l 742 0 l 460 0 m 272 366 l 537 366 l 526 585 q 522 696 524 629 q 521 793 521 764 l 513 793 l 272 366 m 814 1208 l 806 1175 l 518 993 l 484 1041 l 666 1208 l 814 1208 z "},"Â":{"ha":817,"x_min":-63,"x_max":777,"o":"m 460 0 l 467 33 q 515 51 498 36 q 539 92 532 66 q 547 162 547 119 q 545 220 547 189 l 540 307 l 241 307 l 204 241 q 165 160 178 194 q 153 101 153 127 q 222 33 153 44 l 214 0 l -63 0 l -56 33 q -16 50 -35 36 q 24 92 3 64 q 83 185 45 120 l 517 937 l 620 937 l 669 180 q 681 97 672 127 q 705 52 690 66 q 749 33 720 37 l 742 0 l 460 0 m 272 366 l 537 366 l 526 585 q 522 696 524 629 q 521 793 521 764 l 513 793 l 272 366 m 668 1207 l 777 1030 l 732 996 l 610 1120 l 604 1120 l 425 996 l 390 1038 l 576 1207 l 668 1207 z "},"Ã":{"ha":817,"x_min":-63,"x_max":823,"o":"m 460 0 l 467 33 q 515 51 498 36 q 539 92 532 66 q 547 162 547 119 q 545 220 547 189 l 540 307 l 241 307 l 204 241 q 165 160 178 194 q 153 101 153 127 q 222 33 153 44 l 214 0 l -63 0 l -56 33 q -16 50 -35 36 q 24 92 3 64 q 83 185 45 120 l 517 937 l 620 937 l 669 180 q 681 97 672 127 q 705 52 690 66 q 749 33 720 37 l 742 0 l 460 0 m 272 366 l 537 366 l 526 585 q 522 696 524 629 q 521 793 521 764 l 513 793 l 272 366 m 777 1166 l 823 1134 q 763 1055 789 1083 q 715 1017 737 1027 q 667 1006 694 1006 q 639 1010 652 1006 q 615 1021 626 1014 q 581 1046 604 1027 q 552 1069 561 1063 q 535 1078 543 1075 q 518 1081 527 1081 q 488 1075 501 1081 q 458 1051 474 1068 q 421 1006 441 1034 l 374 1038 q 437 1120 415 1097 q 480 1155 458 1144 q 533 1166 503 1166 q 553 1164 544 1166 q 571 1158 562 1162 q 587 1149 580 1154 q 613 1128 593 1144 q 654 1098 641 1105 q 681 1091 667 1091 q 710 1098 696 1091 q 740 1121 724 1105 q 777 1166 756 1137 z "},"Ä":{"ha":817,"x_min":-63,"x_max":787,"o":"m 460 0 l 467 33 q 515 51 498 36 q 539 92 532 66 q 547 162 547 119 q 545 220 547 189 l 540 307 l 241 307 l 204 241 q 165 160 178 194 q 153 101 153 127 q 222 33 153 44 l 214 0 l -63 0 l -56 33 q -16 50 -35 36 q 24 92 3 64 q 83 185 45 120 l 517 937 l 620 937 l 669 180 q 681 97 672 127 q 705 52 690 66 q 749 33 720 37 l 742 0 l 460 0 m 272 366 l 537 366 l 526 585 q 522 696 524 629 q 521 793 521 764 l 513 793 l 272 366 m 787 1147 l 761 1027 l 649 1027 l 675 1147 l 787 1147 m 549 1147 l 524 1027 l 412 1027 l 437 1147 l 549 1147 z "},"Ā":{"ha":817,"x_min":-63,"x_max":787,"o":"m 460 0 l 467 33 q 515 51 498 36 q 539 92 532 66 q 547 162 547 119 q 545 220 547 189 l 540 307 l 241 307 l 204 241 q 165 160 178 194 q 153 101 153 127 q 222 33 153 44 l 214 0 l -63 0 l -56 33 q -16 50 -35 36 q 24 92 3 64 q 83 185 45 120 l 517 937 l 620 937 l 669 180 q 681 97 672 127 q 705 52 690 66 q 749 33 720 37 l 742 0 l 460 0 m 272 366 l 537 366 l 526 585 q 522 696 524 629 q 521 793 521 764 l 513 793 l 272 366 m 770 1043 l 410 1043 l 428 1128 l 787 1128 l 770 1043 z "},"Ă":{"ha":817,"x_min":-63,"x_max":825,"o":"m 460 0 l 467 33 q 515 51 498 36 q 539 92 532 66 q 547 162 547 119 q 545 220 547 189 l 540 307 l 241 307 l 204 241 q 165 160 178 194 q 153 101 153 127 q 222 33 153 44 l 214 0 l -63 0 l -56 33 q -16 50 -35 36 q 24 92 3 64 q 83 185 45 120 l 517 937 l 620 937 l 669 180 q 681 97 672 127 q 705 52 690 66 q 749 33 720 37 l 742 0 l 460 0 m 272 366 l 537 366 l 526 585 q 522 696 524 629 q 521 793 521 764 l 513 793 l 272 366 m 825 1185 q 745 1084 784 1122 q 665 1029 707 1046 q 566 1012 624 1012 q 485 1037 517 1012 q 436 1107 452 1063 q 420 1209 420 1152 l 475 1219 q 507 1127 480 1157 q 583 1098 534 1098 q 651 1108 622 1098 q 712 1143 681 1118 q 777 1214 743 1168 l 825 1185 z "},"Å":{"ha":817,"x_min":-63,"x_max":753,"o":"m 460 0 l 467 33 q 515 51 498 36 q 539 92 532 66 q 547 162 547 119 q 545 220 547 189 l 540 307 l 241 307 l 204 241 q 165 160 178 194 q 153 101 153 127 q 222 33 153 44 l 214 0 l -63 0 l -56 33 q -16 50 -35 36 q 24 92 3 64 q 83 185 45 120 l 517 937 l 620 937 l 669 180 q 681 97 672 127 q 705 52 690 66 q 749 33 720 37 l 742 0 l 460 0 m 272 366 l 537 366 l 526 585 q 522 696 524 629 q 521 793 521 764 l 513 793 l 272 366 m 572 966 q 483 992 514 966 q 451 1066 451 1018 q 462 1130 451 1097 q 498 1187 473 1162 q 558 1225 524 1212 q 631 1238 592 1238 q 723 1212 692 1238 q 753 1137 753 1185 q 732 1051 753 1092 q 670 988 711 1010 q 572 966 629 966 m 519 1070 q 534 1025 519 1042 q 580 1008 549 1008 q 637 1027 612 1008 q 673 1076 661 1046 q 685 1134 685 1106 q 669 1180 685 1164 q 625 1196 654 1196 q 572 1179 596 1196 q 533 1133 547 1162 q 519 1070 519 1103 z "},"Ǻ":{"ha":817,"x_min":-63,"x_max":831,"o":"m 831 1319 l 823 1285 l 543 1141 l 516 1195 l 683 1319 l 831 1319 m 624 863 l 669 180 q 681 95 672 125 q 706 51 690 65 q 749 33 721 37 l 742 0 l 460 0 l 467 33 q 515 51 498 36 q 539 92 532 66 q 547 162 547 119 q 545 220 547 189 l 540 307 l 241 307 l 204 241 q 165 160 178 194 q 153 101 153 127 q 222 33 153 44 l 214 0 l -63 0 l -56 33 q -16 50 -35 36 q 24 92 3 64 q 83 185 45 120 l 477 867 q 429 952 429 891 q 440 1016 429 983 q 477 1073 452 1048 q 536 1111 502 1098 q 609 1124 570 1124 q 701 1098 670 1124 q 732 1023 732 1072 q 719 956 732 989 q 682 899 707 923 q 624 863 658 876 m 498 956 q 512 911 498 928 q 558 894 527 894 q 615 913 591 894 q 651 962 640 932 q 663 1020 663 992 q 648 1066 663 1050 q 604 1082 632 1082 q 550 1065 574 1082 q 512 1019 526 1048 q 498 956 498 989 m 272 366 l 537 366 l 526 585 q 522 696 524 629 q 521 793 521 764 l 513 793 l 272 366 m 558 937 z "},"Ą":{"ha":817,"x_min":-63,"x_max":749,"o":"m 669 0 q 564 -98 594 -58 q 534 -173 534 -138 q 547 -218 534 -205 q 589 -231 561 -231 q 631 -223 612 -231 q 665 -208 650 -216 l 676 -254 q 620 -281 652 -271 q 562 -292 588 -292 q 473 -266 503 -292 q 444 -185 444 -239 q 485 -93 444 -140 q 604 0 526 -45 l 460 0 l 467 33 q 515 51 498 36 q 539 92 532 66 q 547 162 547 119 q 545 220 547 189 l 540 307 l 241 307 l 204 241 q 165 160 178 194 q 153 101 153 127 q 222 33 153 44 l 214 0 l -63 0 l -56 33 q -16 50 -35 36 q 24 92 3 64 q 83 185 45 120 l 517 937 l 620 937 l 669 180 q 681 97 672 127 q 705 52 690 66 q 749 33 720 37 l 742 0 l 669 0 m 272 366 l 537 366 l 526 585 q 522 696 524 629 q 521 793 521 764 l 513 793 l 272 366 z "},"Æ":{"ha":1159,"x_min":-69,"x_max":1200,"o":"m 1153 718 l 1088 718 q 1080 794 1086 766 q 1068 834 1075 821 q 1053 854 1061 848 q 1030 863 1044 861 q 993 866 1017 866 l 755 866 l 701 511 l 824 511 q 874 519 854 511 q 911 547 894 527 q 949 608 928 567 l 1010 608 l 949 348 l 892 348 q 889 403 892 385 q 882 429 886 420 q 871 442 878 437 q 853 449 864 447 q 817 451 842 451 l 692 451 l 631 60 l 795 60 q 846 64 825 60 q 884 79 867 68 q 916 107 901 90 q 948 152 932 125 q 994 235 965 179 l 1059 235 l 1000 0 l 435 0 l 442 33 q 487 50 471 38 q 512 89 503 62 q 530 170 522 115 l 551 307 l 277 307 l 229 241 q 169 149 184 178 q 153 94 153 119 q 170 55 153 71 q 218 33 187 39 l 212 0 l -69 0 l -62 33 q 1 70 -35 37 q 96 185 37 103 l 621 926 l 1200 926 l 1153 718 m 560 366 l 609 679 l 629 789 q 635 821 632 807 l 629 821 l 314 366 l 560 366 z "},"Ǽ":{"ha":1159,"x_min":-69,"x_max":1200,"o":"m 1153 718 l 1088 718 q 1080 794 1086 766 q 1068 834 1075 821 q 1053 854 1061 848 q 1030 863 1044 861 q 993 866 1017 866 l 755 866 l 701 511 l 824 511 q 874 519 854 511 q 911 547 894 527 q 949 608 928 567 l 1010 608 l 949 348 l 892 348 q 889 403 892 385 q 882 429 886 420 q 871 442 878 437 q 853 449 864 447 q 817 451 842 451 l 692 451 l 631 60 l 795 60 q 846 64 825 60 q 884 79 867 68 q 916 107 901 90 q 948 152 932 125 q 994 235 965 179 l 1059 235 l 1000 0 l 435 0 l 442 33 q 487 50 471 38 q 512 89 503 62 q 530 170 522 115 l 551 307 l 277 307 l 229 241 q 169 149 184 178 q 153 94 153 119 q 170 55 153 71 q 218 33 187 39 l 212 0 l -69 0 l -62 33 q 1 70 -35 37 q 96 185 37 103 l 621 926 l 1200 926 l 1153 718 m 560 366 l 609 679 l 629 789 q 635 821 632 807 l 629 821 l 314 366 l 560 366 m 1112 1208 l 1105 1175 l 817 993 l 783 1041 l 964 1208 l 1112 1208 z "},"Ć":{"ha":749,"x_min":85,"x_max":803,"o":"m 803 902 l 762 718 l 697 718 q 661 839 692 802 q 562 876 630 876 q 454 842 505 876 q 359 745 404 808 q 281 596 315 682 q 231 423 248 511 q 213 263 213 334 q 249 101 213 153 q 363 49 286 49 q 452 64 414 49 q 523 116 490 79 q 589 217 556 152 l 654 217 l 612 24 q 479 -3 543 5 q 347 -11 414 -11 q 203 24 262 -11 q 115 125 144 59 q 85 284 85 191 q 92 379 85 333 q 117 503 100 436 q 174 655 140 587 q 257 783 210 728 q 353 869 301 835 q 455 919 400 901 q 572 937 510 937 q 686 929 633 937 q 803 902 739 922 m 802 1208 l 794 1175 l 506 993 l 472 1041 l 654 1208 l 802 1208 z "},"Ĉ":{"ha":749,"x_min":85,"x_max":803,"o":"m 803 902 l 762 718 l 697 718 q 661 839 692 802 q 562 876 630 876 q 454 842 505 876 q 359 745 404 808 q 281 596 315 682 q 231 423 248 511 q 213 263 213 334 q 249 101 213 153 q 363 49 286 49 q 452 64 414 49 q 523 116 490 79 q 589 217 556 152 l 654 217 l 612 24 q 479 -3 543 5 q 347 -11 414 -11 q 203 24 262 -11 q 115 125 144 59 q 85 284 85 191 q 92 379 85 333 q 117 503 100 436 q 174 655 140 587 q 257 783 210 728 q 353 869 301 835 q 455 919 400 901 q 572 937 510 937 q 686 929 633 937 q 803 902 739 922 m 659 1207 l 768 1030 l 724 996 l 602 1120 l 595 1120 l 416 996 l 381 1038 l 567 1207 l 659 1207 z "},"Č":{"ha":749,"x_min":85,"x_max":803,"o":"m 803 902 l 762 718 l 697 718 q 661 839 692 802 q 562 876 630 876 q 454 842 505 876 q 359 745 404 808 q 281 596 315 682 q 231 423 248 511 q 213 263 213 334 q 249 101 213 153 q 363 49 286 49 q 452 64 414 49 q 523 116 490 79 q 589 217 556 152 l 654 217 l 612 24 q 479 -3 543 5 q 347 -11 414 -11 q 203 24 262 -11 q 115 125 144 59 q 85 284 85 191 q 92 379 85 333 q 117 503 100 436 q 174 655 140 587 q 257 783 210 728 q 353 869 301 835 q 455 919 400 901 q 572 937 510 937 q 686 929 633 937 q 803 902 739 922 m 520 996 l 411 1173 l 456 1206 l 578 1083 l 585 1083 l 763 1207 l 798 1165 l 612 996 l 520 996 z "},"Ċ":{"ha":749,"x_min":85,"x_max":803,"o":"m 803 902 l 762 718 l 697 718 q 661 839 692 802 q 562 876 630 876 q 454 842 505 876 q 359 745 404 808 q 281 596 315 682 q 231 423 248 511 q 213 263 213 334 q 249 101 213 153 q 363 49 286 49 q 452 64 414 49 q 523 116 490 79 q 589 217 556 152 l 654 217 l 612 24 q 479 -3 543 5 q 347 -11 414 -11 q 203 24 262 -11 q 115 125 144 59 q 85 284 85 191 q 92 379 85 333 q 117 503 100 436 q 174 655 140 587 q 257 783 210 728 q 353 869 301 835 q 455 919 400 901 q 572 937 510 937 q 686 929 633 937 q 803 902 739 922 m 663 1152 l 631 1021 l 511 1021 l 543 1152 l 663 1152 z "},"Ç":{"ha":749,"x_min":85,"x_max":803,"o":"m 803 902 l 762 718 l 697 718 q 661 839 692 802 q 562 876 630 876 q 454 842 505 876 q 359 745 404 808 q 281 596 315 682 q 231 423 248 511 q 213 263 213 334 q 249 101 213 153 q 363 49 286 49 q 452 64 414 49 q 523 116 490 79 q 589 217 556 152 l 654 217 l 612 24 q 438 -7 522 0 l 361 -59 q 363 -92 363 -68 q 299 -230 363 -177 q 118 -292 235 -282 l 118 -240 q 219 -201 183 -235 q 256 -102 254 -167 l 260 -79 l 370 -11 l 347 -11 q 203 24 262 -11 q 115 125 144 59 q 85 284 85 191 q 92 379 85 333 q 117 503 100 436 q 174 655 140 587 q 257 783 210 728 q 353 869 301 835 q 455 919 400 901 q 572 937 510 937 q 686 929 633 937 q 803 902 739 922 z "},"Ď":{"ha":898,"x_min":28,"x_max":859,"o":"m 463 926 q 629 910 566 926 q 748 854 693 895 q 831 746 804 813 q 859 586 859 678 q 838 411 859 494 q 778 257 817 328 q 684 135 739 187 q 577 56 629 83 q 462 14 526 28 q 313 0 398 0 l 28 0 l 36 33 q 75 46 62 37 q 96 72 87 56 q 113 112 105 88 q 135 202 120 135 l 250 724 q 261 784 257 755 q 265 833 265 813 q 249 878 265 865 q 199 892 233 890 l 206 926 l 463 926 m 225 62 q 300 60 245 60 q 425 75 369 60 q 528 123 481 90 q 614 211 575 156 q 676 322 652 266 q 714 444 701 379 q 728 582 728 509 q 662 795 728 724 q 465 867 595 867 q 401 865 435 867 l 225 62 m 541 996 l 431 1173 l 476 1206 l 598 1083 l 605 1083 l 783 1207 l 819 1165 l 633 996 l 541 996 z "},"Đ":{"ha":902,"x_min":33,"x_max":863,"o":"m 83 516 l 208 516 l 254 724 q 265 784 261 755 q 269 833 269 813 q 253 878 269 865 q 203 892 237 890 l 210 926 l 467 926 q 633 910 570 926 q 752 854 697 895 q 836 746 808 813 q 863 586 863 678 q 842 411 863 494 q 782 257 821 328 q 688 135 743 187 q 581 56 633 83 q 466 14 530 28 q 317 0 402 0 l 33 0 l 40 33 q 79 46 66 37 q 100 72 92 56 q 117 112 109 88 q 139 202 124 135 l 195 454 l 69 454 l 83 516 m 328 516 l 534 516 l 521 454 l 315 454 l 229 62 q 304 60 249 60 q 429 75 373 60 q 532 123 485 90 q 618 211 579 156 q 681 322 656 266 q 718 444 705 379 q 732 582 732 509 q 666 795 732 724 q 469 867 600 867 q 405 865 439 867 l 328 516 z "},"È":{"ha":789,"x_min":28,"x_max":830,"o":"m 830 926 l 783 718 l 718 718 q 711 794 716 766 q 699 834 705 821 q 683 854 692 848 q 661 863 674 861 q 623 866 648 866 l 402 866 l 325 511 l 454 511 q 504 519 484 511 q 541 547 524 527 q 579 608 558 567 l 641 608 l 580 348 l 522 348 q 519 403 522 385 q 512 429 517 420 q 501 442 508 437 q 484 449 494 447 q 448 451 473 451 l 312 451 l 225 60 l 426 60 q 476 64 456 60 q 514 79 497 68 q 547 107 531 90 q 579 152 562 125 q 624 235 595 179 l 690 235 l 630 0 l 28 0 l 36 33 q 75 46 62 37 q 96 72 87 56 q 113 112 105 88 q 135 202 120 135 l 250 724 q 265 833 265 792 q 249 878 265 865 q 199 892 233 890 l 206 926 l 830 926 m 522 1208 l 652 1034 l 612 994 l 391 1175 l 399 1208 l 522 1208 z "},"É":{"ha":789,"x_min":28,"x_max":830,"o":"m 830 926 l 783 718 l 718 718 q 711 794 716 766 q 699 834 705 821 q 683 854 692 848 q 661 863 674 861 q 623 866 648 866 l 402 866 l 325 511 l 454 511 q 504 519 484 511 q 541 547 524 527 q 579 608 558 567 l 641 608 l 580 348 l 522 348 q 519 403 522 385 q 512 429 517 420 q 501 442 508 437 q 484 449 494 447 q 448 451 473 451 l 312 451 l 225 60 l 426 60 q 476 64 456 60 q 514 79 497 68 q 547 107 531 90 q 579 152 562 125 q 624 235 595 179 l 690 235 l 630 0 l 28 0 l 36 33 q 75 46 62 37 q 96 72 87 56 q 113 112 105 88 q 135 202 120 135 l 250 724 q 265 833 265 792 q 249 878 265 865 q 199 892 233 890 l 206 926 l 830 926 m 784 1208 l 777 1175 l 488 993 l 454 1041 l 636 1208 l 784 1208 z "},"Ê":{"ha":789,"x_min":28,"x_max":830,"o":"m 830 926 l 783 718 l 718 718 q 711 794 716 766 q 699 834 705 821 q 683 854 692 848 q 661 863 674 861 q 623 866 648 866 l 402 866 l 325 511 l 454 511 q 504 519 484 511 q 541 547 524 527 q 579 608 558 567 l 641 608 l 580 348 l 522 348 q 519 403 522 385 q 512 429 517 420 q 501 442 508 437 q 484 449 494 447 q 448 451 473 451 l 312 451 l 225 60 l 426 60 q 476 64 456 60 q 514 79 497 68 q 547 107 531 90 q 579 152 562 125 q 624 235 595 179 l 690 235 l 630 0 l 28 0 l 36 33 q 75 46 62 37 q 96 72 87 56 q 113 112 105 88 q 135 202 120 135 l 250 724 q 265 833 265 792 q 249 878 265 865 q 199 892 233 890 l 206 926 l 830 926 m 642 1207 l 751 1030 l 707 996 l 585 1120 l 578 1120 l 399 996 l 364 1038 l 550 1207 l 642 1207 z "},"Ě":{"ha":789,"x_min":28,"x_max":830,"o":"m 830 926 l 783 718 l 718 718 q 711 794 716 766 q 699 834 705 821 q 683 854 692 848 q 661 863 674 861 q 623 866 648 866 l 402 866 l 325 511 l 454 511 q 504 519 484 511 q 541 547 524 527 q 579 608 558 567 l 641 608 l 580 348 l 522 348 q 519 403 522 385 q 512 429 517 420 q 501 442 508 437 q 484 449 494 447 q 448 451 473 451 l 312 451 l 225 60 l 426 60 q 476 64 456 60 q 514 79 497 68 q 547 107 531 90 q 579 152 562 125 q 624 235 595 179 l 690 235 l 630 0 l 28 0 l 36 33 q 75 46 62 37 q 96 72 87 56 q 113 112 105 88 q 135 202 120 135 l 250 724 q 265 833 265 792 q 249 878 265 865 q 199 892 233 890 l 206 926 l 830 926 m 503 996 l 394 1173 l 439 1206 l 561 1083 l 568 1083 l 746 1207 l 781 1165 l 595 996 l 503 996 z "},"Ë":{"ha":789,"x_min":28,"x_max":830,"o":"m 830 926 l 783 718 l 718 718 q 711 794 716 766 q 699 834 705 821 q 683 854 692 848 q 661 863 674 861 q 623 866 648 866 l 402 866 l 325 511 l 454 511 q 504 519 484 511 q 541 547 524 527 q 579 608 558 567 l 641 608 l 580 348 l 522 348 q 519 403 522 385 q 512 429 517 420 q 501 442 508 437 q 484 449 494 447 q 448 451 473 451 l 312 451 l 225 60 l 426 60 q 476 64 456 60 q 514 79 497 68 q 547 107 531 90 q 579 152 562 125 q 624 235 595 179 l 690 235 l 630 0 l 28 0 l 36 33 q 75 46 62 37 q 96 72 87 56 q 113 112 105 88 q 135 202 120 135 l 250 724 q 265 833 265 792 q 249 878 265 865 q 199 892 233 890 l 206 926 l 830 926 m 757 1147 l 731 1027 l 619 1027 l 645 1147 l 757 1147 m 519 1147 l 494 1027 l 382 1027 l 408 1147 l 519 1147 z "},"Ē":{"ha":789,"x_min":28,"x_max":830,"o":"m 830 926 l 783 718 l 718 718 q 711 794 716 766 q 699 834 705 821 q 683 854 692 848 q 661 863 674 861 q 623 866 648 866 l 402 866 l 325 511 l 454 511 q 504 519 484 511 q 541 547 524 527 q 579 608 558 567 l 641 608 l 580 348 l 522 348 q 519 403 522 385 q 512 429 517 420 q 501 442 508 437 q 484 449 494 447 q 448 451 473 451 l 312 451 l 225 60 l 426 60 q 476 64 456 60 q 514 79 497 68 q 547 107 531 90 q 579 152 562 125 q 624 235 595 179 l 690 235 l 630 0 l 28 0 l 36 33 q 75 46 62 37 q 96 72 87 56 q 113 112 105 88 q 135 202 120 135 l 250 724 q 265 833 265 792 q 249 878 265 865 q 199 892 233 890 l 206 926 l 830 926 m 747 1043 l 387 1043 l 405 1128 l 764 1128 l 747 1043 z "},"Ĕ":{"ha":789,"x_min":28,"x_max":830,"o":"m 830 926 l 783 718 l 718 718 q 711 794 716 766 q 699 834 705 821 q 683 854 692 848 q 661 863 674 861 q 623 866 648 866 l 402 866 l 325 511 l 454 511 q 504 519 484 511 q 541 547 524 527 q 579 608 558 567 l 641 608 l 580 348 l 522 348 q 519 403 522 385 q 512 429 517 420 q 501 442 508 437 q 484 449 494 447 q 448 451 473 451 l 312 451 l 225 60 l 426 60 q 476 64 456 60 q 514 79 497 68 q 547 107 531 90 q 579 152 562 125 q 624 235 595 179 l 690 235 l 630 0 l 28 0 l 36 33 q 75 46 62 37 q 96 72 87 56 q 113 112 105 88 q 135 202 120 135 l 250 724 q 265 833 265 792 q 249 878 265 865 q 199 892 233 890 l 206 926 l 830 926 m 802 1185 q 722 1084 761 1122 q 642 1029 684 1046 q 543 1012 601 1012 q 461 1037 494 1012 q 413 1107 429 1063 q 397 1209 397 1152 l 452 1219 q 484 1127 457 1157 q 559 1098 511 1098 q 628 1108 599 1098 q 689 1143 658 1118 q 754 1214 720 1168 l 802 1185 z "},"Ė":{"ha":789,"x_min":28,"x_max":830,"o":"m 830 926 l 783 718 l 718 718 q 711 794 716 766 q 699 834 705 821 q 683 854 692 848 q 661 863 674 861 q 623 866 648 866 l 402 866 l 325 511 l 454 511 q 504 519 484 511 q 541 547 524 527 q 579 608 558 567 l 641 608 l 580 348 l 522 348 q 519 403 522 385 q 512 429 517 420 q 501 442 508 437 q 484 449 494 447 q 448 451 473 451 l 312 451 l 225 60 l 426 60 q 476 64 456 60 q 514 79 497 68 q 547 107 531 90 q 579 152 562 125 q 624 235 595 179 l 690 235 l 630 0 l 28 0 l 36 33 q 75 46 62 37 q 96 72 87 56 q 113 112 105 88 q 135 202 120 135 l 250 724 q 265 833 265 792 q 249 878 265 865 q 199 892 233 890 l 206 926 l 830 926 m 645 1152 l 614 1021 l 494 1021 l 525 1152 l 645 1152 z "},"Ę":{"ha":789,"x_min":28,"x_max":830,"o":"m 830 926 l 783 718 l 718 718 q 711 794 716 766 q 699 834 705 821 q 683 854 692 848 q 661 863 674 861 q 623 866 648 866 l 402 866 l 325 511 l 454 511 q 504 519 484 511 q 541 547 524 527 q 579 608 558 567 l 641 608 l 580 348 l 522 348 q 519 403 522 385 q 512 429 517 420 q 501 442 508 437 q 484 449 494 447 q 448 451 473 451 l 312 451 l 225 60 l 426 60 q 476 64 456 60 q 514 79 497 68 q 547 107 531 90 q 579 152 562 125 q 624 235 595 179 l 690 235 l 630 0 l 576 0 q 470 -98 500 -58 q 440 -173 440 -138 q 454 -218 440 -205 q 496 -231 467 -231 q 537 -223 518 -231 q 572 -208 557 -216 l 583 -254 q 526 -281 558 -271 q 468 -292 494 -292 q 380 -266 409 -292 q 351 -185 351 -239 q 392 -93 351 -140 q 511 0 433 -45 l 28 0 l 36 33 q 75 46 62 37 q 96 72 87 56 q 113 112 105 88 q 135 202 120 135 l 250 724 q 265 833 265 792 q 249 878 265 865 q 199 892 233 890 l 206 926 l 830 926 z "},"Ĝ":{"ha":812,"x_min":85,"x_max":812,"o":"m 553 217 q 568 326 568 281 q 552 371 568 358 q 502 385 536 383 l 509 418 l 781 418 l 773 385 q 740 375 750 380 q 723 362 730 370 q 708 338 715 353 q 693 295 701 323 q 674 216 685 267 l 627 3 l 574 -12 l 538 42 q 463 9 490 19 q 406 -5 435 0 q 345 -11 377 -11 q 202 24 261 -11 q 114 125 144 60 q 85 280 85 191 q 100 429 85 353 q 145 589 117 515 q 208 718 172 661 q 288 819 243 774 q 372 883 326 857 q 469 923 418 909 q 576 937 520 937 q 694 929 641 937 q 812 901 748 921 l 770 718 l 705 718 q 685 811 701 777 q 641 861 670 846 q 566 877 612 877 q 461 847 509 877 q 369 758 413 817 q 288 611 324 700 q 232 430 252 522 q 213 263 213 338 q 249 101 213 153 q 361 48 286 48 q 418 55 389 48 q 472 77 447 61 q 517 119 498 92 q 546 185 537 145 l 553 217 m 650 1207 l 760 1030 l 715 996 l 593 1120 l 586 1120 l 408 996 l 372 1038 l 558 1207 l 650 1207 z "},"Ğ":{"ha":812,"x_min":85,"x_max":812,"o":"m 553 217 q 568 326 568 281 q 552 371 568 358 q 502 385 536 383 l 509 418 l 781 418 l 773 385 q 740 375 750 380 q 723 362 730 370 q 708 338 715 353 q 693 295 701 323 q 674 216 685 267 l 627 3 l 574 -12 l 538 42 q 463 9 490 19 q 406 -5 435 0 q 345 -11 377 -11 q 202 24 261 -11 q 114 125 144 60 q 85 280 85 191 q 100 429 85 353 q 145 589 117 515 q 208 718 172 661 q 288 819 243 774 q 372 883 326 857 q 469 923 418 909 q 576 937 520 937 q 694 929 641 937 q 812 901 748 921 l 770 718 l 705 718 q 685 811 701 777 q 641 861 670 846 q 566 877 612 877 q 461 847 509 877 q 369 758 413 817 q 288 611 324 700 q 232 430 252 522 q 213 263 213 338 q 249 101 213 153 q 361 48 286 48 q 418 55 389 48 q 472 77 447 61 q 517 119 498 92 q 546 185 537 145 l 553 217 m 804 1185 q 724 1084 763 1122 q 644 1029 686 1046 q 545 1012 603 1012 q 464 1037 496 1012 q 415 1107 431 1063 q 399 1209 399 1152 l 454 1219 q 486 1127 459 1157 q 562 1098 513 1098 q 630 1108 601 1098 q 691 1143 660 1118 q 756 1214 722 1168 l 804 1185 z "},"Ġ":{"ha":812,"x_min":85,"x_max":812,"o":"m 553 217 q 568 326 568 281 q 552 371 568 358 q 502 385 536 383 l 509 418 l 781 418 l 773 385 q 740 375 750 380 q 723 362 730 370 q 708 338 715 353 q 693 295 701 323 q 674 216 685 267 l 627 3 l 574 -12 l 538 42 q 463 9 490 19 q 406 -5 435 0 q 345 -11 377 -11 q 202 24 261 -11 q 114 125 144 60 q 85 280 85 191 q 100 429 85 353 q 145 589 117 515 q 208 718 172 661 q 288 819 243 774 q 372 883 326 857 q 469 923 418 909 q 576 937 520 937 q 694 929 641 937 q 812 901 748 921 l 770 718 l 705 718 q 685 811 701 777 q 641 861 670 846 q 566 877 612 877 q 461 847 509 877 q 369 758 413 817 q 288 611 324 700 q 232 430 252 522 q 213 263 213 338 q 249 101 213 153 q 361 48 286 48 q 418 55 389 48 q 472 77 447 61 q 517 119 498 92 q 546 185 537 145 l 553 217 m 653 1152 l 622 1021 l 502 1021 l 533 1152 l 653 1152 z "},"Ģ":{"ha":812,"x_min":85,"x_max":812,"o":"m 553 217 q 568 326 568 281 q 552 371 568 358 q 502 385 536 383 l 509 418 l 781 418 l 773 385 q 740 375 750 380 q 723 362 730 370 q 708 338 715 353 q 693 295 701 323 q 674 216 685 267 l 627 3 l 574 -12 l 538 42 q 463 9 490 19 q 406 -5 435 0 q 345 -11 377 -11 q 202 24 261 -11 q 114 125 144 60 q 85 280 85 191 q 100 429 85 353 q 145 589 117 515 q 208 718 172 661 q 288 819 243 774 q 372 883 326 857 q 469 923 418 909 q 576 937 520 937 q 694 929 641 937 q 812 901 748 921 l 770 718 l 705 718 q 685 811 701 777 q 641 861 670 846 q 566 877 612 877 q 461 847 509 877 q 369 758 413 817 q 288 611 324 700 q 232 430 252 522 q 213 263 213 338 q 249 101 213 153 q 361 48 286 48 q 418 55 389 48 q 472 77 447 61 q 517 119 498 92 q 546 185 537 145 l 553 217 m 396 -67 q 397 -78 397 -73 l 397 -88 q 334 -230 397 -177 q 153 -292 271 -283 l 153 -240 q 237 -214 205 -236 q 283 -157 269 -192 q 298 -67 297 -123 l 396 -67 z "},"Ĥ":{"ha":929,"x_min":28,"x_max":962,"o":"m 740 197 q 728 134 731 157 q 726 92 726 111 q 741 48 726 61 q 792 33 756 36 l 785 0 l 513 0 l 521 33 q 559 46 547 37 q 581 72 572 56 q 597 112 590 88 q 620 202 605 135 l 675 454 l 311 454 l 255 197 q 247 156 250 172 q 242 125 243 140 q 241 92 241 110 q 254 50 241 62 q 307 33 268 37 l 300 0 l 28 0 l 36 33 q 75 46 62 37 q 96 72 87 56 q 113 112 105 88 q 135 202 120 135 l 250 724 q 261 784 256 752 q 265 833 265 815 q 249 878 265 865 q 199 892 233 890 l 206 926 l 477 926 l 470 892 q 433 880 444 887 q 413 860 422 873 q 394 818 404 846 q 371 724 385 789 l 325 516 l 689 516 l 735 724 q 746 784 741 752 q 750 833 750 815 q 734 878 750 865 q 684 892 718 890 l 691 926 l 962 926 l 955 892 q 922 882 932 887 q 905 869 913 878 q 890 846 897 861 q 875 801 883 831 q 856 724 867 772 l 740 197 m 705 1207 l 814 1030 l 770 996 l 648 1120 l 641 1120 l 463 996 l 427 1038 l 613 1207 l 705 1207 z "},"Ħ":{"ha":935,"x_min":28,"x_max":968,"o":"m 746 197 q 734 134 737 157 q 732 92 732 111 q 747 48 732 61 q 798 33 762 36 l 791 0 l 519 0 l 527 33 q 566 46 553 37 q 587 72 578 56 q 604 112 596 88 q 626 202 611 135 l 657 342 l 287 342 l 255 197 q 244 142 248 164 q 241 92 241 119 q 254 50 241 62 q 307 33 268 37 l 300 0 l 28 0 l 36 33 q 75 46 62 37 q 96 72 87 56 q 113 112 105 88 q 135 202 120 135 l 250 724 q 261 784 256 752 q 265 833 265 815 q 249 878 265 865 q 199 892 233 890 l 206 926 l 477 926 l 470 892 q 433 880 444 887 q 413 860 422 873 q 394 818 404 846 q 371 724 385 789 l 350 628 l 720 628 l 741 724 q 751 782 747 749 q 756 833 756 814 q 740 878 756 865 q 690 892 724 890 l 697 926 l 968 926 l 961 892 q 924 880 935 887 q 904 860 913 873 q 885 818 895 846 q 862 724 876 789 l 746 197 m 671 404 l 706 566 l 336 566 l 300 404 l 671 404 z "},"Ì":{"ha":445,"x_min":28,"x_max":477,"o":"m 255 197 q 243 134 246 157 q 241 92 241 111 q 256 48 241 61 q 307 33 271 36 l 300 0 l 28 0 l 36 33 q 75 46 62 37 q 96 72 87 56 q 113 112 105 88 q 135 202 120 135 l 250 724 q 261 784 257 755 q 265 833 265 813 q 249 878 265 865 q 199 892 233 890 l 206 926 l 477 926 l 470 892 q 433 880 444 887 q 413 860 422 873 q 394 818 404 846 q 371 724 385 789 l 255 197 m 342 1208 l 473 1034 l 433 994 l 212 1175 l 220 1208 l 342 1208 z "},"Í":{"ha":445,"x_min":28,"x_max":606,"o":"m 255 197 q 243 134 246 157 q 241 92 241 111 q 256 48 241 61 q 307 33 271 36 l 300 0 l 28 0 l 36 33 q 75 46 62 37 q 96 72 87 56 q 113 112 105 88 q 135 202 120 135 l 250 724 q 261 784 257 755 q 265 833 265 813 q 249 878 265 865 q 199 892 233 890 l 206 926 l 477 926 l 470 892 q 433 880 444 887 q 413 860 422 873 q 394 818 404 846 q 371 724 385 789 l 255 197 m 606 1208 l 598 1175 l 310 993 l 276 1041 l 458 1208 l 606 1208 z "},"Î":{"ha":445,"x_min":28,"x_max":572,"o":"m 255 197 q 243 134 246 157 q 241 92 241 111 q 256 48 241 61 q 307 33 271 36 l 300 0 l 28 0 l 36 33 q 75 46 62 37 q 96 72 87 56 q 113 112 105 88 q 135 202 120 135 l 250 724 q 261 784 257 755 q 265 833 265 813 q 249 878 265 865 q 199 892 233 890 l 206 926 l 477 926 l 470 892 q 433 880 444 887 q 413 860 422 873 q 394 818 404 846 q 371 724 385 789 l 255 197 m 463 1207 l 572 1030 l 528 996 l 406 1120 l 399 1120 l 220 996 l 185 1038 l 371 1207 l 463 1207 z "},"Ĩ":{"ha":445,"x_min":28,"x_max":615,"o":"m 255 197 q 243 134 246 157 q 241 92 241 111 q 256 48 241 61 q 307 33 271 36 l 300 0 l 28 0 l 36 33 q 75 46 62 37 q 96 72 87 56 q 113 112 105 88 q 135 202 120 135 l 250 724 q 261 784 257 755 q 265 833 265 813 q 249 878 265 865 q 199 892 233 890 l 206 926 l 477 926 l 470 892 q 433 880 444 887 q 413 860 422 873 q 394 818 404 846 q 371 724 385 789 l 255 197 m 568 1166 l 615 1134 q 555 1055 581 1083 q 507 1017 529 1027 q 459 1006 486 1006 q 431 1010 444 1006 q 407 1021 418 1014 q 373 1046 395 1027 q 344 1069 353 1063 q 327 1078 335 1075 q 310 1081 319 1081 q 279 1075 293 1081 q 250 1051 266 1068 q 213 1006 233 1034 l 165 1038 q 229 1120 207 1097 q 272 1155 250 1144 q 325 1166 294 1166 q 345 1164 336 1166 q 363 1158 354 1162 q 378 1149 372 1154 q 405 1128 385 1144 q 446 1098 433 1105 q 473 1091 459 1091 q 502 1098 488 1091 q 532 1121 515 1105 q 568 1166 548 1137 z "},"Ï":{"ha":445,"x_min":28,"x_max":578,"o":"m 255 197 q 243 134 246 157 q 241 92 241 111 q 256 48 241 61 q 307 33 271 36 l 300 0 l 28 0 l 36 33 q 75 46 62 37 q 96 72 87 56 q 113 112 105 88 q 135 202 120 135 l 250 724 q 261 784 257 755 q 265 833 265 813 q 249 878 265 865 q 199 892 233 890 l 206 926 l 477 926 l 470 892 q 433 880 444 887 q 413 860 422 873 q 394 818 404 846 q 371 724 385 789 l 255 197 m 578 1147 l 552 1027 l 440 1027 l 466 1147 l 578 1147 m 340 1147 l 315 1027 l 203 1027 l 229 1147 l 340 1147 z "},"Ī":{"ha":445,"x_min":28,"x_max":578,"o":"m 255 197 q 243 134 246 157 q 241 92 241 111 q 256 48 241 61 q 307 33 271 36 l 300 0 l 28 0 l 36 33 q 75 46 62 37 q 96 72 87 56 q 113 112 105 88 q 135 202 120 135 l 250 724 q 261 784 257 755 q 265 833 265 813 q 249 878 265 865 q 199 892 233 890 l 206 926 l 477 926 l 470 892 q 433 880 444 887 q 413 860 422 873 q 394 818 404 846 q 371 724 385 789 l 255 197 m 561 1043 l 201 1043 l 219 1128 l 578 1128 l 561 1043 z "},"Ĭ":{"ha":445,"x_min":28,"x_max":617,"o":"m 255 197 q 243 134 246 157 q 241 92 241 111 q 256 48 241 61 q 307 33 271 36 l 300 0 l 28 0 l 36 33 q 75 46 62 37 q 96 72 87 56 q 113 112 105 88 q 135 202 120 135 l 250 724 q 261 784 257 755 q 265 833 265 813 q 249 878 265 865 q 199 892 233 890 l 206 926 l 477 926 l 470 892 q 433 880 444 887 q 413 860 422 873 q 394 818 404 846 q 371 724 385 789 l 255 197 m 617 1185 q 537 1084 576 1122 q 457 1029 498 1046 q 358 1012 416 1012 q 276 1037 309 1012 q 228 1107 243 1063 q 212 1209 212 1152 l 267 1219 q 299 1127 272 1157 q 374 1098 326 1098 q 443 1108 414 1098 q 504 1143 473 1118 q 569 1214 534 1168 l 617 1185 z "},"İ":{"ha":445,"x_min":28,"x_max":477,"o":"m 255 197 q 243 134 246 157 q 241 92 241 111 q 256 48 241 61 q 307 33 271 36 l 300 0 l 28 0 l 36 33 q 75 46 62 37 q 96 72 87 56 q 113 112 105 88 q 135 202 120 135 l 250 724 q 261 784 257 755 q 265 833 265 813 q 249 878 265 865 q 199 892 233 890 l 206 926 l 477 926 l 470 892 q 433 880 444 887 q 413 860 422 873 q 394 818 404 846 q 371 724 385 789 l 255 197 m 466 1152 l 435 1021 l 315 1021 l 346 1152 l 466 1152 z "},"Į":{"ha":445,"x_min":28,"x_max":477,"o":"m 255 197 q 243 134 246 157 q 241 92 241 111 q 256 48 241 61 q 307 33 271 36 l 300 0 l 264 0 q 158 -98 189 -58 q 128 -173 128 -138 q 142 -218 128 -205 q 184 -231 155 -231 q 225 -223 206 -231 q 260 -208 245 -216 l 271 -254 q 214 -281 246 -271 q 156 -292 182 -292 q 68 -266 97 -292 q 39 -185 39 -239 q 80 -93 39 -140 q 199 0 121 -45 l 28 0 l 36 33 q 75 46 62 37 q 96 72 87 56 q 113 112 105 88 q 135 202 120 135 l 250 724 q 261 784 257 755 q 265 833 265 813 q 249 878 265 865 q 199 892 233 890 l 206 926 l 477 926 l 470 892 q 433 880 444 887 q 413 860 422 873 q 394 818 404 846 q 371 724 385 789 l 255 197 z "},"Ĳ":{"ha":861,"x_min":28,"x_max":908,"o":"m 255 197 q 243 134 246 157 q 241 92 241 111 q 256 48 241 61 q 307 33 271 36 l 300 0 l 28 0 l 36 33 q 75 46 62 37 q 96 72 87 56 q 113 112 105 88 q 135 202 120 135 l 250 724 q 261 784 257 755 q 265 833 265 813 q 249 878 265 865 q 199 892 233 890 l 206 926 l 477 926 l 470 892 q 433 880 444 887 q 413 860 422 873 q 394 818 404 846 q 371 724 385 789 l 255 197 m 649 29 q 590 -139 626 -77 q 497 -232 554 -202 q 356 -262 439 -262 q 320 -261 338 -262 q 292 -256 302 -259 l 309 -191 q 333 -195 320 -194 q 361 -196 347 -196 q 429 -178 400 -196 q 481 -114 458 -159 q 522 9 505 -69 l 681 724 q 692 784 688 754 q 696 833 696 813 q 680 878 696 865 q 629 892 663 890 l 637 926 l 908 926 l 901 892 q 864 880 875 887 q 843 860 852 873 q 825 818 834 846 q 802 724 816 789 l 649 29 z "},"Ĵ":{"ha":416,"x_min":-153,"x_max":554,"o":"m 204 29 q 145 -139 181 -77 q 52 -232 109 -202 q -89 -262 -5 -262 q -125 -261 -107 -262 q -153 -256 -142 -259 l -136 -191 q -112 -195 -125 -194 q -84 -196 -98 -196 q -16 -178 -45 -196 q 36 -114 13 -159 q 77 9 60 -69 l 236 724 q 247 784 243 754 q 251 833 251 813 q 235 878 251 865 q 184 892 218 890 l 192 926 l 463 926 l 456 892 q 419 880 430 887 q 398 860 408 873 q 380 818 389 846 q 357 724 371 789 l 204 29 m 445 1207 l 554 1030 l 509 996 l 387 1120 l 380 1120 l 202 996 l 167 1038 l 353 1207 l 445 1207 z "},"Ķ":{"ha":838,"x_min":28,"x_max":949,"o":"m 323 507 l 345 507 q 397 517 374 507 q 452 551 420 526 q 551 644 483 576 q 648 746 619 711 q 690 806 677 781 q 703 852 703 831 q 690 880 703 869 q 651 892 676 890 l 659 926 l 949 926 l 942 892 q 881 864 915 888 q 776 770 846 840 l 513 514 l 657 167 q 687 102 675 123 q 711 67 698 81 q 740 45 724 54 q 779 33 756 37 l 772 0 l 510 0 l 517 33 q 554 66 554 37 q 552 84 554 75 q 545 112 551 94 q 529 156 539 130 l 441 372 q 414 426 425 410 q 389 448 402 441 q 349 454 376 454 l 311 454 l 255 197 q 243 133 246 157 q 241 92 241 110 q 256 48 241 61 q 307 33 271 36 l 300 0 l 28 0 l 36 33 q 75 46 62 37 q 96 72 87 56 q 113 112 105 88 q 135 202 120 135 l 250 724 q 261 784 257 755 q 265 833 265 813 q 249 878 265 865 q 199 892 233 890 l 206 926 l 477 926 l 470 892 q 433 880 444 887 q 413 860 422 873 q 394 818 404 846 q 371 724 385 789 l 323 507 m 422 -67 q 422 -78 422 -73 l 422 -88 q 359 -230 422 -177 q 179 -292 296 -283 l 179 -240 q 263 -214 231 -236 q 309 -157 295 -192 q 324 -67 323 -123 l 422 -67 z "},"Ĺ":{"ha":726,"x_min":28,"x_max":726,"o":"m 36 33 q 75 46 62 37 q 96 72 87 56 q 113 112 105 88 q 135 202 120 135 l 250 724 q 261 784 257 755 q 265 833 265 813 q 249 878 265 865 q 199 892 233 890 l 206 926 l 477 926 l 470 892 q 433 880 444 887 q 413 860 422 873 q 394 818 404 846 q 371 724 385 789 l 226 62 l 393 62 q 464 71 438 62 q 514 103 490 80 q 559 167 537 127 q 605 267 582 207 l 671 267 l 602 0 l 28 0 l 36 33 m 726 1208 l 718 1175 l 430 993 l 396 1041 l 578 1208 l 726 1208 z "},"Ľ":{"ha":726,"x_min":28,"x_max":723,"o":"m 36 33 q 75 46 62 37 q 96 72 87 56 q 113 112 105 88 q 135 202 120 135 l 250 724 q 261 784 257 755 q 265 833 265 813 q 249 878 265 865 q 199 892 233 890 l 206 926 l 477 926 l 470 892 q 433 880 444 887 q 413 860 422 873 q 394 818 404 846 q 371 724 385 789 l 226 62 l 393 62 q 464 71 438 62 q 514 103 490 80 q 559 167 537 127 q 605 267 582 207 l 671 267 l 602 0 l 28 0 l 36 33 m 722 970 q 723 937 723 964 q 713 855 723 890 q 684 793 703 821 q 634 738 665 765 q 545 667 604 711 l 513 709 q 591 814 565 751 q 617 970 617 876 l 722 970 z "},"Ļ":{"ha":726,"x_min":28,"x_max":671,"o":"m 36 33 q 75 46 62 37 q 96 72 87 56 q 113 112 105 88 q 135 202 120 135 l 250 724 q 261 784 257 755 q 265 833 265 813 q 249 878 265 865 q 199 892 233 890 l 206 926 l 477 926 l 470 892 q 433 880 444 887 q 413 860 422 873 q 394 818 404 846 q 371 724 385 789 l 226 62 l 393 62 q 464 71 438 62 q 514 103 490 80 q 559 167 537 127 q 605 267 582 207 l 671 267 l 602 0 l 28 0 l 36 33 m 363 -67 q 363 -78 363 -73 l 363 -88 q 300 -230 363 -177 q 120 -292 237 -283 l 120 -240 q 204 -214 172 -236 q 250 -157 236 -192 q 265 -67 264 -123 l 363 -67 z "},"Ł":{"ha":730,"x_min":33,"x_max":675,"o":"m 321 481 l 230 62 l 397 62 q 468 71 442 62 q 518 103 494 80 q 564 167 541 127 q 609 267 586 207 l 675 267 l 606 0 l 33 0 l 40 33 q 79 46 66 37 q 100 72 92 56 q 117 112 109 88 q 139 202 124 135 l 185 413 l 65 338 l 34 395 l 203 494 l 254 724 q 265 784 261 755 q 269 833 269 813 q 253 878 269 865 q 203 892 237 890 l 210 926 l 481 926 l 474 892 q 437 880 448 887 q 417 860 426 873 q 398 818 408 846 q 375 724 389 789 l 340 564 l 550 690 l 582 633 l 321 481 z "},"Ŀ":{"ha":842,"x_min":28,"x_max":872,"o":"m 36 33 q 75 46 62 37 q 96 72 87 56 q 113 112 105 88 q 135 202 120 135 l 250 724 q 261 784 257 755 q 265 833 265 813 q 249 878 265 865 q 199 892 233 890 l 206 926 l 477 926 l 470 892 q 433 880 444 887 q 413 860 422 873 q 394 818 404 846 q 371 724 385 789 l 226 62 l 393 62 q 464 71 438 62 q 514 103 490 80 q 559 167 537 127 q 605 267 582 207 l 671 267 l 602 0 l 28 0 l 36 33 m 872 539 l 841 408 l 721 408 l 752 539 l 872 539 z "},"Ń":{"ha":932,"x_min":27,"x_max":968,"o":"m 968 926 l 961 892 q 924 880 935 887 q 904 860 913 873 q 885 818 895 846 q 862 724 876 789 l 703 0 l 610 0 l 412 582 q 349 790 376 686 l 340 790 q 318 658 336 755 q 279 468 300 561 l 220 197 q 210 142 214 169 q 205 92 205 116 q 221 48 205 61 q 272 33 236 36 l 264 0 l 27 0 l 35 33 q 73 46 60 37 q 95 72 86 56 q 111 112 104 88 q 134 202 119 135 l 249 724 q 260 780 256 753 q 264 833 264 806 q 248 878 264 865 q 197 892 231 890 l 205 926 l 421 926 l 600 397 q 660 205 639 283 l 667 205 q 692 342 673 246 q 728 511 711 439 l 775 724 q 785 777 780 747 q 790 833 790 808 q 774 878 790 865 q 724 892 758 890 l 731 926 l 968 926 m 855 1208 l 848 1175 l 559 993 l 526 1041 l 707 1208 l 855 1208 z "},"Ň":{"ha":932,"x_min":27,"x_max":968,"o":"m 968 926 l 961 892 q 924 880 935 887 q 904 860 913 873 q 885 818 895 846 q 862 724 876 789 l 703 0 l 610 0 l 412 582 q 349 790 376 686 l 340 790 q 318 658 336 755 q 279 468 300 561 l 220 197 q 210 142 214 169 q 205 92 205 116 q 221 48 205 61 q 272 33 236 36 l 264 0 l 27 0 l 35 33 q 73 46 60 37 q 95 72 86 56 q 111 112 104 88 q 134 202 119 135 l 249 724 q 260 780 256 753 q 264 833 264 806 q 248 878 264 865 q 197 892 231 890 l 205 926 l 421 926 l 600 397 q 660 205 639 283 l 667 205 q 692 342 673 246 q 728 511 711 439 l 775 724 q 785 777 780 747 q 790 833 790 808 q 774 878 790 865 q 724 892 758 890 l 731 926 l 968 926 m 574 996 l 465 1173 l 509 1206 l 631 1083 l 638 1083 l 817 1207 l 852 1165 l 666 996 l 574 996 z "},"Ñ":{"ha":932,"x_min":27,"x_max":968,"o":"m 968 926 l 961 892 q 924 880 935 887 q 904 860 913 873 q 885 818 895 846 q 862 724 876 789 l 703 0 l 610 0 l 412 582 q 349 790 376 686 l 340 790 q 318 658 336 755 q 279 468 300 561 l 220 197 q 210 142 214 169 q 205 92 205 116 q 221 48 205 61 q 272 33 236 36 l 264 0 l 27 0 l 35 33 q 73 46 60 37 q 95 72 86 56 q 111 112 104 88 q 134 202 119 135 l 249 724 q 260 780 256 753 q 264 833 264 806 q 248 878 264 865 q 197 892 231 890 l 205 926 l 421 926 l 600 397 q 660 205 639 283 l 667 205 q 692 342 673 246 q 728 511 711 439 l 775 724 q 785 777 780 747 q 790 833 790 808 q 774 878 790 865 q 724 892 758 890 l 731 926 l 968 926 m 818 1166 l 865 1134 q 805 1055 831 1083 q 757 1017 779 1027 q 709 1006 735 1006 q 680 1010 693 1006 q 656 1021 667 1014 q 623 1046 645 1027 q 593 1069 602 1063 q 576 1078 585 1075 q 559 1081 568 1081 q 529 1075 543 1081 q 499 1051 515 1068 q 463 1006 483 1034 l 415 1038 q 478 1120 456 1097 q 522 1155 500 1144 q 574 1166 544 1166 q 594 1164 585 1166 q 612 1158 604 1162 q 628 1149 621 1154 q 654 1128 635 1144 q 695 1098 682 1105 q 722 1091 709 1091 q 751 1098 738 1091 q 781 1121 765 1105 q 818 1166 798 1137 z "},"Ņ":{"ha":932,"x_min":27,"x_max":968,"o":"m 968 926 l 961 892 q 924 880 935 887 q 904 860 913 873 q 885 818 895 846 q 862 724 876 789 l 703 0 l 610 0 l 412 582 q 349 790 376 686 l 340 790 q 318 658 336 755 q 279 468 300 561 l 220 197 q 210 142 214 169 q 205 92 205 116 q 221 48 205 61 q 272 33 236 36 l 264 0 l 27 0 l 35 33 q 73 46 60 37 q 95 72 86 56 q 111 112 104 88 q 134 202 119 135 l 249 724 q 260 780 256 753 q 264 833 264 806 q 248 878 264 865 q 197 892 231 890 l 205 926 l 421 926 l 600 397 q 660 205 639 283 l 667 205 q 692 342 673 246 q 728 511 711 439 l 775 724 q 785 777 780 747 q 790 833 790 808 q 774 878 790 865 q 724 892 758 890 l 731 926 l 968 926 m 456 -67 q 456 -78 456 -73 l 456 -88 q 393 -230 456 -177 q 213 -292 330 -283 l 213 -240 q 297 -214 265 -236 q 343 -157 329 -192 q 358 -67 357 -123 l 456 -67 z "},"Ò":{"ha":863,"x_min":84,"x_max":840,"o":"m 568 937 q 713 904 652 937 q 807 805 774 871 q 840 641 840 739 q 804 405 840 536 q 700 177 768 273 q 545 35 632 81 q 361 -12 457 -12 q 204 25 267 -12 q 113 127 142 62 q 84 281 84 193 q 109 474 84 368 q 177 667 134 581 q 279 814 220 753 q 412 905 338 874 q 568 937 485 937 m 711 669 q 560 877 711 877 q 491 865 524 877 q 418 821 453 850 q 347 736 380 787 q 278 597 307 675 q 229 421 248 515 q 212 258 212 331 q 250 100 212 152 q 364 48 288 48 q 480 85 425 48 q 602 230 548 131 q 692 490 661 336 q 711 669 711 580 m 562 1208 l 692 1034 l 652 994 l 431 1175 l 439 1208 l 562 1208 z "},"Ó":{"ha":863,"x_min":84,"x_max":840,"o":"m 568 937 q 713 904 652 937 q 807 805 774 871 q 840 641 840 739 q 804 405 840 536 q 700 177 768 273 q 545 35 632 81 q 361 -12 457 -12 q 204 25 267 -12 q 113 127 142 62 q 84 281 84 193 q 109 474 84 368 q 177 667 134 581 q 279 814 220 753 q 412 905 338 874 q 568 937 485 937 m 711 669 q 560 877 711 877 q 491 865 524 877 q 418 821 453 850 q 347 736 380 787 q 278 597 307 675 q 229 421 248 515 q 212 258 212 331 q 250 100 212 152 q 364 48 288 48 q 480 85 425 48 q 602 230 548 131 q 692 490 661 336 q 711 669 711 580 m 814 1208 l 807 1175 l 519 993 l 485 1041 l 667 1208 l 814 1208 z "},"Ô":{"ha":863,"x_min":84,"x_max":840,"o":"m 568 937 q 713 904 652 937 q 807 805 774 871 q 840 641 840 739 q 804 405 840 536 q 700 177 768 273 q 545 35 632 81 q 361 -12 457 -12 q 204 25 267 -12 q 113 127 142 62 q 84 281 84 193 q 109 474 84 368 q 177 667 134 581 q 279 814 220 753 q 412 905 338 874 q 568 937 485 937 m 711 669 q 560 877 711 877 q 491 865 524 877 q 418 821 453 850 q 347 736 380 787 q 278 597 307 675 q 229 421 248 515 q 212 258 212 331 q 250 100 212 152 q 364 48 288 48 q 480 85 425 48 q 602 230 548 131 q 692 490 661 336 q 711 669 711 580 m 672 1207 l 781 1030 l 736 996 l 614 1120 l 608 1120 l 429 996 l 394 1038 l 580 1207 l 672 1207 z "},"Õ":{"ha":863,"x_min":84,"x_max":840,"o":"m 568 937 q 713 904 652 937 q 807 805 774 871 q 840 641 840 739 q 804 405 840 536 q 700 177 768 273 q 545 35 632 81 q 361 -12 457 -12 q 204 25 267 -12 q 113 127 142 62 q 84 281 84 193 q 109 474 84 368 q 177 667 134 581 q 279 814 220 753 q 412 905 338 874 q 568 937 485 937 m 711 669 q 560 877 711 877 q 491 865 524 877 q 418 821 453 850 q 347 736 380 787 q 278 597 307 675 q 229 421 248 515 q 212 258 212 331 q 250 100 212 152 q 364 48 288 48 q 480 85 425 48 q 602 230 548 131 q 692 490 661 336 q 711 669 711 580 m 777 1166 l 824 1134 q 764 1055 790 1083 q 716 1017 738 1027 q 668 1006 694 1006 q 640 1010 652 1006 q 615 1021 627 1014 q 582 1046 604 1027 q 553 1069 562 1063 q 536 1078 544 1075 q 519 1081 528 1081 q 488 1075 502 1081 q 458 1051 475 1068 q 422 1006 442 1034 l 374 1038 q 437 1120 416 1097 q 481 1155 459 1144 q 534 1166 503 1166 q 554 1164 545 1166 q 572 1158 563 1162 q 587 1149 581 1154 q 614 1128 594 1144 q 655 1098 642 1105 q 682 1091 668 1091 q 711 1098 697 1091 q 741 1121 724 1105 q 777 1166 757 1137 z "},"Ö":{"ha":863,"x_min":84,"x_max":840,"o":"m 568 937 q 713 904 652 937 q 807 805 774 871 q 840 641 840 739 q 804 405 840 536 q 700 177 768 273 q 545 35 632 81 q 361 -12 457 -12 q 204 25 267 -12 q 113 127 142 62 q 84 281 84 193 q 109 474 84 368 q 177 667 134 581 q 279 814 220 753 q 412 905 338 874 q 568 937 485 937 m 711 669 q 560 877 711 877 q 491 865 524 877 q 418 821 453 850 q 347 736 380 787 q 278 597 307 675 q 229 421 248 515 q 212 258 212 331 q 250 100 212 152 q 364 48 288 48 q 480 85 425 48 q 602 230 548 131 q 692 490 661 336 q 711 669 711 580 m 787 1147 l 762 1027 l 650 1027 l 675 1147 l 787 1147 m 550 1147 l 524 1027 l 412 1027 l 438 1147 l 550 1147 z "},"Ō":{"ha":863,"x_min":84,"x_max":840,"o":"m 568 937 q 713 904 652 937 q 807 805 774 871 q 840 641 840 739 q 804 405 840 536 q 700 177 768 273 q 545 35 632 81 q 361 -12 457 -12 q 204 25 267 -12 q 113 127 142 62 q 84 281 84 193 q 109 474 84 368 q 177 667 134 581 q 279 814 220 753 q 412 905 338 874 q 568 937 485 937 m 711 669 q 560 877 711 877 q 491 865 524 877 q 418 821 453 850 q 347 736 380 787 q 278 597 307 675 q 229 421 248 515 q 212 258 212 331 q 250 100 212 152 q 364 48 288 48 q 480 85 425 48 q 602 230 548 131 q 692 490 661 336 q 711 669 711 580 m 770 1043 l 411 1043 l 429 1128 l 788 1128 l 770 1043 z "},"Ŏ":{"ha":863,"x_min":84,"x_max":840,"o":"m 568 937 q 713 904 652 937 q 807 805 774 871 q 840 641 840 739 q 804 405 840 536 q 700 177 768 273 q 545 35 632 81 q 361 -12 457 -12 q 204 25 267 -12 q 113 127 142 62 q 84 281 84 193 q 109 474 84 368 q 177 667 134 581 q 279 814 220 753 q 412 905 338 874 q 568 937 485 937 m 711 669 q 560 877 711 877 q 491 865 524 877 q 418 821 453 850 q 347 736 380 787 q 278 597 307 675 q 229 421 248 515 q 212 258 212 331 q 250 100 212 152 q 364 48 288 48 q 480 85 425 48 q 602 230 548 131 q 692 490 661 336 q 711 669 711 580 m 826 1185 q 746 1084 785 1122 q 666 1029 707 1046 q 567 1012 625 1012 q 485 1037 518 1012 q 436 1107 452 1063 q 420 1209 420 1152 l 475 1219 q 508 1127 481 1157 q 583 1098 534 1098 q 652 1108 623 1098 q 712 1143 682 1118 q 778 1214 743 1168 l 826 1185 z "},"Ő":{"ha":863,"x_min":84,"x_max":910,"o":"m 568 937 q 713 904 652 937 q 807 805 774 871 q 840 641 840 739 q 804 405 840 536 q 700 177 768 273 q 545 35 632 81 q 361 -12 457 -12 q 204 25 267 -12 q 113 127 142 62 q 84 281 84 193 q 109 474 84 368 q 177 667 134 581 q 279 814 220 753 q 412 905 338 874 q 568 937 485 937 m 711 669 q 560 877 711 877 q 491 865 524 877 q 418 821 453 850 q 347 736 380 787 q 278 597 307 675 q 229 421 248 515 q 212 258 212 331 q 250 100 212 152 q 364 48 288 48 q 480 85 425 48 q 602 230 548 131 q 692 490 661 336 q 711 669 711 580 m 686 1208 l 679 1175 l 424 996 l 389 1035 l 580 1208 l 686 1208 m 910 1208 l 903 1175 l 648 996 l 613 1035 l 804 1208 l 910 1208 z "},"Ø":{"ha":863,"x_min":-22,"x_max":946,"o":"m -22 -92 l 128 99 q 84 281 84 168 q 109 474 84 368 q 177 667 134 581 q 279 814 220 753 q 412 905 338 874 q 568 937 485 937 q 746 882 676 937 l 852 1017 l 946 1017 l 795 826 q 840 641 840 754 q 804 405 840 536 q 700 177 768 273 q 545 35 632 81 q 361 -12 457 -12 q 178 43 247 -12 l 72 -92 l -22 -92 m 214 202 l 685 806 q 560 877 648 877 q 491 865 524 877 q 418 821 453 850 q 347 736 380 787 q 278 597 307 675 q 229 421 248 515 q 212 258 212 331 q 214 202 212 226 m 709 721 l 238 119 q 364 48 275 48 q 480 85 425 48 q 602 230 548 131 q 692 490 661 336 q 711 669 711 580 q 709 721 711 691 z "},"Ǿ":{"ha":863,"x_min":-22,"x_max":946,"o":"m -22 -92 l 128 99 q 84 281 84 168 q 109 474 84 368 q 177 667 134 581 q 279 814 220 753 q 412 905 338 874 q 568 937 485 937 q 746 882 676 937 l 852 1017 l 946 1017 l 795 826 q 840 641 840 754 q 804 405 840 536 q 700 177 768 273 q 545 35 632 81 q 361 -12 457 -12 q 178 43 247 -12 l 72 -92 l -22 -92 m 214 202 l 685 806 q 560 877 648 877 q 491 865 524 877 q 418 821 453 850 q 347 736 380 787 q 278 597 307 675 q 229 421 248 515 q 212 258 212 331 q 214 202 212 226 m 709 721 l 238 119 q 364 48 275 48 q 480 85 425 48 q 602 230 548 131 q 692 490 661 336 q 711 669 711 580 q 709 721 711 691 m 814 1208 l 807 1175 l 519 993 l 485 1041 l 667 1208 l 814 1208 z "},"Œ":{"ha":1245,"x_min":84,"x_max":1286,"o":"m 1286 926 l 1239 718 l 1174 718 q 1166 794 1172 766 q 1154 834 1161 821 q 1139 854 1147 848 q 1117 863 1130 861 q 1079 866 1103 866 l 868 866 l 791 511 l 910 511 q 960 519 940 511 q 997 547 980 527 q 1035 608 1014 567 l 1097 608 l 1036 348 l 978 348 q 975 403 978 385 q 968 429 972 420 q 957 442 964 437 q 939 449 950 447 q 903 451 928 451 l 779 451 l 694 60 l 882 60 q 932 64 911 60 q 970 79 953 68 q 1002 107 987 90 q 1035 152 1018 125 q 1080 235 1051 179 l 1145 235 l 1086 0 l 570 0 l 590 92 l 584 91 q 477 16 541 43 q 350 -11 413 -11 q 151 63 218 -11 q 84 281 84 138 q 118 513 84 382 q 216 740 153 643 q 367 887 280 837 q 555 937 453 937 q 665 914 617 937 q 749 840 713 891 l 756 840 l 774 926 l 1286 926 m 691 669 q 657 828 691 779 q 551 877 623 877 q 420 825 481 877 q 312 679 359 774 q 238 466 265 585 q 212 258 212 347 q 227 135 212 180 q 273 68 243 89 q 352 48 303 48 q 518 133 443 48 q 643 374 594 218 q 691 669 691 530 z "},"Ŕ":{"ha":820,"x_min":28,"x_max":800,"o":"m 549 420 q 601 361 581 395 q 633 267 621 328 l 649 189 q 660 143 654 164 q 673 103 665 122 q 690 72 681 83 q 710 53 699 60 q 733 41 720 45 q 767 33 747 37 l 760 0 l 572 0 q 534 144 551 60 l 504 288 q 486 350 496 325 q 461 390 475 376 q 427 408 446 404 q 380 412 408 412 l 302 412 l 255 197 q 247 155 249 171 q 242 122 244 140 q 241 92 241 105 q 248 59 241 71 q 268 41 254 47 q 315 33 281 36 l 307 0 l 28 0 l 36 33 q 75 46 62 37 q 96 72 87 56 q 113 112 105 88 q 135 202 120 135 l 250 724 q 265 831 265 792 q 250 878 265 865 q 199 892 234 890 l 206 926 l 508 926 q 625 917 580 926 q 703 892 671 909 q 757 848 735 875 q 789 788 779 821 q 800 716 800 754 q 780 609 800 656 q 726 527 760 562 q 645 467 691 492 q 549 427 600 443 l 549 420 m 395 471 q 518 485 469 471 q 600 530 567 500 q 653 608 632 559 q 674 714 674 657 q 669 766 674 743 q 654 804 663 789 q 632 830 646 819 q 598 850 618 842 q 551 862 578 859 q 478 866 524 866 q 402 863 442 866 l 315 471 l 395 471 m 797 1208 l 789 1175 l 501 993 l 467 1041 l 649 1208 l 797 1208 z "},"Ř":{"ha":820,"x_min":28,"x_max":800,"o":"m 549 420 q 601 361 581 395 q 633 267 621 328 l 649 189 q 660 143 654 164 q 673 103 665 122 q 690 72 681 83 q 710 53 699 60 q 733 41 720 45 q 767 33 747 37 l 760 0 l 572 0 q 534 144 551 60 l 504 288 q 486 350 496 325 q 461 390 475 376 q 427 408 446 404 q 380 412 408 412 l 302 412 l 255 197 q 247 155 249 171 q 242 122 244 140 q 241 92 241 105 q 248 59 241 71 q 268 41 254 47 q 315 33 281 36 l 307 0 l 28 0 l 36 33 q 75 46 62 37 q 96 72 87 56 q 113 112 105 88 q 135 202 120 135 l 250 724 q 265 831 265 792 q 250 878 265 865 q 199 892 234 890 l 206 926 l 508 926 q 625 917 580 926 q 703 892 671 909 q 757 848 735 875 q 789 788 779 821 q 800 716 800 754 q 780 609 800 656 q 726 527 760 562 q 645 467 691 492 q 549 427 600 443 l 549 420 m 395 471 q 518 485 469 471 q 600 530 567 500 q 653 608 632 559 q 674 714 674 657 q 669 766 674 743 q 654 804 663 789 q 632 830 646 819 q 598 850 618 842 q 551 862 578 859 q 478 866 524 866 q 402 863 442 866 l 315 471 l 395 471 m 515 996 l 406 1173 l 450 1206 l 572 1083 l 579 1083 l 758 1207 l 793 1165 l 607 996 l 515 996 z "},"Ŗ":{"ha":820,"x_min":28,"x_max":800,"o":"m 549 420 q 601 361 581 395 q 633 267 621 328 l 649 189 q 660 143 654 164 q 673 103 665 122 q 690 72 681 83 q 710 53 699 60 q 733 41 720 45 q 767 33 747 37 l 760 0 l 572 0 q 534 144 551 60 l 504 288 q 486 350 496 325 q 461 390 475 376 q 427 408 446 404 q 380 412 408 412 l 302 412 l 255 197 q 247 155 249 171 q 242 122 244 140 q 241 92 241 105 q 248 59 241 71 q 268 41 254 47 q 315 33 281 36 l 307 0 l 28 0 l 36 33 q 75 46 62 37 q 96 72 87 56 q 113 112 105 88 q 135 202 120 135 l 250 724 q 265 831 265 792 q 250 878 265 865 q 199 892 234 890 l 206 926 l 508 926 q 625 917 580 926 q 703 892 671 909 q 757 848 735 875 q 789 788 779 821 q 800 716 800 754 q 780 609 800 656 q 726 527 760 562 q 645 467 691 492 q 549 427 600 443 l 549 420 m 395 471 q 518 485 469 471 q 600 530 567 500 q 653 608 632 559 q 674 714 674 657 q 669 766 674 743 q 654 804 663 789 q 632 830 646 819 q 598 850 618 842 q 551 862 578 859 q 478 866 524 866 q 402 863 442 866 l 315 471 l 395 471 m 423 -67 q 424 -78 424 -73 l 424 -88 q 361 -230 424 -177 q 180 -292 298 -283 l 180 -240 q 264 -214 233 -236 q 310 -157 296 -192 q 326 -67 324 -123 l 423 -67 z "},"Ś":{"ha":669,"x_min":2,"x_max":718,"o":"m 108 211 q 146 89 108 129 q 264 48 184 48 q 372 71 327 48 q 439 137 416 94 q 463 237 463 179 q 448 310 463 279 q 404 371 433 342 q 319 437 374 399 q 235 504 269 471 q 182 577 202 536 q 163 668 163 618 q 201 809 163 748 q 311 903 240 870 q 473 937 381 937 q 589 928 536 937 q 707 899 642 920 l 669 725 l 604 725 q 586 815 601 783 q 543 863 571 848 q 469 877 515 877 q 370 854 413 877 q 305 791 328 831 q 283 703 283 751 q 295 640 283 667 q 334 585 307 612 q 412 523 361 558 q 514 440 479 477 q 565 363 549 404 q 582 269 582 323 q 542 123 582 187 q 430 24 503 59 q 266 -11 358 -11 q 132 -1 203 -11 q 2 24 61 8 l 43 211 l 108 211 m 718 1208 l 710 1175 l 422 993 l 388 1041 l 570 1208 l 718 1208 z "},"Ŝ":{"ha":669,"x_min":2,"x_max":707,"o":"m 108 211 q 146 89 108 129 q 264 48 184 48 q 372 71 327 48 q 439 137 416 94 q 463 237 463 179 q 448 310 463 279 q 404 371 433 342 q 319 437 374 399 q 235 504 269 471 q 182 577 202 536 q 163 668 163 618 q 201 809 163 748 q 311 903 240 870 q 473 937 381 937 q 589 928 536 937 q 707 899 642 920 l 669 725 l 604 725 q 586 815 601 783 q 543 863 571 848 q 469 877 515 877 q 370 854 413 877 q 305 791 328 831 q 283 703 283 751 q 295 640 283 667 q 334 585 307 612 q 412 523 361 558 q 514 440 479 477 q 565 363 549 404 q 582 269 582 323 q 542 123 582 187 q 430 24 503 59 q 266 -11 358 -11 q 132 -1 203 -11 q 2 24 61 8 l 43 211 l 108 211 m 575 1207 l 684 1030 l 640 996 l 517 1120 l 511 1120 l 332 996 l 297 1038 l 483 1207 l 575 1207 z "},"Š":{"ha":669,"x_min":2,"x_max":714,"o":"m 108 211 q 146 89 108 129 q 264 48 184 48 q 372 71 327 48 q 439 137 416 94 q 463 237 463 179 q 448 310 463 279 q 404 371 433 342 q 319 437 374 399 q 235 504 269 471 q 182 577 202 536 q 163 668 163 618 q 201 809 163 748 q 311 903 240 870 q 473 937 381 937 q 589 928 536 937 q 707 899 642 920 l 669 725 l 604 725 q 586 815 601 783 q 543 863 571 848 q 469 877 515 877 q 370 854 413 877 q 305 791 328 831 q 283 703 283 751 q 295 640 283 667 q 334 585 307 612 q 412 523 361 558 q 514 440 479 477 q 565 363 549 404 q 582 269 582 323 q 542 123 582 187 q 430 24 503 59 q 266 -11 358 -11 q 132 -1 203 -11 q 2 24 61 8 l 43 211 l 108 211 m 436 996 l 327 1173 l 372 1206 l 494 1083 l 500 1083 l 679 1207 l 714 1165 l 528 996 l 436 996 z "},"Ş":{"ha":669,"x_min":2,"x_max":707,"o":"m 108 211 q 146 88 108 128 q 264 47 184 47 q 372 71 327 47 q 439 136 416 94 q 463 237 463 179 q 448 310 463 279 q 404 371 433 342 q 319 437 374 399 q 235 504 269 471 q 182 577 202 536 q 163 668 163 618 q 201 809 163 748 q 311 903 240 870 q 473 937 381 937 q 589 928 536 937 q 707 899 642 920 l 669 725 l 604 725 q 586 815 601 783 q 543 863 571 848 q 469 877 515 877 q 370 854 413 877 q 305 791 328 831 q 283 703 283 751 q 295 640 283 667 q 334 585 307 612 q 412 523 361 558 q 514 440 479 477 q 565 363 549 404 q 582 269 582 323 q 528 102 582 173 q 376 3 475 32 l 281 -61 q 283 -92 283 -70 q 220 -230 283 -178 q 41 -292 157 -282 l 41 -240 q 141 -201 106 -235 q 178 -102 177 -167 l 183 -79 l 294 -10 q 266 -12 281 -12 q 131 -1 203 -12 q 2 24 59 9 l 43 211 l 108 211 z "},"Ș":{"ha":669,"x_min":2,"x_max":707,"o":"m 108 211 q 146 89 108 129 q 264 48 184 48 q 372 71 327 48 q 439 137 416 94 q 463 237 463 179 q 448 310 463 279 q 404 371 433 342 q 319 437 374 399 q 235 504 269 471 q 182 577 202 536 q 163 668 163 618 q 201 809 163 748 q 311 903 240 870 q 473 937 381 937 q 589 928 536 937 q 707 899 642 920 l 669 725 l 604 725 q 586 815 601 783 q 543 863 571 848 q 469 877 515 877 q 370 854 413 877 q 305 791 328 831 q 283 703 283 751 q 295 640 283 667 q 334 585 307 612 q 412 523 361 558 q 514 440 479 477 q 565 363 549 404 q 582 269 582 323 q 542 123 582 187 q 430 24 503 59 q 266 -11 358 -11 q 132 -1 203 -11 q 2 24 61 8 l 43 211 l 108 211 m 319 -67 q 320 -78 320 -73 l 320 -88 q 257 -230 320 -177 q 77 -292 194 -283 l 77 -240 q 161 -214 129 -236 q 207 -157 193 -192 q 222 -67 220 -123 l 319 -67 z "},"Ť":{"ha":797,"x_min":126,"x_max":885,"o":"m 483 0 l 197 0 l 205 33 q 244 44 231 37 q 267 65 257 51 q 287 110 277 79 q 311 202 297 140 l 456 866 l 370 866 q 302 854 328 866 q 252 808 277 842 q 191 697 227 775 l 126 697 l 177 926 l 885 926 l 832 687 l 767 687 q 764 786 767 753 q 751 836 760 819 q 727 860 741 853 q 678 866 713 866 l 578 866 l 431 197 q 422 155 425 171 q 418 122 420 140 q 416 92 416 105 q 423 59 416 71 q 444 41 430 47 q 490 33 457 36 l 483 0 m 500 996 l 391 1173 l 435 1206 l 557 1083 l 564 1083 l 743 1207 l 778 1165 l 592 996 l 500 996 z "},"Ț":{"ha":797,"x_min":126,"x_max":885,"o":"m 483 0 l 197 0 l 205 33 q 244 44 231 37 q 267 65 257 51 q 287 110 277 79 q 311 202 297 140 l 456 866 l 370 866 q 302 854 328 866 q 252 808 277 842 q 191 697 227 775 l 126 697 l 177 926 l 885 926 l 832 687 l 767 687 q 764 786 767 753 q 751 836 760 819 q 727 860 741 853 q 678 866 713 866 l 578 866 l 431 197 q 422 155 425 171 q 418 122 420 140 q 416 92 416 105 q 423 59 416 71 q 444 41 430 47 q 490 33 457 36 l 483 0 m 385 -67 q 385 -78 385 -73 l 385 -88 q 322 -230 385 -177 q 142 -292 259 -283 l 142 -240 q 226 -214 194 -236 q 272 -157 258 -192 q 287 -67 286 -123 l 385 -67 z "},"Ŧ":{"ha":797,"x_min":126,"x_max":885,"o":"m 481 425 l 431 197 q 422 155 425 171 q 418 122 420 140 q 416 92 416 105 q 423 59 416 71 q 444 41 430 47 q 490 33 457 36 l 483 0 l 197 0 l 205 33 q 244 44 231 37 q 267 65 257 51 q 287 110 277 79 q 311 202 297 140 l 359 425 l 184 425 l 198 488 l 373 488 l 456 866 l 370 866 q 302 854 328 866 q 252 808 277 842 q 191 697 227 775 l 126 697 l 177 926 l 885 926 l 832 687 l 767 687 q 764 786 767 753 q 751 836 760 819 q 727 860 741 853 q 678 866 713 866 l 578 866 l 494 488 l 668 488 l 654 425 l 481 425 z "},"Ù":{"ha":878,"x_min":127,"x_max":936,"o":"m 176 892 l 184 926 l 456 926 l 449 892 q 412 880 423 887 q 392 860 401 873 q 373 818 382 846 q 350 724 364 789 l 265 344 q 251 270 256 305 q 246 198 246 235 q 282 86 246 124 q 392 48 319 48 q 507 77 461 48 q 581 159 553 105 q 628 298 609 212 l 722 724 q 733 784 729 755 q 737 833 737 813 q 721 878 737 865 q 671 892 705 890 l 678 926 l 936 926 l 928 892 q 891 880 903 887 q 870 859 880 873 q 852 817 861 846 q 829 724 844 787 l 741 317 q 667 124 715 196 q 546 20 618 52 q 370 -12 474 -12 q 190 45 252 -12 q 127 210 127 102 q 135 297 127 248 q 157 408 143 347 l 228 724 q 240 788 236 760 q 243 833 243 817 q 228 877 243 864 q 176 892 212 890 m 515 1208 l 645 1034 l 606 994 l 385 1175 l 392 1208 l 515 1208 z "},"Ú":{"ha":878,"x_min":127,"x_max":936,"o":"m 176 892 l 184 926 l 456 926 l 449 892 q 412 880 423 887 q 392 860 401 873 q 373 818 382 846 q 350 724 364 789 l 265 344 q 251 270 256 305 q 246 198 246 235 q 282 86 246 124 q 392 48 319 48 q 507 77 461 48 q 581 159 553 105 q 628 298 609 212 l 722 724 q 733 784 729 755 q 737 833 737 813 q 721 878 737 865 q 671 892 705 890 l 678 926 l 936 926 l 928 892 q 891 880 903 887 q 870 859 880 873 q 852 817 861 846 q 829 724 844 787 l 741 317 q 667 124 715 196 q 546 20 618 52 q 370 -12 474 -12 q 190 45 252 -12 q 127 210 127 102 q 135 297 127 248 q 157 408 143 347 l 228 724 q 240 788 236 760 q 243 833 243 817 q 228 877 243 864 q 176 892 212 890 m 829 1208 l 821 1175 l 533 993 l 499 1041 l 681 1208 l 829 1208 z "},"Û":{"ha":878,"x_min":127,"x_max":936,"o":"m 176 892 l 184 926 l 456 926 l 449 892 q 412 880 423 887 q 392 860 401 873 q 373 818 382 846 q 350 724 364 789 l 265 344 q 251 270 256 305 q 246 198 246 235 q 282 86 246 124 q 392 48 319 48 q 507 77 461 48 q 581 159 553 105 q 628 298 609 212 l 722 724 q 733 784 729 755 q 737 833 737 813 q 721 878 737 865 q 671 892 705 890 l 678 926 l 936 926 l 928 892 q 891 880 903 887 q 870 859 880 873 q 852 817 861 846 q 829 724 844 787 l 741 317 q 667 124 715 196 q 546 20 618 52 q 370 -12 474 -12 q 190 45 252 -12 q 127 210 127 102 q 135 297 127 248 q 157 408 143 347 l 228 724 q 240 788 236 760 q 243 833 243 817 q 228 877 243 864 q 176 892 212 890 m 683 1207 l 792 1030 l 747 996 l 625 1120 l 618 1120 l 440 996 l 405 1038 l 591 1207 l 683 1207 z "},"Ũ":{"ha":878,"x_min":127,"x_max":936,"o":"m 176 892 l 184 926 l 456 926 l 449 892 q 412 880 423 887 q 392 860 401 873 q 373 818 382 846 q 350 724 364 789 l 265 344 q 251 270 256 305 q 246 198 246 235 q 282 86 246 124 q 392 48 319 48 q 507 77 461 48 q 581 159 553 105 q 628 298 609 212 l 722 724 q 733 784 729 755 q 737 833 737 813 q 721 878 737 865 q 671 892 705 890 l 678 926 l 936 926 l 928 892 q 891 880 903 887 q 870 859 880 873 q 852 817 861 846 q 829 724 844 787 l 741 317 q 667 124 715 196 q 546 20 618 52 q 370 -12 474 -12 q 190 45 252 -12 q 127 210 127 102 q 135 297 127 248 q 157 408 143 347 l 228 724 q 240 788 236 760 q 243 833 243 817 q 228 877 243 864 q 176 892 212 890 m 787 1166 l 834 1134 q 774 1055 800 1083 q 726 1017 748 1027 q 678 1006 705 1006 q 650 1010 663 1006 q 626 1021 637 1014 q 592 1046 614 1027 q 563 1069 572 1063 q 546 1078 554 1075 q 529 1081 538 1081 q 498 1075 512 1081 q 469 1051 485 1068 q 432 1006 452 1034 l 385 1038 q 448 1120 426 1097 q 491 1155 469 1144 q 544 1166 513 1166 q 564 1164 555 1166 q 582 1158 573 1162 q 597 1149 591 1154 q 624 1128 604 1144 q 665 1098 652 1105 q 692 1091 678 1091 q 721 1098 707 1091 q 751 1121 734 1105 q 787 1166 767 1137 z "},"Ü":{"ha":878,"x_min":127,"x_max":936,"o":"m 176 892 l 184 926 l 456 926 l 449 892 q 412 880 423 887 q 392 860 401 873 q 373 818 382 846 q 350 724 364 789 l 265 344 q 251 270 256 305 q 246 198 246 235 q 282 86 246 124 q 392 48 319 48 q 507 77 461 48 q 581 159 553 105 q 628 298 609 212 l 722 724 q 733 784 729 755 q 737 833 737 813 q 721 878 737 865 q 671 892 705 890 l 678 926 l 936 926 l 928 892 q 891 880 903 887 q 870 859 880 873 q 852 817 861 846 q 829 724 844 787 l 741 317 q 667 124 715 196 q 546 20 618 52 q 370 -12 474 -12 q 190 45 252 -12 q 127 210 127 102 q 135 297 127 248 q 157 408 143 347 l 228 724 q 240 788 236 760 q 243 833 243 817 q 228 877 243 864 q 176 892 212 890 m 798 1147 l 772 1027 l 661 1027 l 686 1147 l 798 1147 m 561 1147 l 535 1027 l 423 1027 l 449 1147 l 561 1147 z "},"Ū":{"ha":878,"x_min":127,"x_max":936,"o":"m 176 892 l 184 926 l 456 926 l 449 892 q 412 880 423 887 q 392 860 401 873 q 373 818 382 846 q 350 724 364 789 l 265 344 q 251 270 256 305 q 246 198 246 235 q 282 86 246 124 q 392 48 319 48 q 507 77 461 48 q 581 159 553 105 q 628 298 609 212 l 722 724 q 733 784 729 755 q 737 833 737 813 q 721 878 737 865 q 671 892 705 890 l 678 926 l 936 926 l 928 892 q 891 880 903 887 q 870 859 880 873 q 852 817 861 846 q 829 724 844 787 l 741 317 q 667 124 715 196 q 546 20 618 52 q 370 -12 474 -12 q 190 45 252 -12 q 127 210 127 102 q 135 297 127 248 q 157 408 143 347 l 228 724 q 240 788 236 760 q 243 833 243 817 q 228 877 243 864 q 176 892 212 890 m 781 1043 l 422 1043 l 439 1128 l 799 1128 l 781 1043 z "},"Ŭ":{"ha":878,"x_min":127,"x_max":936,"o":"m 176 892 l 184 926 l 456 926 l 449 892 q 412 880 423 887 q 392 860 401 873 q 373 818 382 846 q 350 724 364 789 l 265 344 q 251 270 256 305 q 246 198 246 235 q 282 86 246 124 q 392 48 319 48 q 507 77 461 48 q 581 159 553 105 q 628 298 609 212 l 722 724 q 733 784 729 755 q 737 833 737 813 q 721 878 737 865 q 671 892 705 890 l 678 926 l 936 926 l 928 892 q 891 880 903 887 q 870 859 880 873 q 852 817 861 846 q 829 724 844 787 l 741 317 q 667 124 715 196 q 546 20 618 52 q 370 -12 474 -12 q 190 45 252 -12 q 127 210 127 102 q 135 297 127 248 q 157 408 143 347 l 228 724 q 240 788 236 760 q 243 833 243 817 q 228 877 243 864 q 176 892 212 890 m 837 1185 q 757 1084 795 1122 q 677 1029 718 1046 q 578 1012 635 1012 q 496 1037 529 1012 q 447 1107 463 1063 q 431 1209 431 1152 l 486 1219 q 518 1127 492 1157 q 594 1098 545 1098 q 663 1108 633 1098 q 723 1143 692 1118 q 789 1214 754 1168 l 837 1185 z "},"Ů":{"ha":878,"x_min":127,"x_max":936,"o":"m 176 892 l 184 926 l 456 926 l 449 892 q 412 880 423 887 q 392 860 401 873 q 373 818 382 846 q 350 724 364 789 l 265 344 q 251 270 256 305 q 246 198 246 235 q 282 86 246 124 q 392 48 319 48 q 507 77 461 48 q 581 159 553 105 q 628 298 609 212 l 722 724 q 733 784 729 755 q 737 833 737 813 q 721 878 737 865 q 671 892 705 890 l 678 926 l 936 926 l 928 892 q 891 880 903 887 q 870 859 880 873 q 852 817 861 846 q 829 724 844 787 l 741 317 q 667 124 715 196 q 546 20 618 52 q 370 -12 474 -12 q 190 45 252 -12 q 127 210 127 102 q 135 297 127 248 q 157 408 143 347 l 228 724 q 240 788 236 760 q 243 833 243 817 q 228 877 243 864 q 176 892 212 890 m 584 966 q 494 992 526 966 q 463 1066 463 1018 q 474 1130 463 1097 q 510 1187 485 1162 q 569 1225 535 1212 q 642 1238 604 1238 q 734 1212 703 1238 q 765 1137 765 1185 q 744 1051 765 1092 q 682 988 723 1010 q 584 966 640 966 m 531 1070 q 546 1025 531 1042 q 591 1008 560 1008 q 648 1027 624 1008 q 685 1076 673 1046 q 696 1134 696 1106 q 681 1180 696 1164 q 637 1196 665 1196 q 583 1179 608 1196 q 545 1133 559 1162 q 531 1070 531 1103 z "},"Ű":{"ha":878,"x_min":127,"x_max":936,"o":"m 176 892 l 184 926 l 456 926 l 449 892 q 412 880 423 887 q 392 860 401 873 q 373 818 382 846 q 350 724 364 789 l 265 344 q 251 270 256 305 q 246 198 246 235 q 282 86 246 124 q 392 48 319 48 q 507 77 461 48 q 581 159 553 105 q 628 298 609 212 l 722 724 q 733 784 729 755 q 737 833 737 813 q 721 878 737 865 q 671 892 705 890 l 678 926 l 936 926 l 928 892 q 891 880 903 887 q 870 859 880 873 q 852 817 861 846 q 829 724 844 787 l 741 317 q 667 124 715 196 q 546 20 618 52 q 370 -12 474 -12 q 190 45 252 -12 q 127 210 127 102 q 135 297 127 248 q 157 408 143 347 l 228 724 q 240 788 236 760 q 243 833 243 817 q 228 877 243 864 q 176 892 212 890 m 697 1208 l 690 1175 l 435 996 l 399 1035 l 591 1208 l 697 1208 m 921 1208 l 913 1175 l 659 996 l 624 1035 l 815 1208 l 921 1208 z "},"Ų":{"ha":878,"x_min":127,"x_max":936,"o":"m 176 892 l 184 926 l 456 926 l 449 892 q 412 880 423 887 q 392 860 401 873 q 373 818 382 846 q 350 724 364 789 l 265 344 q 251 270 256 305 q 246 198 246 235 q 282 86 246 124 q 392 48 319 48 q 507 77 461 48 q 581 159 553 105 q 628 298 609 212 l 722 724 q 733 784 729 755 q 737 833 737 813 q 721 878 737 865 q 671 892 705 890 l 678 926 l 936 926 l 928 892 q 891 880 903 887 q 870 859 880 873 q 852 817 861 846 q 829 724 844 787 l 741 317 q 687 159 721 225 q 600 52 653 94 q 491 -38 530 -1 q 429 -109 451 -75 q 407 -172 407 -142 q 420 -218 407 -205 q 463 -231 434 -231 q 504 -223 485 -231 q 538 -208 524 -216 l 549 -254 q 493 -281 525 -271 q 435 -292 461 -292 q 347 -266 376 -292 q 317 -185 317 -239 q 469 -3 317 -100 q 370 -12 427 -12 q 190 45 252 -12 q 127 210 127 102 q 135 297 127 248 q 157 408 143 347 l 228 724 q 240 788 236 760 q 243 833 243 817 q 228 877 243 864 q 176 892 212 890 z "},"Ẁ":{"ha":1245,"x_min":130,"x_max":1368,"o":"m 713 -9 l 713 488 q 719 739 713 608 l 712 739 l 349 -9 l 243 -9 l 211 745 q 199 831 208 802 q 174 875 190 861 q 130 892 159 888 l 138 926 l 420 926 l 413 892 q 365 874 382 890 q 341 831 348 859 q 334 753 334 804 l 334 730 q 335 705 334 718 l 341 440 q 342 351 342 411 l 342 296 l 341 154 l 348 154 l 723 926 l 825 926 l 825 473 q 823 317 825 393 l 819 154 l 826 154 l 1101 685 q 1134 755 1116 715 q 1151 825 1151 795 q 1135 869 1151 852 q 1083 892 1119 886 l 1090 926 l 1368 926 l 1360 892 q 1301 858 1329 888 q 1225 741 1272 828 l 817 -9 l 713 -9 m 759 1208 l 889 1034 l 850 994 l 629 1175 l 636 1208 l 759 1208 z "},"Ẃ":{"ha":1245,"x_min":130,"x_max":1368,"o":"m 713 -9 l 713 488 q 719 739 713 608 l 712 739 l 349 -9 l 243 -9 l 211 745 q 199 831 208 802 q 174 875 190 861 q 130 892 159 888 l 138 926 l 420 926 l 413 892 q 365 874 382 890 q 341 831 348 859 q 334 753 334 804 l 334 730 q 335 705 334 718 l 341 440 q 342 351 342 411 l 342 296 l 341 154 l 348 154 l 723 926 l 825 926 l 825 473 q 823 317 825 393 l 819 154 l 826 154 l 1101 685 q 1134 755 1116 715 q 1151 825 1151 795 q 1135 869 1151 852 q 1083 892 1119 886 l 1090 926 l 1368 926 l 1360 892 q 1301 858 1329 888 q 1225 741 1272 828 l 817 -9 l 713 -9 m 1012 1208 l 1004 1175 l 716 993 l 682 1041 l 864 1208 l 1012 1208 z "},"Ŵ":{"ha":1245,"x_min":130,"x_max":1368,"o":"m 713 -9 l 713 488 q 719 739 713 608 l 712 739 l 349 -9 l 243 -9 l 211 745 q 199 831 208 802 q 174 875 190 861 q 130 892 159 888 l 138 926 l 420 926 l 413 892 q 365 874 382 890 q 341 831 348 859 q 334 753 334 804 l 334 730 q 335 705 334 718 l 341 440 q 342 351 342 411 l 342 296 l 341 154 l 348 154 l 723 926 l 825 926 l 825 473 q 823 317 825 393 l 819 154 l 826 154 l 1101 685 q 1134 755 1116 715 q 1151 825 1151 795 q 1135 869 1151 852 q 1083 892 1119 886 l 1090 926 l 1368 926 l 1360 892 q 1301 858 1329 888 q 1225 741 1272 828 l 817 -9 l 713 -9 m 870 1207 l 979 1030 l 935 996 l 812 1120 l 806 1120 l 627 996 l 592 1038 l 778 1207 l 870 1207 z "},"Ẅ":{"ha":1245,"x_min":130,"x_max":1368,"o":"m 713 -9 l 713 488 q 719 739 713 608 l 712 739 l 349 -9 l 243 -9 l 211 745 q 199 831 208 802 q 174 875 190 861 q 130 892 159 888 l 138 926 l 420 926 l 413 892 q 365 874 382 890 q 341 831 348 859 q 334 753 334 804 l 334 730 q 335 705 334 718 l 341 440 q 342 351 342 411 l 342 296 l 341 154 l 348 154 l 723 926 l 825 926 l 825 473 q 823 317 825 393 l 819 154 l 826 154 l 1101 685 q 1134 755 1116 715 q 1151 825 1151 795 q 1135 869 1151 852 q 1083 892 1119 886 l 1090 926 l 1368 926 l 1360 892 q 1301 858 1329 888 q 1225 741 1272 828 l 817 -9 l 713 -9 m 985 1147 l 959 1027 l 847 1027 l 873 1147 l 985 1147 m 747 1147 l 722 1027 l 610 1027 l 635 1147 l 747 1147 z "},"Ỳ":{"ha":761,"x_min":128,"x_max":884,"o":"m 398 926 l 391 892 q 347 876 362 890 q 332 833 332 862 q 351 724 332 791 l 423 469 l 590 692 q 644 769 627 741 q 667 819 661 798 q 673 850 673 836 q 660 880 673 869 q 623 892 647 890 l 630 926 l 884 926 l 877 892 q 849 883 861 889 q 822 862 837 876 q 780 816 806 848 q 713 732 754 785 l 450 389 l 408 197 q 399 155 401 170 q 395 122 397 140 q 393 92 393 105 q 400 59 393 71 q 420 41 407 47 q 467 33 434 36 l 460 0 l 174 0 l 182 33 q 222 44 209 37 q 244 65 235 51 q 264 110 254 79 q 288 202 274 140 l 328 389 l 229 732 q 194 838 207 810 q 166 878 181 866 q 128 892 152 889 l 136 926 l 398 926 m 464 1208 l 594 1034 l 555 994 l 334 1175 l 341 1208 l 464 1208 z "},"Ý":{"ha":761,"x_min":128,"x_max":884,"o":"m 398 926 l 391 892 q 347 876 362 890 q 332 833 332 862 q 351 724 332 791 l 423 469 l 590 692 q 644 769 627 741 q 667 819 661 798 q 673 850 673 836 q 660 880 673 869 q 623 892 647 890 l 630 926 l 884 926 l 877 892 q 849 883 861 889 q 822 862 837 876 q 780 816 806 848 q 713 732 754 785 l 450 389 l 408 197 q 399 155 401 170 q 395 122 397 140 q 393 92 393 105 q 400 59 393 71 q 420 41 407 47 q 467 33 434 36 l 460 0 l 174 0 l 182 33 q 222 44 209 37 q 244 65 235 51 q 264 110 254 79 q 288 202 274 140 l 328 389 l 229 732 q 194 838 207 810 q 166 878 181 866 q 128 892 152 889 l 136 926 l 398 926 m 774 1208 l 766 1175 l 478 993 l 444 1041 l 626 1208 l 774 1208 z "},"Ŷ":{"ha":761,"x_min":128,"x_max":884,"o":"m 398 926 l 391 892 q 347 876 362 890 q 332 833 332 862 q 351 724 332 791 l 423 469 l 590 692 q 644 769 627 741 q 667 819 661 798 q 673 850 673 836 q 660 880 673 869 q 623 892 647 890 l 630 926 l 884 926 l 877 892 q 849 883 861 889 q 822 862 837 876 q 780 816 806 848 q 713 732 754 785 l 450 389 l 408 197 q 399 155 401 170 q 395 122 397 140 q 393 92 393 105 q 400 59 393 71 q 420 41 407 47 q 467 33 434 36 l 460 0 l 174 0 l 182 33 q 222 44 209 37 q 244 65 235 51 q 264 110 254 79 q 288 202 274 140 l 328 389 l 229 732 q 194 838 207 810 q 166 878 181 866 q 128 892 152 889 l 136 926 l 398 926 m 628 1207 l 737 1030 l 692 996 l 570 1120 l 564 1120 l 385 996 l 350 1038 l 536 1207 l 628 1207 z "},"Ÿ":{"ha":761,"x_min":128,"x_max":884,"o":"m 398 926 l 391 892 q 347 876 362 890 q 332 833 332 862 q 351 724 332 791 l 423 469 l 590 692 q 644 769 627 741 q 667 819 661 798 q 673 850 673 836 q 660 880 673 869 q 623 892 647 890 l 630 926 l 884 926 l 877 892 q 849 883 861 889 q 822 862 837 876 q 780 816 806 848 q 713 732 754 785 l 450 389 l 408 197 q 399 155 401 170 q 395 122 397 140 q 393 92 393 105 q 400 59 393 71 q 420 41 407 47 q 467 33 434 36 l 460 0 l 174 0 l 182 33 q 222 44 209 37 q 244 65 235 51 q 264 110 254 79 q 288 202 274 140 l 328 389 l 229 732 q 194 838 207 810 q 166 878 181 866 q 128 892 152 889 l 136 926 l 398 926 m 743 1147 l 717 1027 l 605 1027 l 631 1147 l 743 1147 m 505 1147 l 479 1027 l 368 1027 l 393 1147 l 505 1147 z "},"Ź":{"ha":711,"x_min":-10,"x_max":785,"o":"m 161 62 l 378 62 q 427 66 408 62 q 460 79 446 71 q 488 99 475 87 q 514 128 501 111 q 544 174 528 145 q 578 245 559 202 l 644 245 l 591 0 l -10 0 l -3 33 l 612 863 l 404 863 q 359 860 376 863 q 329 851 342 857 q 306 836 316 844 q 282 811 296 827 q 251 768 268 794 q 213 696 235 741 l 148 696 l 198 926 l 785 926 l 778 893 l 161 62 m 739 1208 l 731 1175 l 443 993 l 409 1041 l 591 1208 l 739 1208 z "},"Ž":{"ha":711,"x_min":-10,"x_max":785,"o":"m 161 62 l 378 62 q 427 66 408 62 q 460 79 446 71 q 488 99 475 87 q 514 128 501 111 q 544 174 528 145 q 578 245 559 202 l 644 245 l 591 0 l -10 0 l -3 33 l 612 863 l 404 863 q 359 860 376 863 q 329 851 342 857 q 306 836 316 844 q 282 811 296 827 q 251 768 268 794 q 213 696 235 741 l 148 696 l 198 926 l 785 926 l 778 893 l 161 62 m 457 996 l 348 1173 l 393 1206 l 515 1083 l 522 1083 l 700 1207 l 735 1165 l 549 996 l 457 996 z "},"Ż":{"ha":711,"x_min":-10,"x_max":785,"o":"m 161 62 l 378 62 q 427 66 408 62 q 460 79 446 71 q 488 99 475 87 q 514 128 501 111 q 544 174 528 145 q 578 245 559 202 l 644 245 l 591 0 l -10 0 l -3 33 l 612 863 l 404 863 q 359 860 376 863 q 329 851 342 857 q 306 836 316 844 q 282 811 296 827 q 251 768 268 794 q 213 696 235 741 l 148 696 l 198 926 l 785 926 l 778 893 l 161 62 m 600 1152 l 568 1021 l 448 1021 l 479 1152 l 600 1152 z "},"Ŋ":{"ha":932,"x_min":27,"x_max":968,"o":"m 610 0 l 412 582 q 349 790 376 686 l 340 790 q 318 658 336 755 q 279 468 300 561 l 220 197 q 210 142 214 169 q 205 92 205 116 q 221 48 205 61 q 272 33 236 36 l 264 0 l 27 0 l 35 33 q 73 46 60 37 q 95 72 86 56 q 111 112 104 88 q 134 202 119 135 l 249 724 q 260 780 256 753 q 264 833 264 806 q 248 878 264 865 q 197 892 231 890 l 205 926 l 421 926 l 600 397 q 660 205 639 283 l 667 205 q 692 342 673 246 q 728 511 711 439 l 775 724 q 785 777 780 747 q 790 833 790 808 q 774 878 790 865 q 724 892 758 890 l 731 926 l 968 926 l 961 892 q 924 880 935 887 q 904 860 913 873 q 885 818 895 846 q 862 724 876 789 l 711 37 q 654 -133 688 -69 q 570 -233 621 -197 q 439 -268 519 -268 q 349 -254 385 -268 l 375 -127 l 444 -127 q 485 -176 446 -176 q 534 -162 511 -176 q 577 -108 556 -147 q 614 0 598 -68 l 610 0 z "},"Ð":{"ha":902,"x_min":33,"x_max":863,"o":"m 83 516 l 208 516 l 254 724 q 265 784 261 755 q 269 833 269 813 q 253 878 269 865 q 203 892 237 890 l 210 926 l 467 926 q 633 910 570 926 q 752 854 697 895 q 836 746 808 813 q 863 586 863 678 q 842 411 863 494 q 782 257 821 328 q 688 135 743 187 q 581 56 633 83 q 466 14 530 28 q 317 0 402 0 l 33 0 l 40 33 q 79 46 66 37 q 100 72 92 56 q 117 112 109 88 q 139 202 124 135 l 195 454 l 69 454 l 83 516 m 328 516 l 534 516 l 521 454 l 315 454 l 229 62 q 304 60 249 60 q 429 75 373 60 q 532 123 485 90 q 618 211 579 156 q 681 322 656 266 q 718 444 705 379 q 732 582 732 509 q 666 795 732 724 q 469 867 600 867 q 405 865 439 867 l 328 516 z "},"Þ":{"ha":778,"x_min":28,"x_max":751,"o":"m 260 221 l 255 197 q 244 137 248 162 q 241 92 241 113 q 256 48 241 61 q 307 33 271 36 l 300 0 l 28 0 l 36 33 q 75 46 62 37 q 96 72 87 56 q 113 112 105 88 q 135 202 120 135 l 250 724 q 261 784 257 755 q 265 833 265 813 q 249 878 265 865 q 199 892 233 890 l 206 926 l 477 926 l 470 892 q 434 881 446 888 q 414 862 423 875 q 397 826 406 850 q 377 750 389 802 l 466 750 q 598 738 547 750 q 684 699 650 725 q 734 633 718 673 q 751 540 751 593 q 703 363 751 438 q 572 254 654 289 q 374 218 490 218 q 260 221 306 218 m 363 688 l 273 277 l 341 277 q 474 294 423 277 q 556 347 524 311 q 606 431 589 382 q 624 538 624 480 q 604 629 624 596 q 546 676 583 663 q 451 690 509 690 q 363 688 409 690 z "},"a":{"ha":730,"x_min":57,"x_max":671,"o":"m 566 615 l 628 660 l 671 649 l 568 189 q 555 126 558 148 q 551 90 551 104 q 567 49 551 62 q 627 33 583 37 l 621 0 l 427 0 l 469 170 l 460 173 q 337 34 395 78 q 214 -10 279 -10 q 98 46 139 -10 q 57 204 57 102 q 72 335 57 269 q 117 459 87 400 q 189 562 147 517 q 287 633 231 607 q 407 660 342 660 q 487 650 449 660 q 566 615 525 640 m 506 413 q 514 461 512 441 q 516 505 516 481 q 494 582 516 558 q 419 606 471 606 q 365 597 391 606 q 313 567 339 588 q 262 511 286 545 q 218 427 238 476 q 188 320 199 377 q 177 210 177 264 q 196 105 177 140 q 261 70 216 70 q 305 79 282 70 q 355 114 328 89 q 418 189 383 140 q 469 279 450 235 q 500 384 488 323 l 506 413 z "},"b":{"ha":724,"x_min":52,"x_max":667,"o":"m 158 33 l 96 -11 l 52 0 l 228 775 q 238 824 232 792 q 243 876 243 856 q 226 916 243 904 q 164 928 209 927 l 172 964 l 344 970 l 383 970 l 264 495 l 273 492 q 396 620 338 581 q 511 659 454 659 q 626 603 585 659 q 667 444 667 547 q 647 297 667 371 q 592 163 627 223 q 512 65 556 104 q 420 8 469 27 q 318 -11 372 -11 q 158 33 228 -11 m 218 236 q 209 184 211 205 q 208 144 208 163 q 231 66 208 90 q 309 43 254 43 q 373 56 344 43 q 428 96 402 70 q 476 159 454 122 q 513 244 497 197 q 538 343 530 292 q 547 439 547 395 q 527 545 547 509 q 463 580 507 580 q 398 559 430 580 q 328 491 367 538 q 265 393 290 443 q 224 264 241 342 l 218 236 z "},"c":{"ha":602,"x_min":59,"x_max":603,"o":"m 498 486 q 490 560 497 537 q 467 595 483 583 q 422 606 451 606 q 299 552 353 606 q 210 397 244 497 q 175 205 175 297 q 180 151 175 176 q 198 108 185 126 q 231 79 210 90 q 283 68 252 68 q 390 92 345 68 q 486 165 435 115 l 527 124 q 398 21 463 54 q 259 -12 334 -12 q 110 47 161 -12 q 59 216 59 105 q 86 376 59 289 q 165 528 113 463 q 288 627 218 594 q 437 659 357 659 q 531 653 491 659 q 603 639 572 647 l 570 486 l 498 486 z "},"d":{"ha":728,"x_min":57,"x_max":743,"o":"m 590 779 q 600 828 595 801 q 604 876 604 855 q 596 906 604 896 q 575 922 589 917 q 525 928 561 926 l 533 964 l 703 970 l 743 970 l 568 189 q 555 125 558 146 q 551 90 551 104 q 567 49 551 62 q 627 33 583 37 l 621 0 l 427 0 l 469 170 l 460 173 q 337 34 395 78 q 214 -10 279 -10 q 98 46 139 -10 q 57 204 57 102 q 72 335 57 269 q 117 459 87 400 q 189 562 147 517 q 287 633 231 607 q 407 660 342 660 q 483 651 448 660 q 555 622 518 643 l 590 779 m 506 413 q 516 505 516 462 q 494 582 516 558 q 419 606 471 606 q 365 597 391 606 q 313 567 339 588 q 262 511 286 545 q 218 427 238 476 q 188 320 199 377 q 177 210 177 264 q 196 105 177 140 q 261 70 216 70 q 305 79 282 70 q 355 114 328 89 q 418 189 383 140 q 469 279 450 235 q 500 384 488 323 l 506 413 z "},"e":{"ha":635,"x_min":56,"x_max":609,"o":"m 552 135 q 456 48 502 80 q 363 3 410 16 q 262 -11 317 -11 q 170 6 208 -11 q 105 54 131 24 q 68 126 80 84 q 56 216 56 168 q 82 372 56 289 q 161 521 108 455 q 288 624 214 587 q 445 660 361 660 q 568 627 527 660 q 609 523 609 593 q 501 350 609 408 q 180 292 393 292 q 172 204 172 252 q 199 101 172 133 q 290 68 227 68 q 404 96 353 68 q 510 179 454 123 l 552 135 m 191 350 q 301 357 254 351 q 382 375 348 363 q 438 401 416 386 q 474 436 460 417 q 492 475 487 454 q 497 518 497 496 q 478 583 497 559 q 420 606 458 606 q 327 572 373 606 q 247 480 281 538 q 191 350 212 422 z "},"f":{"ha":406,"x_min":-182,"x_max":635,"o":"m 172 -12 q 109 -184 149 -120 q 11 -275 68 -248 q -129 -303 -47 -303 q -182 -296 -159 -303 l -167 -237 q -119 -242 -151 -242 q -61 -233 -83 -242 q -19 -202 -38 -223 q 18 -139 1 -180 q 51 -31 35 -98 l 189 580 l 106 580 l 115 614 q 161 624 148 618 q 183 639 175 629 q 199 667 192 649 q 218 729 205 685 q 329 912 254 851 q 520 974 404 974 q 635 963 587 974 l 608 848 l 549 848 q 524 903 539 886 q 479 920 509 920 q 413 899 440 920 q 367 836 386 878 q 331 722 347 793 l 314 648 l 469 648 l 454 580 l 298 580 l 172 -12 z "},"g":{"ha":726,"x_min":-77,"x_max":674,"o":"m 69 -58 q 47 -89 56 -74 q 35 -119 39 -104 q 31 -153 31 -133 q 68 -227 31 -203 q 178 -250 104 -250 q 290 -227 245 -250 q 366 -154 335 -203 q 421 -32 397 -104 q 469 161 444 40 l 459 163 q 337 31 393 73 q 216 -10 281 -10 q 101 45 142 -10 q 60 204 60 101 q 79 353 60 279 q 134 485 99 426 q 214 583 170 544 q 308 641 258 622 q 411 660 357 660 q 492 650 454 660 q 568 615 530 640 l 631 660 l 674 649 l 604 331 q 588 254 596 297 l 570 165 q 519 -55 538 5 q 465 -172 496 -125 q 396 -243 436 -214 q 303 -288 356 -272 q 180 -303 251 -303 q -77 -154 -77 -303 q -54 -85 -77 -116 q 20 -19 -31 -54 l 69 -58 m 264 70 q 333 94 298 70 q 406 169 367 117 q 467 267 445 220 q 504 384 488 314 q 519 505 519 454 q 496 582 519 558 q 422 606 474 606 q 368 597 393 606 q 315 567 342 588 q 265 511 289 545 q 221 427 241 476 q 191 320 201 377 q 180 210 180 264 q 200 105 180 140 q 264 70 220 70 z "},"h":{"ha":736,"x_min":52,"x_max":646,"o":"m 633 0 l 420 0 l 505 345 q 522 420 515 382 q 529 490 529 458 q 513 559 529 538 q 458 580 496 580 q 396 557 430 580 q 326 487 363 534 q 266 396 288 439 q 231 294 244 353 l 170 0 l 52 0 l 227 775 q 237 824 234 809 q 241 852 240 840 q 243 876 243 865 q 225 916 243 904 q 163 928 208 927 l 172 964 l 343 970 l 382 970 l 266 500 l 274 497 q 395 621 338 582 q 513 659 453 659 q 612 623 578 659 q 646 515 646 587 q 633 411 646 472 l 576 170 q 566 123 569 140 q 564 92 564 105 q 571 60 564 71 q 592 42 578 48 q 639 33 607 37 l 633 0 z "},"i":{"ha":376,"x_min":59,"x_max":380,"o":"m 380 914 l 349 783 l 229 783 l 260 914 l 380 914 m 212 170 q 203 119 205 135 q 201 92 201 103 q 208 60 201 72 q 229 43 214 49 q 275 33 243 37 l 269 0 l 59 0 l 161 457 q 174 520 170 496 q 177 559 177 543 q 171 589 177 578 q 152 606 165 600 q 105 612 138 611 l 113 648 l 278 654 l 318 654 l 212 170 z "},"j":{"ha":370,"x_min":-178,"x_max":382,"o":"m 382 914 l 351 783 l 231 783 l 262 914 l 382 914 m 178 -12 q 119 -177 156 -115 q 22 -272 81 -240 q -121 -303 -38 -303 q -178 -296 -155 -303 l -163 -237 q -139 -241 -152 -240 q -111 -242 -125 -242 q -56 -232 -79 -242 q -14 -200 -33 -222 q 23 -136 6 -177 q 54 -31 39 -96 l 163 457 q 176 519 172 495 q 179 559 179 543 q 173 589 179 578 q 154 606 168 600 q 107 612 140 611 l 115 648 l 280 654 l 319 654 l 178 -12 z "},"k":{"ha":690,"x_min":52,"x_max":719,"o":"m 250 378 l 271 378 q 317 386 292 378 q 369 411 341 394 q 444 466 397 429 q 496 514 479 494 q 519 549 513 534 q 525 578 525 564 q 479 615 525 611 l 486 648 l 706 648 l 719 615 q 600 515 663 564 l 428 382 l 530 125 q 557 72 543 90 q 590 44 572 53 q 638 33 609 35 l 631 0 l 450 0 l 351 279 q 334 315 341 305 q 319 328 328 324 q 290 332 310 332 l 240 332 l 170 0 l 52 0 l 227 775 q 237 824 234 809 q 241 852 240 840 q 243 876 243 865 q 225 916 243 904 q 163 928 208 927 l 172 964 l 343 970 l 382 970 l 250 378 z "},"l":{"ha":370,"x_min":52,"x_max":382,"o":"m 342 970 l 382 970 l 206 170 q 197 120 199 137 q 195 92 195 104 q 201 60 195 72 q 222 43 208 49 q 269 33 237 37 l 264 0 l 52 0 l 227 779 q 237 823 234 808 q 241 852 239 838 q 242 876 242 865 q 235 906 242 896 q 213 922 227 917 q 163 928 199 926 l 172 964 l 342 970 z "},"m":{"ha":1109,"x_min":59,"x_max":1019,"o":"m 650 515 l 650 506 q 650 496 650 501 q 767 619 709 579 q 888 659 825 659 q 986 623 952 659 q 1019 515 1019 587 q 1006 411 1019 472 l 949 170 q 937 92 937 121 q 944 60 937 72 q 965 43 951 49 q 1012 33 979 37 l 1006 0 l 793 0 l 878 345 q 895 420 888 382 q 902 490 902 458 q 885 559 902 538 q 831 580 868 580 q 772 558 805 580 q 703 492 739 536 q 645 403 667 447 q 608 296 622 359 l 547 0 l 429 0 l 507 345 q 527 438 522 408 q 532 490 532 468 q 514 559 532 538 q 460 580 497 580 q 400 558 433 580 q 331 490 368 536 q 272 399 294 444 q 238 294 250 355 l 176 0 l 59 0 l 162 463 q 171 509 165 479 q 177 560 177 540 q 171 590 177 579 q 152 605 165 600 q 104 612 138 610 l 113 648 l 267 654 l 305 654 l 260 479 l 269 476 q 393 614 331 569 q 517 659 454 659 q 616 622 583 659 q 650 515 650 585 z "},"n":{"ha":743,"x_min":59,"x_max":653,"o":"m 640 0 l 426 0 l 512 345 q 528 418 520 378 q 536 490 536 458 q 519 559 536 538 q 467 580 503 580 q 406 558 439 580 q 337 492 373 536 q 276 403 301 448 q 238 294 252 358 l 176 0 l 59 0 l 162 463 q 171 509 165 479 q 177 560 177 540 q 171 590 177 579 q 152 605 165 600 q 104 612 138 610 l 113 648 l 267 654 l 305 654 l 260 478 l 268 475 q 396 614 334 569 q 519 659 458 659 q 619 623 585 659 q 653 515 653 587 q 649 462 653 491 q 639 411 644 433 l 582 170 q 570 92 570 121 q 577 60 570 72 q 598 43 584 49 q 645 33 612 37 l 640 0 z "},"o":{"ha":704,"x_min":56,"x_max":647,"o":"m 277 -12 q 114 47 172 -12 q 56 217 56 106 q 66 313 56 258 q 103 439 79 384 q 181 557 134 507 q 291 633 229 607 q 425 659 353 659 q 552 629 503 659 q 625 548 602 600 q 647 430 647 497 q 630 301 647 370 q 559 131 606 201 q 441 25 512 61 q 277 -12 371 -12 m 175 188 q 206 78 175 113 q 299 42 237 42 q 417 102 366 42 q 498 269 469 161 q 528 458 528 376 q 500 568 528 531 q 411 605 471 605 q 288 546 340 605 q 205 377 235 487 q 175 188 175 267 z "},"p":{"ha":732,"x_min":-5,"x_max":675,"o":"m 145 -120 q 137 -170 138 -153 q 135 -199 135 -188 q 142 -231 135 -220 q 163 -249 149 -243 q 210 -258 177 -255 l 204 -292 l -5 -292 l 166 463 q 179 560 179 519 q 173 590 179 579 q 154 605 168 600 q 106 612 140 610 l 115 648 l 269 654 l 307 654 l 262 478 l 270 475 q 519 659 395 659 q 634 603 593 659 q 675 444 675 547 q 655 297 675 371 q 600 163 635 223 q 520 65 564 104 q 428 8 477 27 q 326 -11 380 -11 q 176 28 236 -11 l 145 -120 m 227 236 q 218 181 220 200 q 216 144 216 162 q 239 67 216 91 q 317 43 262 43 q 381 56 352 43 q 436 96 410 70 q 484 158 463 121 q 521 243 505 195 q 546 343 538 292 q 555 439 555 394 q 535 545 555 510 q 471 580 515 580 q 403 556 437 580 q 330 481 370 533 q 267 380 290 430 q 232 264 245 330 l 227 236 z "},"q":{"ha":724,"x_min":58,"x_max":672,"o":"m 452 157 q 333 31 391 71 q 214 -10 275 -10 q 99 46 140 -10 q 58 204 58 102 q 73 335 58 269 q 118 459 87 400 q 190 562 148 517 q 287 633 232 607 q 408 660 342 660 q 488 650 450 660 q 566 615 526 640 l 629 660 l 672 649 l 498 -122 q 487 -199 487 -174 q 494 -232 487 -220 q 515 -249 500 -243 q 562 -258 530 -255 l 556 -292 l 345 -292 l 461 153 l 452 157 m 507 413 q 515 464 513 443 q 517 505 517 486 q 494 582 517 558 q 420 606 472 606 q 366 597 391 606 q 313 567 340 588 q 263 511 287 545 q 219 427 239 476 q 189 320 199 377 q 178 210 178 264 q 197 105 178 140 q 262 70 216 70 q 306 79 283 70 q 356 114 328 89 q 419 189 384 140 q 470 279 451 235 q 500 384 488 323 l 507 413 z "},"r":{"ha":566,"x_min":59,"x_max":606,"o":"m 270 654 l 311 654 l 263 488 l 271 485 q 397 616 336 574 q 524 659 458 659 q 606 652 573 659 l 574 500 l 504 500 q 487 553 498 535 q 451 572 475 572 q 390 545 425 572 q 319 470 355 517 q 266 382 283 422 q 238 294 248 342 l 176 0 l 59 0 l 162 463 q 176 560 176 527 q 170 590 176 579 q 151 605 164 600 q 104 612 137 610 l 112 648 l 270 654 z "},"s":{"ha":530,"x_min":-1,"x_max":533,"o":"m 448 490 q 413 579 440 551 q 328 606 385 606 q 270 594 296 606 q 229 560 244 583 q 214 507 214 537 q 224 461 214 481 q 259 418 235 440 q 326 366 283 395 q 418 281 392 322 q 445 185 445 239 q 414 77 445 121 q 331 11 384 33 q 212 -11 278 -11 q 100 -2 152 -11 q -1 20 48 7 l 31 167 l 84 167 q 120 74 89 104 q 210 43 151 43 q 304 73 270 43 q 338 153 338 103 q 328 205 338 182 q 296 249 317 228 q 234 297 274 270 q 165 352 191 326 q 124 409 138 378 q 109 477 109 439 q 137 574 109 533 q 216 637 165 616 q 336 659 267 659 q 533 630 448 659 l 502 490 l 448 490 z "},"t":{"ha":479,"x_min":85,"x_max":530,"o":"m 458 125 q 348 23 402 58 q 233 -11 294 -11 q 125 26 161 -11 q 90 132 90 62 q 102 228 90 175 l 186 580 l 85 580 l 93 614 q 156 632 133 619 q 196 665 180 644 q 225 719 212 686 q 259 816 239 752 l 353 816 l 315 648 l 530 648 l 515 580 l 300 580 l 235 317 q 208 153 208 207 q 225 90 208 111 q 278 68 243 68 q 343 93 309 68 q 418 165 378 117 l 458 125 z "},"u":{"ha":743,"x_min":90,"x_max":684,"o":"m 104 648 l 317 648 l 231 303 q 215 228 222 265 q 208 159 208 190 q 224 90 208 111 q 276 68 241 68 q 339 91 305 68 q 411 162 373 114 q 471 252 449 210 q 505 354 493 295 l 567 648 l 684 648 l 581 185 q 572 137 577 167 q 566 88 566 107 q 582 48 566 60 q 642 33 598 36 l 634 0 l 440 0 l 484 170 l 475 173 q 348 34 409 79 q 224 -11 286 -11 q 124 25 158 -11 q 90 133 90 62 q 94 181 90 153 q 104 238 98 208 l 161 479 q 171 526 168 509 q 173 556 173 544 q 157 599 173 587 q 98 614 140 611 l 104 648 z "},"v":{"ha":639,"x_min":49,"x_max":652,"o":"m 633 648 l 652 614 q 613 525 627 554 q 577 452 600 496 q 527 360 555 408 q 463 257 498 312 q 381 136 427 202 q 273 -11 335 71 l 189 -11 l 125 501 q 112 572 119 551 q 92 603 105 593 q 49 615 78 613 l 56 648 l 231 648 l 282 109 q 455 380 399 270 q 511 558 511 490 q 498 602 511 590 q 452 615 484 613 l 458 648 l 633 648 z "},"w":{"ha":1010,"x_min":52,"x_max":1021,"o":"m 664 113 q 825 375 770 263 q 880 558 880 488 q 867 602 880 590 q 821 615 853 613 l 827 648 l 1002 648 l 1021 614 q 983 522 997 554 q 945 443 968 489 q 897 352 922 397 q 836 252 871 307 q 758 133 801 197 q 655 -11 714 69 l 574 -11 l 547 273 q 539 359 543 306 q 534 442 536 413 l 527 443 q 427 242 490 353 q 271 -11 364 132 l 180 -11 l 129 500 q 119 564 125 539 q 98 600 113 588 q 52 615 84 612 l 59 648 l 237 648 l 277 113 q 415 351 373 269 q 478 491 458 432 q 509 615 498 551 l 517 648 l 614 648 l 664 113 z "},"x":{"ha":624,"x_min":-28,"x_max":642,"o":"m 642 615 q 366 338 510 475 l 429 189 q 469 101 454 130 q 496 61 484 73 q 521 42 509 48 q 559 33 533 37 l 552 0 l 383 0 l 289 273 q 246 233 273 258 q 194 179 219 208 q 159 132 169 150 q 145 102 149 115 q 142 75 142 89 q 152 47 142 58 q 186 33 162 37 l 178 0 l -15 0 l -28 33 q 264 327 121 193 l 200 478 q 168 548 180 524 q 145 586 156 572 q 119 606 134 599 q 77 615 104 613 l 85 648 l 254 648 l 344 393 q 407 456 377 423 q 449 507 437 488 q 466 541 461 526 q 471 572 471 556 q 427 615 471 610 l 435 648 l 628 648 l 642 615 z "},"y":{"ha":639,"x_min":-171,"x_max":652,"o":"m 125 500 q 113 572 119 552 q 93 603 106 592 q 49 615 79 613 l 56 648 l 231 648 l 282 109 q 511 558 511 422 q 498 602 511 590 q 452 615 484 613 l 458 648 l 633 648 l 652 614 q 560 419 616 520 q 423 198 504 318 q 243 -52 342 78 q 115 -202 167 -151 q 42 -261 75 -241 q -23 -289 8 -281 q -90 -298 -55 -298 q -132 -294 -109 -298 q -171 -284 -155 -290 l -142 -157 l -89 -157 q -78 -194 -88 -180 q -48 -208 -68 -208 q -11 -203 -26 -208 q 22 -189 5 -199 q 64 -156 39 -178 q 120 -97 89 -134 q 190 -7 151 -60 l 125 500 z "},"z":{"ha":625,"x_min":-5,"x_max":633,"o":"m 541 191 l 499 0 l 8 0 l -5 33 l 366 460 q 481 589 445 551 l 477 593 l 319 593 q 267 589 283 593 q 235 572 251 584 q 200 537 218 560 q 158 470 181 513 l 98 470 l 138 648 l 620 648 l 633 614 l 146 60 l 150 55 l 303 55 q 366 59 344 55 q 404 76 387 64 q 437 113 420 88 q 480 191 454 138 l 541 191 z "},"à":{"ha":730,"x_min":57,"x_max":671,"o":"m 566 615 l 628 660 l 671 649 l 568 189 q 555 126 558 148 q 551 90 551 104 q 567 49 551 62 q 627 33 583 37 l 621 0 l 427 0 l 469 170 l 460 173 q 337 34 395 78 q 214 -10 279 -10 q 98 46 139 -10 q 57 204 57 102 q 72 335 57 269 q 117 459 87 400 q 189 562 147 517 q 287 633 231 607 q 407 660 342 660 q 487 650 449 660 q 566 615 525 640 m 506 413 q 514 461 512 441 q 516 505 516 481 q 494 582 516 558 q 419 606 471 606 q 365 597 391 606 q 313 567 339 588 q 262 511 286 545 q 218 427 238 476 q 188 320 199 377 q 177 210 177 264 q 196 105 177 140 q 261 70 216 70 q 305 79 282 70 q 355 114 328 89 q 418 189 383 140 q 469 279 450 235 q 500 384 488 323 l 506 413 m 452 978 l 543 755 l 494 726 l 335 944 l 342 978 l 452 978 z "},"á":{"ha":730,"x_min":57,"x_max":679,"o":"m 566 615 l 628 660 l 671 649 l 568 189 q 555 126 558 148 q 551 90 551 104 q 567 49 551 62 q 627 33 583 37 l 621 0 l 427 0 l 469 170 l 460 173 q 337 34 395 78 q 214 -10 279 -10 q 98 46 139 -10 q 57 204 57 102 q 72 335 57 269 q 117 459 87 400 q 189 562 147 517 q 287 633 231 607 q 407 660 342 660 q 487 650 449 660 q 566 615 525 640 m 506 413 q 514 461 512 441 q 516 505 516 481 q 494 582 516 558 q 419 606 471 606 q 365 597 391 606 q 313 567 339 588 q 262 511 286 545 q 218 427 238 476 q 188 320 199 377 q 177 210 177 264 q 196 105 177 140 q 261 70 216 70 q 305 79 282 70 q 355 114 328 89 q 418 189 383 140 q 469 279 450 235 q 500 384 488 323 l 506 413 m 679 978 l 671 944 l 418 726 l 376 766 l 554 978 l 679 978 z "},"â":{"ha":730,"x_min":57,"x_max":671,"o":"m 566 615 l 628 660 l 671 649 l 568 189 q 555 126 558 148 q 551 90 551 104 q 567 49 551 62 q 627 33 583 37 l 621 0 l 427 0 l 469 170 l 460 173 q 337 34 395 78 q 214 -10 279 -10 q 98 46 139 -10 q 57 204 57 102 q 72 335 57 269 q 117 459 87 400 q 189 562 147 517 q 287 633 231 607 q 407 660 342 660 q 487 650 449 660 q 566 615 525 640 m 506 413 q 514 461 512 441 q 516 505 516 481 q 494 582 516 558 q 419 606 471 606 q 365 597 391 606 q 313 567 339 588 q 262 511 286 545 q 218 427 238 476 q 188 320 199 377 q 177 210 177 264 q 196 105 177 140 q 261 70 216 70 q 305 79 282 70 q 355 114 328 89 q 418 189 383 140 q 469 279 450 235 q 500 384 488 323 l 506 413 m 555 971 l 645 743 l 591 719 l 498 884 l 491 884 l 317 719 l 275 758 l 463 971 l 555 971 z "},"ã":{"ha":730,"x_min":57,"x_max":705,"o":"m 566 615 l 628 660 l 671 649 l 568 189 q 555 126 558 148 q 551 90 551 104 q 567 49 551 62 q 627 33 583 37 l 621 0 l 427 0 l 469 170 l 460 173 q 337 34 395 78 q 214 -10 279 -10 q 98 46 139 -10 q 57 204 57 102 q 72 335 57 269 q 117 459 87 400 q 189 562 147 517 q 287 633 231 607 q 407 660 342 660 q 487 650 449 660 q 566 615 525 640 m 506 413 q 514 461 512 441 q 516 505 516 481 q 494 582 516 558 q 419 606 471 606 q 365 597 391 606 q 313 567 339 588 q 262 511 286 545 q 218 427 238 476 q 188 320 199 377 q 177 210 177 264 q 196 105 177 140 q 261 70 216 70 q 305 79 282 70 q 355 114 328 89 q 418 189 383 140 q 469 279 450 235 q 500 384 488 323 l 506 413 m 658 926 l 705 893 q 645 814 671 842 q 597 776 618 787 q 549 765 575 765 q 520 769 533 765 q 496 780 507 773 q 463 806 485 787 q 433 828 442 822 q 416 837 425 834 q 399 840 408 840 q 369 834 382 840 q 339 810 355 827 q 302 765 323 793 l 255 797 q 318 880 296 856 q 362 915 340 903 q 414 926 384 926 q 434 923 425 926 q 452 917 444 921 q 468 908 461 913 q 494 888 475 903 q 535 858 522 865 q 562 850 549 850 q 591 857 578 850 q 621 880 605 864 q 658 926 637 897 z "},"ä":{"ha":730,"x_min":57,"x_max":671,"o":"m 566 615 l 628 660 l 671 649 l 568 189 q 555 126 558 148 q 551 90 551 104 q 567 49 551 62 q 627 33 583 37 l 621 0 l 427 0 l 469 170 l 460 173 q 337 34 395 78 q 214 -10 279 -10 q 98 46 139 -10 q 57 204 57 102 q 72 335 57 269 q 117 459 87 400 q 189 562 147 517 q 287 633 231 607 q 407 660 342 660 q 487 650 449 660 q 566 615 525 640 m 506 413 q 514 461 512 441 q 516 505 516 481 q 494 582 516 558 q 419 606 471 606 q 365 597 391 606 q 313 567 339 588 q 262 511 286 545 q 218 427 238 476 q 188 320 199 377 q 177 210 177 264 q 196 105 177 140 q 261 70 216 70 q 305 79 282 70 q 355 114 328 89 q 418 189 383 140 q 469 279 450 235 q 500 384 488 323 l 506 413 m 659 908 l 633 789 l 521 789 l 547 908 l 659 908 m 440 908 l 414 789 l 302 789 l 328 908 l 440 908 z "},"ā":{"ha":730,"x_min":57,"x_max":671,"o":"m 566 615 l 628 660 l 671 649 l 568 189 q 555 126 558 148 q 551 90 551 104 q 567 49 551 62 q 627 33 583 37 l 621 0 l 427 0 l 469 170 l 460 173 q 337 34 395 78 q 214 -10 279 -10 q 98 46 139 -10 q 57 204 57 102 q 72 335 57 269 q 117 459 87 400 q 189 562 147 517 q 287 633 231 607 q 407 660 342 660 q 487 650 449 660 q 566 615 525 640 m 506 413 q 514 461 512 441 q 516 505 516 481 q 494 582 516 558 q 419 606 471 606 q 365 597 391 606 q 313 567 339 588 q 262 511 286 545 q 218 427 238 476 q 188 320 199 377 q 177 210 177 264 q 196 105 177 140 q 261 70 216 70 q 305 79 282 70 q 355 114 328 89 q 418 189 383 140 q 469 279 450 235 q 500 384 488 323 l 506 413 m 642 806 l 302 806 l 319 890 l 659 890 l 642 806 z "},"ă":{"ha":730,"x_min":57,"x_max":699,"o":"m 566 615 l 628 660 l 671 649 l 568 189 q 555 126 558 148 q 551 90 551 104 q 567 49 551 62 q 627 33 583 37 l 621 0 l 427 0 l 469 170 l 460 173 q 337 34 395 78 q 214 -10 279 -10 q 98 46 139 -10 q 57 204 57 102 q 72 335 57 269 q 117 459 87 400 q 189 562 147 517 q 287 633 231 607 q 407 660 342 660 q 487 650 449 660 q 566 615 525 640 m 506 413 q 514 461 512 441 q 516 505 516 481 q 494 582 516 558 q 419 606 471 606 q 365 597 391 606 q 313 567 339 588 q 262 511 286 545 q 218 427 238 476 q 188 320 199 377 q 177 210 177 264 q 196 105 177 140 q 261 70 216 70 q 305 79 282 70 q 355 114 328 89 q 418 189 383 140 q 469 279 450 235 q 500 384 488 323 l 506 413 m 699 928 q 620 824 659 862 q 539 771 580 787 q 446 755 498 755 q 340 807 378 755 q 303 953 303 859 l 358 963 q 462 841 366 841 q 530 851 501 841 q 588 886 559 861 q 650 957 617 911 l 699 928 z "},"å":{"ha":730,"x_min":57,"x_max":671,"o":"m 566 615 l 628 660 l 671 649 l 568 189 q 555 126 558 148 q 551 90 551 104 q 567 49 551 62 q 627 33 583 37 l 621 0 l 427 0 l 469 170 l 460 173 q 337 34 395 78 q 214 -10 279 -10 q 98 46 139 -10 q 57 204 57 102 q 72 335 57 269 q 117 459 87 400 q 189 562 147 517 q 287 633 231 607 q 407 660 342 660 q 487 650 449 660 q 566 615 525 640 m 506 413 q 514 461 512 441 q 516 505 516 481 q 494 582 516 558 q 419 606 471 606 q 365 597 391 606 q 313 567 339 588 q 262 511 286 545 q 218 427 238 476 q 188 320 199 377 q 177 210 177 264 q 196 105 177 140 q 261 70 216 70 q 305 79 282 70 q 355 114 328 89 q 418 189 383 140 q 469 279 450 235 q 500 384 488 323 l 506 413 m 454 726 q 364 752 395 726 q 332 827 332 779 q 343 890 332 858 q 380 948 355 923 q 439 985 405 972 q 512 998 473 998 q 604 972 573 998 q 635 897 635 946 q 614 812 635 852 q 551 749 593 771 q 454 726 510 726 m 401 831 q 415 785 401 802 q 461 768 430 768 q 518 788 494 768 q 554 837 543 807 q 566 895 566 867 q 551 940 566 924 q 507 956 535 956 q 453 939 477 956 q 415 893 429 922 q 401 831 401 864 z "},"ǻ":{"ha":730,"x_min":57,"x_max":736,"o":"m 566 615 l 628 660 l 671 649 l 568 189 q 555 126 558 148 q 551 90 551 104 q 567 49 551 62 q 627 33 583 37 l 621 0 l 427 0 l 469 170 l 460 173 q 337 34 395 78 q 214 -10 279 -10 q 98 46 139 -10 q 57 204 57 102 q 72 335 57 269 q 117 459 87 400 q 189 562 147 517 q 287 633 231 607 q 407 660 342 660 q 487 650 449 660 q 566 615 525 640 m 506 413 q 514 461 512 441 q 516 505 516 481 q 494 582 516 558 q 419 606 471 606 q 365 597 391 606 q 313 567 339 588 q 262 511 286 545 q 218 427 238 476 q 188 320 199 377 q 177 210 177 264 q 196 105 177 140 q 261 70 216 70 q 305 79 282 70 q 355 114 328 89 q 418 189 383 140 q 469 279 450 235 q 500 384 488 323 l 506 413 m 736 1276 l 728 1242 l 475 1024 l 433 1065 l 611 1276 l 736 1276 m 454 726 q 364 752 395 726 q 332 827 332 779 q 343 890 332 858 q 380 948 355 923 q 439 985 405 972 q 512 998 473 998 q 604 972 573 998 q 635 897 635 946 q 614 812 635 852 q 551 749 593 771 q 454 726 510 726 m 401 831 q 415 785 401 802 q 461 768 430 768 q 518 788 494 768 q 554 837 543 807 q 566 895 566 867 q 551 940 566 924 q 507 956 535 956 q 453 939 477 956 q 415 893 429 922 q 401 831 401 864 z "},"ą":{"ha":730,"x_min":57,"x_max":671,"o":"m 566 615 l 628 660 l 671 649 l 568 189 q 555 126 558 148 q 551 90 551 104 q 567 49 551 62 q 627 33 583 37 l 621 0 l 562 0 q 457 -98 487 -58 q 427 -173 427 -138 q 440 -218 427 -205 q 482 -231 454 -231 q 524 -223 505 -231 q 558 -208 543 -216 l 569 -254 q 513 -281 545 -271 q 454 -292 481 -292 q 366 -266 395 -292 q 337 -185 337 -239 q 378 -93 337 -140 q 497 0 419 -45 l 427 0 l 469 170 l 460 173 q 337 34 395 78 q 214 -10 279 -10 q 98 46 139 -10 q 57 204 57 102 q 72 335 57 269 q 117 459 87 400 q 189 562 147 517 q 287 633 231 607 q 407 660 342 660 q 487 650 449 660 q 566 615 525 640 m 506 413 q 514 461 512 441 q 516 505 516 481 q 494 582 516 558 q 419 606 471 606 q 365 597 391 606 q 313 567 339 588 q 262 511 286 545 q 218 427 238 476 q 188 320 199 377 q 177 210 177 264 q 196 105 177 140 q 261 70 216 70 q 305 79 282 70 q 355 114 328 89 q 418 189 383 140 q 469 279 450 235 q 500 384 488 323 l 506 413 z "},"æ":{"ha":985,"x_min":18,"x_max":959,"o":"m 902 135 q 806 48 852 80 q 713 3 760 16 q 612 -11 667 -11 q 491 24 538 -11 q 425 127 444 60 l 418 127 q 296 23 359 57 q 166 -11 234 -11 q 57 25 96 -11 q 18 123 18 62 q 61 245 18 194 q 196 326 104 297 q 432 356 288 355 l 443 409 q 451 460 449 440 q 453 494 453 479 q 428 574 453 549 q 351 599 403 599 q 264 572 298 599 q 209 488 231 545 l 121 488 l 140 576 q 230 620 197 606 q 294 643 263 634 q 351 656 324 652 q 406 660 378 660 q 497 635 463 660 q 545 553 530 610 l 552 553 q 795 660 657 660 q 918 627 877 660 q 959 523 959 593 q 851 350 959 408 q 530 292 743 292 q 522 204 522 252 q 549 101 522 133 q 640 68 577 68 q 753 96 703 68 q 860 179 804 123 l 902 135 m 541 350 q 651 357 604 351 q 732 375 698 363 q 788 401 766 386 q 824 436 810 417 q 842 475 837 454 q 847 518 847 496 q 828 583 847 559 q 770 606 808 606 q 677 572 723 606 q 596 480 631 538 q 541 350 562 422 m 420 300 l 414 300 q 302 293 354 300 q 211 267 250 285 q 151 220 173 249 q 130 150 130 191 q 220 66 130 66 q 306 90 267 66 q 370 154 345 113 q 407 243 396 194 l 420 300 z "},"ǽ":{"ha":985,"x_min":18,"x_max":959,"o":"m 902 135 q 806 48 852 80 q 713 3 760 16 q 612 -11 667 -11 q 491 24 538 -11 q 425 127 444 60 l 418 127 q 296 23 359 57 q 166 -11 234 -11 q 57 25 96 -11 q 18 123 18 62 q 61 245 18 194 q 196 326 104 297 q 432 356 288 355 l 443 409 q 451 460 449 440 q 453 494 453 479 q 428 574 453 549 q 351 599 403 599 q 264 572 298 599 q 209 488 231 545 l 121 488 l 140 576 q 230 620 197 606 q 294 643 263 634 q 351 656 324 652 q 406 660 378 660 q 497 635 463 660 q 545 553 530 610 l 552 553 q 795 660 657 660 q 918 627 877 660 q 959 523 959 593 q 851 350 959 408 q 530 292 743 292 q 522 204 522 252 q 549 101 522 133 q 640 68 577 68 q 753 96 703 68 q 860 179 804 123 l 902 135 m 541 350 q 651 357 604 351 q 732 375 698 363 q 788 401 766 386 q 824 436 810 417 q 842 475 837 454 q 847 518 847 496 q 828 583 847 559 q 770 606 808 606 q 677 572 723 606 q 596 480 631 538 q 541 350 562 422 m 420 300 l 414 300 q 302 293 354 300 q 211 267 250 285 q 151 220 173 249 q 130 150 130 191 q 220 66 130 66 q 306 90 267 66 q 370 154 345 113 q 407 243 396 194 l 420 300 m 806 978 l 799 944 l 545 726 l 503 766 l 682 978 l 806 978 z "},"ć":{"ha":602,"x_min":59,"x_max":637,"o":"m 498 486 q 490 560 497 537 q 467 595 483 583 q 422 606 451 606 q 299 552 353 606 q 210 397 244 497 q 175 205 175 297 q 180 151 175 176 q 198 108 185 126 q 231 79 210 90 q 283 68 252 68 q 390 92 345 68 q 486 165 435 115 l 527 124 q 398 21 463 54 q 259 -12 334 -12 q 110 47 161 -12 q 59 216 59 105 q 86 376 59 289 q 165 528 113 463 q 288 627 218 594 q 437 659 357 659 q 531 653 491 659 q 603 639 572 647 l 570 486 l 498 486 m 637 978 l 629 944 l 376 726 l 334 766 l 512 978 l 637 978 z "},"ĉ":{"ha":602,"x_min":59,"x_max":603,"o":"m 498 486 q 490 560 497 537 q 467 595 483 583 q 422 606 451 606 q 299 552 353 606 q 210 397 244 497 q 175 205 175 297 q 180 151 175 176 q 198 108 185 126 q 231 79 210 90 q 283 68 252 68 q 390 92 345 68 q 486 165 435 115 l 527 124 q 398 21 463 54 q 259 -12 334 -12 q 110 47 161 -12 q 59 216 59 105 q 86 376 59 289 q 165 528 113 463 q 288 627 218 594 q 437 659 357 659 q 531 653 491 659 q 603 639 572 647 l 570 486 l 498 486 m 506 971 l 595 743 l 542 719 l 448 884 l 441 884 l 268 719 l 226 758 l 414 971 l 506 971 z "},"č":{"ha":602,"x_min":59,"x_max":646,"o":"m 498 486 q 490 560 497 537 q 467 595 483 583 q 422 606 451 606 q 299 552 353 606 q 210 397 244 497 q 175 205 175 297 q 180 151 175 176 q 198 108 185 126 q 231 79 210 90 q 283 68 252 68 q 390 92 345 68 q 486 165 435 115 l 527 124 q 398 21 463 54 q 259 -12 334 -12 q 110 47 161 -12 q 59 216 59 105 q 86 376 59 289 q 165 528 113 463 q 288 627 218 594 q 437 659 357 659 q 531 653 491 659 q 603 639 572 647 l 570 486 l 498 486 m 366 732 l 276 960 l 329 985 l 422 820 l 429 820 l 603 985 l 646 946 l 457 732 l 366 732 z "},"ċ":{"ha":602,"x_min":59,"x_max":603,"o":"m 498 486 q 490 560 497 537 q 467 595 483 583 q 422 606 451 606 q 299 552 353 606 q 210 397 244 497 q 175 205 175 297 q 180 151 175 176 q 198 108 185 126 q 231 79 210 90 q 283 68 252 68 q 390 92 345 68 q 486 165 435 115 l 527 124 q 398 21 463 54 q 259 -12 334 -12 q 110 47 161 -12 q 59 216 59 105 q 86 376 59 289 q 165 528 113 463 q 288 627 218 594 q 437 659 357 659 q 531 653 491 659 q 603 639 572 647 l 570 486 l 498 486 m 507 914 l 475 783 l 355 783 l 387 914 l 507 914 z "},"ç":{"ha":602,"x_min":33,"x_max":603,"o":"m 498 486 q 490 560 497 537 q 467 595 483 583 q 422 606 451 606 q 299 552 353 606 q 210 397 244 497 q 175 205 175 297 q 180 151 175 176 q 198 108 185 126 q 231 79 210 90 q 283 68 252 68 q 390 92 345 68 q 486 165 435 115 l 527 124 q 385 14 457 46 l 275 -59 q 278 -92 278 -68 q 214 -230 278 -177 q 33 -292 150 -282 l 33 -240 q 133 -201 98 -235 q 170 -102 169 -167 l 175 -79 l 286 -10 q 259 -12 278 -12 q 110 47 161 -12 q 59 216 59 105 q 86 376 59 289 q 165 528 113 463 q 288 627 218 594 q 437 659 357 659 q 531 653 491 659 q 603 639 572 647 l 570 486 l 498 486 z "},"ď":{"ha":885,"x_min":57,"x_max":986,"o":"m 590 779 q 600 828 595 801 q 604 876 604 855 q 596 906 604 896 q 575 922 589 917 q 525 928 561 926 l 533 964 l 703 970 l 743 970 l 568 189 q 555 125 558 146 q 551 90 551 104 q 567 49 551 62 q 627 33 583 37 l 621 0 l 427 0 l 469 170 l 460 173 q 337 34 395 78 q 214 -10 279 -10 q 98 46 139 -10 q 57 204 57 102 q 72 335 57 269 q 117 459 87 400 q 189 562 147 517 q 287 633 231 607 q 407 660 342 660 q 483 651 448 660 q 555 622 518 643 l 590 779 m 506 413 q 516 505 516 462 q 494 582 516 558 q 419 606 471 606 q 365 597 391 606 q 313 567 339 588 q 262 511 286 545 q 218 427 238 476 q 188 320 199 377 q 177 210 177 264 q 196 105 177 140 q 261 70 216 70 q 305 79 282 70 q 355 114 328 89 q 418 189 383 140 q 469 279 450 235 q 500 384 488 323 l 506 413 m 985 970 q 986 937 986 964 q 976 855 986 890 q 947 793 966 821 q 898 738 928 765 q 808 667 867 711 l 776 709 q 854 814 828 751 q 880 970 880 876 l 985 970 z "},"đ":{"ha":728,"x_min":57,"x_max":805,"o":"m 383 826 l 599 826 q 604 876 604 850 q 596 907 604 897 q 575 922 589 918 q 525 929 561 927 l 533 964 l 703 970 l 743 970 l 711 826 l 805 826 l 792 766 l 697 766 l 568 189 q 555 127 559 149 q 551 90 551 105 q 567 49 551 62 q 627 33 583 37 l 621 0 l 427 0 l 469 170 l 460 173 q 337 34 395 78 q 214 -10 279 -10 q 98 46 139 -10 q 57 204 57 102 q 72 335 57 269 q 117 459 87 400 q 189 562 147 517 q 287 633 231 607 q 407 660 342 660 q 483 651 448 660 q 555 622 518 643 l 587 766 l 370 766 l 383 826 m 506 413 q 516 505 516 462 q 494 582 516 558 q 419 606 471 606 q 365 597 391 606 q 313 567 339 588 q 262 511 286 545 q 218 427 238 476 q 188 320 199 377 q 177 210 177 264 q 196 105 177 140 q 261 70 216 70 q 305 79 282 70 q 355 114 328 89 q 418 189 383 140 q 469 279 450 235 q 500 384 488 323 l 506 413 z "},"è":{"ha":635,"x_min":56,"x_max":609,"o":"m 552 135 q 456 48 502 80 q 363 3 410 16 q 262 -11 317 -11 q 170 6 208 -11 q 105 54 131 24 q 68 126 80 84 q 56 216 56 168 q 82 372 56 289 q 161 521 108 455 q 288 624 214 587 q 445 660 361 660 q 568 627 527 660 q 609 523 609 593 q 501 350 609 408 q 180 292 393 292 q 172 204 172 252 q 199 101 172 133 q 290 68 227 68 q 404 96 353 68 q 510 179 454 123 l 552 135 m 191 350 q 301 357 254 351 q 382 375 348 363 q 438 401 416 386 q 474 436 460 417 q 492 475 487 454 q 497 518 497 496 q 478 583 497 559 q 420 606 458 606 q 327 572 373 606 q 247 480 281 538 q 191 350 212 422 m 429 978 l 519 755 l 471 726 l 311 944 l 319 978 l 429 978 z "},"é":{"ha":635,"x_min":56,"x_max":655,"o":"m 552 135 q 456 48 502 80 q 363 3 410 16 q 262 -11 317 -11 q 170 6 208 -11 q 105 54 131 24 q 68 126 80 84 q 56 216 56 168 q 82 372 56 289 q 161 521 108 455 q 288 624 214 587 q 445 660 361 660 q 568 627 527 660 q 609 523 609 593 q 501 350 609 408 q 180 292 393 292 q 172 204 172 252 q 199 101 172 133 q 290 68 227 68 q 404 96 353 68 q 510 179 454 123 l 552 135 m 191 350 q 301 357 254 351 q 382 375 348 363 q 438 401 416 386 q 474 436 460 417 q 492 475 487 454 q 497 518 497 496 q 478 583 497 559 q 420 606 458 606 q 327 572 373 606 q 247 480 281 538 q 191 350 212 422 m 655 978 l 648 944 l 394 726 l 352 766 l 530 978 l 655 978 z "},"ê":{"ha":635,"x_min":56,"x_max":621,"o":"m 552 135 q 456 48 502 80 q 363 3 410 16 q 262 -11 317 -11 q 170 6 208 -11 q 105 54 131 24 q 68 126 80 84 q 56 216 56 168 q 82 372 56 289 q 161 521 108 455 q 288 624 214 587 q 445 660 361 660 q 568 627 527 660 q 609 523 609 593 q 501 350 609 408 q 180 292 393 292 q 172 204 172 252 q 199 101 172 133 q 290 68 227 68 q 404 96 353 68 q 510 179 454 123 l 552 135 m 191 350 q 301 357 254 351 q 382 375 348 363 q 438 401 416 386 q 474 436 460 417 q 492 475 487 454 q 497 518 497 496 q 478 583 497 559 q 420 606 458 606 q 327 572 373 606 q 247 480 281 538 q 191 350 212 422 m 531 971 l 621 743 l 567 719 l 473 884 l 467 884 l 293 719 l 251 758 l 439 971 l 531 971 z "},"ě":{"ha":635,"x_min":56,"x_max":664,"o":"m 552 135 q 456 48 502 80 q 363 3 410 16 q 262 -11 317 -11 q 170 6 208 -11 q 105 54 131 24 q 68 126 80 84 q 56 216 56 168 q 82 372 56 289 q 161 521 108 455 q 288 624 214 587 q 445 660 361 660 q 568 627 527 660 q 609 523 609 593 q 501 350 609 408 q 180 292 393 292 q 172 204 172 252 q 199 101 172 133 q 290 68 227 68 q 404 96 353 68 q 510 179 454 123 l 552 135 m 191 350 q 301 357 254 351 q 382 375 348 363 q 438 401 416 386 q 474 436 460 417 q 492 475 487 454 q 497 518 497 496 q 478 583 497 559 q 420 606 458 606 q 327 572 373 606 q 247 480 281 538 q 191 350 212 422 m 384 732 l 294 960 l 347 985 l 441 820 l 448 820 l 621 985 l 664 946 l 475 732 l 384 732 z "},"ë":{"ha":635,"x_min":56,"x_max":635,"o":"m 552 135 q 456 48 502 80 q 363 3 410 16 q 262 -11 317 -11 q 170 6 208 -11 q 105 54 131 24 q 68 126 80 84 q 56 216 56 168 q 82 372 56 289 q 161 521 108 455 q 288 624 214 587 q 445 660 361 660 q 568 627 527 660 q 609 523 609 593 q 501 350 609 408 q 180 292 393 292 q 172 204 172 252 q 199 101 172 133 q 290 68 227 68 q 404 96 353 68 q 510 179 454 123 l 552 135 m 191 350 q 301 357 254 351 q 382 375 348 363 q 438 401 416 386 q 474 436 460 417 q 492 475 487 454 q 497 518 497 496 q 478 583 497 559 q 420 606 458 606 q 327 572 373 606 q 247 480 281 538 q 191 350 212 422 m 635 908 l 609 789 l 497 789 l 523 908 l 635 908 m 416 908 l 391 789 l 279 789 l 304 908 l 416 908 z "},"ē":{"ha":635,"x_min":56,"x_max":635,"o":"m 552 135 q 456 48 502 80 q 363 3 410 16 q 262 -11 317 -11 q 170 6 208 -11 q 105 54 131 24 q 68 126 80 84 q 56 216 56 168 q 82 372 56 289 q 161 521 108 455 q 288 624 214 587 q 445 660 361 660 q 568 627 527 660 q 609 523 609 593 q 501 350 609 408 q 180 292 393 292 q 172 204 172 252 q 199 101 172 133 q 290 68 227 68 q 404 96 353 68 q 510 179 454 123 l 552 135 m 191 350 q 301 357 254 351 q 382 375 348 363 q 438 401 416 386 q 474 436 460 417 q 492 475 487 454 q 497 518 497 496 q 478 583 497 559 q 420 606 458 606 q 327 572 373 606 q 247 480 281 538 q 191 350 212 422 m 617 806 l 277 806 l 295 890 l 635 890 l 617 806 z "},"ĕ":{"ha":635,"x_min":56,"x_max":674,"o":"m 552 135 q 456 48 502 80 q 363 3 410 16 q 262 -11 317 -11 q 170 6 208 -11 q 105 54 131 24 q 68 126 80 84 q 56 216 56 168 q 82 372 56 289 q 161 521 108 455 q 288 624 214 587 q 445 660 361 660 q 568 627 527 660 q 609 523 609 593 q 501 350 609 408 q 180 292 393 292 q 172 204 172 252 q 199 101 172 133 q 290 68 227 68 q 404 96 353 68 q 510 179 454 123 l 552 135 m 191 350 q 301 357 254 351 q 382 375 348 363 q 438 401 416 386 q 474 436 460 417 q 492 475 487 454 q 497 518 497 496 q 478 583 497 559 q 420 606 458 606 q 327 572 373 606 q 247 480 281 538 q 191 350 212 422 m 674 928 q 595 824 635 862 q 514 771 555 787 q 422 755 473 755 q 316 807 353 755 q 279 953 279 859 l 334 963 q 437 841 342 841 q 506 851 477 841 q 564 886 534 861 q 626 957 593 911 l 674 928 z "},"ė":{"ha":635,"x_min":56,"x_max":609,"o":"m 552 135 q 456 48 502 80 q 363 3 410 16 q 262 -11 317 -11 q 170 6 208 -11 q 105 54 131 24 q 68 126 80 84 q 56 216 56 168 q 82 372 56 289 q 161 521 108 455 q 288 624 214 587 q 445 660 361 660 q 568 627 527 660 q 609 523 609 593 q 501 350 609 408 q 180 292 393 292 q 172 204 172 252 q 199 101 172 133 q 290 68 227 68 q 404 96 353 68 q 510 179 454 123 l 552 135 m 191 350 q 301 357 254 351 q 382 375 348 363 q 438 401 416 386 q 474 436 460 417 q 492 475 487 454 q 497 518 497 496 q 478 583 497 559 q 420 606 458 606 q 327 572 373 606 q 247 480 281 538 q 191 350 212 422 m 531 914 l 500 783 l 380 783 l 411 914 l 531 914 z "},"ę":{"ha":635,"x_min":56,"x_max":609,"o":"m 552 135 q 467 55 509 89 q 401 -2 431 26 q 351 -56 372 -30 q 318 -104 330 -83 q 302 -140 307 -125 q 298 -170 298 -155 q 302 -202 298 -189 q 319 -223 307 -215 q 353 -231 331 -231 q 395 -223 376 -231 q 429 -208 414 -216 l 440 -254 q 384 -281 416 -271 q 326 -292 352 -292 q 237 -266 267 -292 q 208 -185 208 -239 q 242 -95 208 -142 q 340 -2 277 -47 q 262 -11 299 -11 q 170 6 208 -11 q 105 54 131 24 q 68 126 80 84 q 56 216 56 168 q 82 372 56 289 q 161 521 108 455 q 288 624 214 587 q 445 660 361 660 q 568 627 527 660 q 609 523 609 593 q 501 350 609 408 q 180 292 393 292 q 172 204 172 252 q 199 101 172 133 q 290 68 227 68 q 404 96 353 68 q 510 179 454 123 l 552 135 m 191 350 q 301 357 254 351 q 382 375 348 363 q 438 401 416 386 q 474 436 460 417 q 492 475 487 454 q 497 518 497 496 q 478 583 497 559 q 420 606 458 606 q 327 572 373 606 q 247 480 281 538 q 191 350 212 422 z "},"ĝ":{"ha":726,"x_min":-77,"x_max":674,"o":"m 69 -58 q 47 -89 56 -74 q 35 -119 39 -104 q 31 -153 31 -133 q 68 -227 31 -203 q 178 -250 104 -250 q 290 -227 245 -250 q 366 -154 335 -203 q 421 -32 397 -104 q 469 161 444 40 l 459 163 q 337 31 393 73 q 216 -10 281 -10 q 101 45 142 -10 q 60 204 60 101 q 79 353 60 279 q 134 485 99 426 q 214 583 170 544 q 308 641 258 622 q 411 660 357 660 q 492 650 454 660 q 568 615 530 640 l 631 660 l 674 649 l 604 331 q 588 254 596 297 l 570 165 q 519 -55 538 5 q 465 -172 496 -125 q 396 -243 436 -214 q 303 -288 356 -272 q 180 -303 251 -303 q -77 -154 -77 -303 q -54 -85 -77 -116 q 20 -19 -31 -54 l 69 -58 m 264 70 q 333 94 298 70 q 406 169 367 117 q 467 267 445 220 q 504 384 488 314 q 519 505 519 454 q 496 582 519 558 q 422 606 474 606 q 368 597 393 606 q 315 567 342 588 q 265 511 289 545 q 221 427 241 476 q 191 320 201 377 q 180 210 180 264 q 200 105 180 140 q 264 70 220 70 m 553 971 l 642 743 l 589 719 l 495 884 l 488 884 l 315 719 l 273 758 l 460 971 l 553 971 z "},"ğ":{"ha":726,"x_min":-77,"x_max":696,"o":"m 69 -58 q 47 -89 56 -74 q 35 -119 39 -104 q 31 -153 31 -133 q 68 -227 31 -203 q 178 -250 104 -250 q 290 -227 245 -250 q 366 -154 335 -203 q 421 -32 397 -104 q 469 161 444 40 l 459 163 q 337 31 393 73 q 216 -10 281 -10 q 101 45 142 -10 q 60 204 60 101 q 79 353 60 279 q 134 485 99 426 q 214 583 170 544 q 308 641 258 622 q 411 660 357 660 q 492 650 454 660 q 568 615 530 640 l 631 660 l 674 649 l 604 331 q 588 254 596 297 l 570 165 q 519 -55 538 5 q 465 -172 496 -125 q 396 -243 436 -214 q 303 -288 356 -272 q 180 -303 251 -303 q -77 -154 -77 -303 q -54 -85 -77 -116 q 20 -19 -31 -54 l 69 -58 m 264 70 q 333 94 298 70 q 406 169 367 117 q 467 267 445 220 q 504 384 488 314 q 519 505 519 454 q 496 582 519 558 q 422 606 474 606 q 368 597 393 606 q 315 567 342 588 q 265 511 289 545 q 221 427 241 476 q 191 320 201 377 q 180 210 180 264 q 200 105 180 140 q 264 70 220 70 m 696 928 q 617 824 656 862 q 536 771 577 787 q 444 755 495 755 q 338 807 375 755 q 300 953 300 859 l 355 963 q 459 841 363 841 q 527 851 498 841 q 585 886 556 861 q 648 957 614 911 l 696 928 z "},"ġ":{"ha":726,"x_min":-77,"x_max":674,"o":"m 69 -58 q 47 -89 56 -74 q 35 -119 39 -104 q 31 -153 31 -133 q 68 -227 31 -203 q 178 -250 104 -250 q 290 -227 245 -250 q 366 -154 335 -203 q 421 -32 397 -104 q 469 161 444 40 l 459 163 q 337 31 393 73 q 216 -10 281 -10 q 101 45 142 -10 q 60 204 60 101 q 79 353 60 279 q 134 485 99 426 q 214 583 170 544 q 308 641 258 622 q 411 660 357 660 q 492 650 454 660 q 568 615 530 640 l 631 660 l 674 649 l 604 331 q 588 254 596 297 l 570 165 q 519 -55 538 5 q 465 -172 496 -125 q 396 -243 436 -214 q 303 -288 356 -272 q 180 -303 251 -303 q -77 -154 -77 -303 q -54 -85 -77 -116 q 20 -19 -31 -54 l 69 -58 m 264 70 q 333 94 298 70 q 406 169 367 117 q 467 267 445 220 q 504 384 488 314 q 519 505 519 454 q 496 582 519 558 q 422 606 474 606 q 368 597 393 606 q 315 567 342 588 q 265 511 289 545 q 221 427 241 476 q 191 320 201 377 q 180 210 180 264 q 200 105 180 140 q 264 70 220 70 m 554 914 l 523 783 l 403 783 l 434 914 l 554 914 z "},"ģ":{"ha":726,"x_min":-77,"x_max":674,"o":"m 69 -58 q 47 -89 56 -74 q 35 -119 39 -104 q 31 -153 31 -133 q 68 -227 31 -203 q 178 -250 104 -250 q 290 -227 245 -250 q 366 -154 335 -203 q 421 -32 397 -104 q 469 161 444 40 l 459 163 q 337 31 393 73 q 216 -10 281 -10 q 101 45 142 -10 q 60 204 60 101 q 79 353 60 279 q 134 485 99 426 q 214 583 170 544 q 308 641 258 622 q 411 660 357 660 q 492 650 454 660 q 568 615 530 640 l 631 660 l 674 649 l 604 331 q 588 254 596 297 l 570 165 q 519 -55 538 5 q 465 -172 496 -125 q 396 -243 436 -214 q 303 -288 356 -272 q 180 -303 251 -303 q -77 -154 -77 -303 q -54 -85 -77 -116 q 20 -19 -31 -54 l 69 -58 m 264 70 q 333 94 298 70 q 406 169 367 117 q 467 267 445 220 q 504 384 488 314 q 519 505 519 454 q 496 582 519 558 q 422 606 474 606 q 368 597 393 606 q 315 567 342 588 q 265 511 289 545 q 221 427 241 476 q 191 320 201 377 q 180 210 180 264 q 200 105 180 140 q 264 70 220 70 m 389 739 q 387 774 387 757 q 404 857 387 821 q 456 928 420 893 q 576 1021 492 963 l 606 977 q 538 915 562 947 q 505 846 514 882 q 495 755 495 810 l 389 739 z "},"ĥ":{"ha":736,"x_min":52,"x_max":717,"o":"m 633 0 l 420 0 l 505 345 q 522 420 515 382 q 529 490 529 458 q 513 559 529 538 q 458 580 496 580 q 396 557 430 580 q 326 487 363 534 q 266 396 288 439 q 231 294 244 353 l 170 0 l 52 0 l 227 775 q 237 824 234 809 q 241 852 240 840 q 243 876 243 865 q 225 916 243 904 q 163 928 208 927 l 172 964 l 343 970 l 382 970 l 266 500 l 274 497 q 395 621 338 582 q 513 659 453 659 q 612 623 578 659 q 646 515 646 587 q 633 411 646 472 l 576 170 q 566 123 569 140 q 564 92 564 105 q 571 60 564 71 q 592 42 578 48 q 639 33 607 37 l 633 0 m 608 1217 l 717 1040 l 672 1006 l 550 1130 l 543 1130 l 365 1006 l 330 1048 l 515 1217 l 608 1217 z "},"ħ":{"ha":736,"x_min":52,"x_max":646,"o":"m 144 826 l 237 826 q 243 876 243 852 q 225 916 243 904 q 163 928 208 927 l 172 964 l 343 970 l 382 970 l 347 826 l 566 826 l 553 766 l 332 766 l 266 500 l 274 497 q 395 621 338 582 q 513 659 453 659 q 612 623 578 659 q 646 515 646 587 q 633 411 646 472 l 576 170 q 566 123 569 140 q 564 92 564 105 q 571 60 564 71 q 592 42 578 48 q 639 33 607 37 l 633 0 l 420 0 l 505 345 q 522 420 515 382 q 529 490 529 458 q 513 559 529 538 q 458 580 496 580 q 396 557 430 580 q 326 487 363 534 q 266 396 288 439 q 231 294 244 353 l 170 0 l 52 0 l 224 766 l 132 766 l 144 826 z "},"ì":{"ha":376,"x_min":59,"x_max":361,"o":"m 212 170 q 203 119 205 135 q 201 92 201 103 q 208 60 201 72 q 229 43 214 49 q 275 33 243 37 l 269 0 l 59 0 l 161 457 q 174 520 170 496 q 177 559 177 543 q 171 589 177 578 q 152 606 165 600 q 105 612 138 611 l 113 648 l 278 654 l 318 654 l 212 170 m 271 978 l 361 755 l 313 726 l 153 944 l 161 978 l 271 978 z "},"í":{"ha":376,"x_min":59,"x_max":496,"o":"m 212 170 q 203 119 205 135 q 201 92 201 103 q 208 60 201 72 q 229 43 214 49 q 275 33 243 37 l 269 0 l 59 0 l 161 457 q 174 520 170 496 q 177 559 177 543 q 171 589 177 578 q 152 606 165 600 q 105 612 138 611 l 113 648 l 278 654 l 318 654 l 212 170 m 496 978 l 488 944 l 235 726 l 193 766 l 371 978 l 496 978 z "},"î":{"ha":376,"x_min":59,"x_max":463,"o":"m 212 170 q 203 119 205 135 q 201 92 201 103 q 208 60 201 72 q 229 43 214 49 q 275 33 243 37 l 269 0 l 59 0 l 161 457 q 174 520 170 496 q 177 559 177 543 q 171 589 177 578 q 152 606 165 600 q 105 612 138 611 l 113 648 l 278 654 l 318 654 l 212 170 m 374 971 l 463 743 l 410 719 l 316 884 l 309 884 l 136 719 l 94 758 l 281 971 l 374 971 z "},"ĩ":{"ha":376,"x_min":59,"x_max":523,"o":"m 212 170 q 203 119 205 135 q 201 92 201 103 q 208 60 201 72 q 229 43 214 49 q 275 33 243 37 l 269 0 l 59 0 l 161 457 q 174 520 170 496 q 177 559 177 543 q 171 589 177 578 q 152 606 165 600 q 105 612 138 611 l 113 648 l 278 654 l 318 654 l 212 170 m 476 926 l 523 893 q 463 814 489 842 q 415 776 437 787 q 367 765 393 765 q 338 769 351 765 q 314 780 326 773 q 281 806 303 787 q 252 828 260 822 q 235 837 243 834 q 218 840 227 840 q 187 834 201 840 q 157 810 174 827 q 121 765 141 793 l 73 797 q 136 880 115 856 q 180 915 158 903 q 233 926 202 926 q 253 923 243 926 q 271 917 262 921 q 286 908 279 913 q 313 888 293 903 q 354 858 340 865 q 380 850 367 850 q 410 857 396 850 q 439 880 423 864 q 476 926 456 897 z "},"ï":{"ha":376,"x_min":59,"x_max":477,"o":"m 212 170 q 203 119 205 135 q 201 92 201 103 q 208 60 201 72 q 229 43 214 49 q 275 33 243 37 l 269 0 l 59 0 l 161 457 q 174 520 170 496 q 177 559 177 543 q 171 589 177 578 q 152 606 165 600 q 105 612 138 611 l 113 648 l 278 654 l 318 654 l 212 170 m 477 908 l 451 789 l 339 789 l 365 908 l 477 908 m 258 908 l 233 789 l 121 789 l 146 908 l 258 908 z "},"ī":{"ha":376,"x_min":59,"x_max":477,"o":"m 212 170 q 203 119 205 135 q 201 92 201 103 q 208 60 201 72 q 229 43 214 49 q 275 33 243 37 l 269 0 l 59 0 l 161 457 q 174 520 170 496 q 177 559 177 543 q 171 589 177 578 q 152 606 165 600 q 105 612 138 611 l 113 648 l 278 654 l 318 654 l 212 170 m 460 806 l 120 806 l 138 890 l 477 890 l 460 806 z "},"ĭ":{"ha":376,"x_min":59,"x_max":517,"o":"m 212 170 q 203 119 205 135 q 201 92 201 103 q 208 60 201 72 q 229 43 214 49 q 275 33 243 37 l 269 0 l 59 0 l 161 457 q 174 520 170 496 q 177 559 177 543 q 171 589 177 578 q 152 606 165 600 q 105 612 138 611 l 113 648 l 278 654 l 318 654 l 212 170 m 517 928 q 438 824 477 862 q 357 771 398 787 q 264 755 316 755 q 159 807 196 755 q 121 953 121 859 l 176 963 q 280 841 184 841 q 348 851 319 841 q 406 886 377 861 q 469 957 435 911 l 517 928 z "},"į":{"ha":376,"x_min":7,"x_max":380,"o":"m 380 914 l 349 783 l 229 783 l 260 914 l 380 914 m 212 170 q 203 119 205 135 q 201 92 201 103 q 208 60 201 72 q 229 43 214 49 q 275 33 243 37 l 269 0 l 233 0 q 127 -98 157 -58 q 97 -173 97 -138 q 111 -218 97 -205 q 153 -231 124 -231 q 194 -223 175 -231 q 229 -208 214 -216 l 239 -254 q 183 -281 215 -271 q 125 -292 151 -292 q 37 -266 66 -292 q 7 -185 7 -239 q 48 -93 7 -140 q 168 0 90 -45 l 59 0 l 161 457 q 174 520 170 496 q 177 559 177 543 q 171 589 177 578 q 152 606 165 600 q 105 612 138 611 l 113 648 l 278 654 l 318 654 l 212 170 z "},"ı":{"ha":376,"x_min":59,"x_max":318,"o":"m 212 170 q 203 119 205 135 q 201 92 201 103 q 208 60 201 72 q 229 43 214 49 q 275 33 243 37 l 269 0 l 59 0 l 161 457 q 174 520 170 496 q 177 559 177 543 q 171 589 177 578 q 152 606 165 600 q 105 612 138 611 l 113 648 l 278 654 l 318 654 l 212 170 z "},"ĳ":{"ha":746,"x_min":59,"x_max":758,"o":"m 380 914 l 349 783 l 229 783 l 260 914 l 380 914 m 212 170 q 203 119 205 135 q 201 92 201 103 q 208 60 201 72 q 229 43 214 49 q 275 33 243 37 l 269 0 l 59 0 l 161 457 q 174 520 170 496 q 177 559 177 543 q 171 589 177 578 q 152 606 165 600 q 105 612 138 611 l 113 648 l 278 654 l 318 654 l 212 170 m 758 914 l 727 783 l 607 783 l 638 914 l 758 914 m 554 -12 q 495 -177 532 -115 q 398 -272 458 -240 q 256 -303 338 -303 q 198 -296 222 -303 l 214 -237 q 238 -241 224 -240 q 265 -242 251 -242 q 320 -232 298 -242 q 363 -200 343 -222 q 399 -136 382 -177 q 430 -31 416 -96 l 540 457 q 552 519 549 495 q 555 559 555 543 q 550 589 555 578 q 530 606 544 600 q 484 612 517 611 l 491 648 l 656 654 l 695 654 l 554 -12 z "},"ĵ":{"ha":370,"x_min":-178,"x_max":463,"o":"m 373 971 l 463 743 l 409 719 l 315 880 l 308 880 l 135 719 l 93 758 l 281 971 l 373 971 m 178 -12 q 119 -177 156 -115 q 22 -272 81 -240 q -121 -303 -38 -303 q -178 -296 -155 -303 l -163 -237 q -139 -241 -152 -240 q -111 -242 -125 -242 q -56 -232 -79 -242 q -14 -200 -33 -222 q 23 -136 6 -177 q 54 -31 39 -96 l 163 457 q 176 519 172 495 q 179 559 179 543 q 173 589 179 578 q 154 606 168 600 q 107 612 140 611 l 115 648 l 280 654 l 319 654 l 178 -12 z "},"ķ":{"ha":690,"x_min":52,"x_max":719,"o":"m 250 378 l 271 378 q 317 386 292 378 q 369 411 341 394 q 444 466 397 429 q 496 514 479 494 q 519 549 513 534 q 525 578 525 564 q 479 615 525 611 l 486 648 l 706 648 l 719 615 q 600 515 663 564 l 428 382 l 530 125 q 557 72 543 90 q 590 44 572 53 q 638 33 609 35 l 631 0 l 450 0 l 351 279 q 334 315 341 305 q 319 328 328 324 q 290 332 310 332 l 240 332 l 170 0 l 52 0 l 227 775 q 237 824 234 809 q 241 852 240 840 q 243 876 243 865 q 225 916 243 904 q 163 928 208 927 l 172 964 l 343 970 l 382 970 l 250 378 m 337 -67 q 338 -78 338 -73 l 338 -88 q 275 -230 338 -177 q 94 -292 212 -283 l 94 -240 q 178 -214 146 -236 q 224 -157 210 -192 q 239 -67 238 -123 l 337 -67 z "},"ĸ":{"ha":697,"x_min":59,"x_max":726,"o":"m 256 378 l 278 378 q 323 386 299 378 q 376 411 348 394 q 450 466 404 429 q 503 514 486 494 q 526 549 519 534 q 532 578 532 564 q 486 615 532 611 l 493 648 l 713 648 l 726 615 q 606 515 669 564 l 435 382 l 536 125 q 564 72 550 90 q 597 44 578 53 q 645 33 616 35 l 637 0 l 456 0 l 357 279 q 342 315 348 306 q 327 328 336 324 q 295 332 318 332 l 247 332 l 176 0 l 59 0 l 161 460 q 174 524 171 502 q 176 557 176 545 q 171 589 176 578 q 153 605 166 600 q 104 612 140 610 l 112 648 l 278 654 l 317 654 l 256 378 z "},"ĺ":{"ha":370,"x_min":52,"x_max":570,"o":"m 342 970 l 382 970 l 206 170 q 197 120 199 137 q 195 92 195 104 q 201 60 195 72 q 222 43 208 49 q 269 33 237 37 l 264 0 l 52 0 l 227 779 q 237 823 234 808 q 241 852 239 838 q 242 876 242 865 q 235 906 242 896 q 213 922 227 917 q 163 928 199 926 l 172 964 l 342 970 m 570 1219 l 562 1185 l 274 1003 l 240 1051 l 422 1219 l 570 1219 z "},"ľ":{"ha":524,"x_min":52,"x_max":625,"o":"m 342 970 l 382 970 l 206 170 q 197 120 199 137 q 195 92 195 104 q 201 60 195 72 q 222 43 208 49 q 269 33 237 37 l 264 0 l 52 0 l 227 779 q 237 823 234 808 q 241 852 239 838 q 242 876 242 865 q 235 906 242 896 q 213 922 227 917 q 163 928 199 926 l 172 964 l 342 970 m 624 970 q 625 937 625 964 q 615 855 625 890 q 586 793 606 821 q 537 738 567 765 q 447 667 507 711 l 415 709 q 493 814 467 751 q 519 970 519 876 l 624 970 z "},"ļ":{"ha":370,"x_min":-79,"x_max":382,"o":"m 342 970 l 382 970 l 206 170 q 197 120 199 137 q 195 92 195 104 q 201 60 195 72 q 222 43 208 49 q 269 33 237 37 l 264 0 l 52 0 l 227 779 q 237 823 234 808 q 241 852 239 838 q 242 876 242 865 q 235 906 242 896 q 213 922 227 917 q 163 928 199 926 l 172 964 l 342 970 m 163 -67 q 164 -78 164 -73 l 164 -88 q 101 -230 164 -177 q -79 -292 38 -283 l -79 -240 q 5 -214 -27 -236 q 51 -157 37 -192 q 66 -67 64 -123 l 163 -67 z "},"ł":{"ha":410,"x_min":22,"x_max":467,"o":"m 300 501 l 227 170 q 217 121 220 138 q 215 92 215 104 q 222 60 215 72 q 243 43 229 49 q 290 33 257 37 l 284 0 l 73 0 l 172 437 l 52 365 l 22 422 l 189 517 l 248 779 q 257 824 254 809 q 261 852 260 838 q 262 876 262 865 q 255 906 262 896 q 234 922 248 917 q 184 928 220 926 l 192 964 l 363 970 l 403 970 l 317 581 l 437 654 l 467 598 l 300 501 z "},"ŀ":{"ha":503,"x_min":52,"x_max":533,"o":"m 342 970 l 382 970 l 206 170 q 197 120 199 137 q 195 92 195 104 q 201 60 195 72 q 222 43 208 49 q 269 33 237 37 l 264 0 l 52 0 l 227 779 q 237 823 234 808 q 241 852 239 838 q 242 876 242 865 q 235 906 242 896 q 213 922 227 917 q 163 928 199 926 l 172 964 l 342 970 m 533 539 l 502 408 l 382 408 l 413 539 l 533 539 z "},"ń":{"ha":743,"x_min":59,"x_max":686,"o":"m 640 0 l 426 0 l 512 345 q 528 418 520 378 q 536 490 536 458 q 519 559 536 538 q 467 580 503 580 q 406 558 439 580 q 337 492 373 536 q 276 403 301 448 q 238 294 252 358 l 176 0 l 59 0 l 162 463 q 171 509 165 479 q 177 560 177 540 q 171 590 177 579 q 152 605 165 600 q 104 612 138 610 l 113 648 l 267 654 l 305 654 l 260 478 l 268 475 q 396 614 334 569 q 519 659 458 659 q 619 623 585 659 q 653 515 653 587 q 649 462 653 491 q 639 411 644 433 l 582 170 q 570 92 570 121 q 577 60 570 72 q 598 43 584 49 q 645 33 612 37 l 640 0 m 686 978 l 678 944 l 425 726 l 382 766 l 561 978 l 686 978 z "},"ň":{"ha":743,"x_min":59,"x_max":695,"o":"m 640 0 l 426 0 l 512 345 q 528 418 520 378 q 536 490 536 458 q 519 559 536 538 q 467 580 503 580 q 406 558 439 580 q 337 492 373 536 q 276 403 301 448 q 238 294 252 358 l 176 0 l 59 0 l 162 463 q 171 509 165 479 q 177 560 177 540 q 171 590 177 579 q 152 605 165 600 q 104 612 138 610 l 113 648 l 267 654 l 305 654 l 260 478 l 268 475 q 396 614 334 569 q 519 659 458 659 q 619 623 585 659 q 653 515 653 587 q 649 462 653 491 q 639 411 644 433 l 582 170 q 570 92 570 121 q 577 60 570 72 q 598 43 584 49 q 645 33 612 37 l 640 0 m 415 732 l 326 960 l 378 985 l 472 820 l 479 820 l 652 985 l 695 946 l 507 732 l 415 732 z "},"ñ":{"ha":743,"x_min":59,"x_max":711,"o":"m 640 0 l 426 0 l 512 345 q 528 418 520 378 q 536 490 536 458 q 519 559 536 538 q 467 580 503 580 q 406 558 439 580 q 337 492 373 536 q 276 403 301 448 q 238 294 252 358 l 176 0 l 59 0 l 162 463 q 171 509 165 479 q 177 560 177 540 q 171 590 177 579 q 152 605 165 600 q 104 612 138 610 l 113 648 l 267 654 l 305 654 l 260 478 l 268 475 q 396 614 334 569 q 519 659 458 659 q 619 623 585 659 q 653 515 653 587 q 649 462 653 491 q 639 411 644 433 l 582 170 q 570 92 570 121 q 577 60 570 72 q 598 43 584 49 q 645 33 612 37 l 640 0 m 665 926 l 711 893 q 651 814 677 842 q 604 776 625 787 q 555 765 582 765 q 527 769 540 765 q 503 780 514 773 q 469 806 492 787 q 440 828 449 822 q 423 837 431 834 q 406 840 415 840 q 376 834 389 840 q 346 810 362 827 q 309 765 330 793 l 262 797 q 325 880 303 856 q 369 915 347 903 q 421 926 391 926 q 441 923 432 926 q 459 917 450 921 q 475 908 468 913 q 501 888 481 903 q 542 858 529 865 q 569 850 555 850 q 598 857 585 850 q 628 880 612 864 q 665 926 644 897 z "},"ņ":{"ha":743,"x_min":59,"x_max":653,"o":"m 640 0 l 426 0 l 512 345 q 528 418 520 378 q 536 490 536 458 q 519 559 536 538 q 467 580 503 580 q 406 558 439 580 q 337 492 373 536 q 276 403 301 448 q 238 294 252 358 l 176 0 l 59 0 l 162 463 q 171 509 165 479 q 177 560 177 540 q 171 590 177 579 q 152 605 165 600 q 104 612 138 610 l 113 648 l 267 654 l 305 654 l 260 478 l 268 475 q 396 614 334 569 q 519 659 458 659 q 619 623 585 659 q 653 515 653 587 q 649 462 653 491 q 639 411 644 433 l 582 170 q 570 92 570 121 q 577 60 570 72 q 598 43 584 49 q 645 33 612 37 l 640 0 m 356 -67 q 357 -78 357 -73 l 357 -88 q 294 -230 357 -177 q 113 -292 231 -283 l 113 -240 q 197 -214 165 -236 q 243 -157 229 -192 q 258 -67 257 -123 l 356 -67 z "},"ŉ":{"ha":923,"x_min":126,"x_max":833,"o":"m 355 970 q 345 867 355 905 q 313 787 333 821 q 254 713 291 750 q 157 638 216 677 l 126 680 q 178 736 157 705 q 214 812 199 767 q 235 903 229 857 q 241 970 241 950 l 355 970 m 819 0 l 606 0 l 692 345 q 708 418 700 378 q 715 490 715 458 q 699 559 715 538 q 647 580 682 580 q 586 558 618 580 q 517 492 553 536 q 456 403 481 448 q 418 294 431 358 l 356 0 l 239 0 l 342 463 q 351 509 345 479 q 357 560 357 540 q 351 590 357 579 q 331 605 345 600 q 284 612 317 610 l 292 648 l 446 654 l 485 654 l 439 478 l 448 475 q 576 614 514 569 q 699 659 637 659 q 799 623 765 659 q 833 515 833 587 q 828 462 833 491 q 819 411 824 433 l 762 170 q 750 92 750 121 q 757 60 750 72 q 778 43 764 49 q 825 33 792 37 l 819 0 z "},"ò":{"ha":704,"x_min":56,"x_max":647,"o":"m 277 -12 q 114 47 172 -12 q 56 217 56 106 q 66 313 56 258 q 103 439 79 384 q 181 557 134 507 q 291 633 229 607 q 425 659 353 659 q 552 629 503 659 q 625 548 602 600 q 647 430 647 497 q 630 301 647 370 q 559 131 606 201 q 441 25 512 61 q 277 -12 371 -12 m 175 188 q 206 78 175 113 q 299 42 237 42 q 417 102 366 42 q 498 269 469 161 q 528 458 528 376 q 500 568 528 531 q 411 605 471 605 q 288 546 340 605 q 205 377 235 487 q 175 188 175 267 m 439 978 l 530 755 l 481 726 l 322 944 l 330 978 l 439 978 z "},"ó":{"ha":704,"x_min":56,"x_max":666,"o":"m 277 -12 q 114 47 172 -12 q 56 217 56 106 q 66 313 56 258 q 103 439 79 384 q 181 557 134 507 q 291 633 229 607 q 425 659 353 659 q 552 629 503 659 q 625 548 602 600 q 647 430 647 497 q 630 301 647 370 q 559 131 606 201 q 441 25 512 61 q 277 -12 371 -12 m 175 188 q 206 78 175 113 q 299 42 237 42 q 417 102 366 42 q 498 269 469 161 q 528 458 528 376 q 500 568 528 531 q 411 605 471 605 q 288 546 340 605 q 205 377 235 487 q 175 188 175 267 m 666 978 l 659 944 l 405 726 l 363 766 l 541 978 l 666 978 z "},"ô":{"ha":704,"x_min":56,"x_max":647,"o":"m 277 -12 q 114 47 172 -12 q 56 217 56 106 q 66 313 56 258 q 103 439 79 384 q 181 557 134 507 q 291 633 229 607 q 425 659 353 659 q 552 629 503 659 q 625 548 602 600 q 647 430 647 497 q 630 301 647 370 q 559 131 606 201 q 441 25 512 61 q 277 -12 371 -12 m 175 188 q 206 78 175 113 q 299 42 237 42 q 417 102 366 42 q 498 269 469 161 q 528 458 528 376 q 500 568 528 531 q 411 605 471 605 q 288 546 340 605 q 205 377 235 487 q 175 188 175 267 m 542 971 l 631 743 l 578 719 l 484 884 l 477 884 l 304 719 l 262 758 l 450 971 l 542 971 z "},"õ":{"ha":704,"x_min":56,"x_max":692,"o":"m 277 -12 q 114 47 172 -12 q 56 217 56 106 q 66 313 56 258 q 103 439 79 384 q 181 557 134 507 q 291 633 229 607 q 425 659 353 659 q 552 629 503 659 q 625 548 602 600 q 647 430 647 497 q 630 301 647 370 q 559 131 606 201 q 441 25 512 61 q 277 -12 371 -12 m 175 188 q 206 78 175 113 q 299 42 237 42 q 417 102 366 42 q 498 269 469 161 q 528 458 528 376 q 500 568 528 531 q 411 605 471 605 q 288 546 340 605 q 205 377 235 487 q 175 188 175 267 m 645 926 l 692 893 q 632 814 658 842 q 584 776 606 787 q 536 765 562 765 q 507 769 520 765 q 483 780 494 773 q 450 806 472 787 q 420 828 429 822 q 404 837 412 834 q 387 840 395 840 q 356 834 370 840 q 326 810 342 827 q 290 765 310 793 l 242 797 q 305 880 283 856 q 349 915 327 903 q 401 926 371 926 q 421 923 412 926 q 439 917 431 921 q 455 908 448 913 q 481 888 462 903 q 523 858 509 865 q 549 850 536 850 q 578 857 565 850 q 608 880 592 864 q 645 926 625 897 z "},"ö":{"ha":704,"x_min":56,"x_max":647,"o":"m 277 -12 q 114 47 172 -12 q 56 217 56 106 q 66 313 56 258 q 103 439 79 384 q 181 557 134 507 q 291 633 229 607 q 425 659 353 659 q 552 629 503 659 q 625 548 602 600 q 647 430 647 497 q 630 301 647 370 q 559 131 606 201 q 441 25 512 61 q 277 -12 371 -12 m 175 188 q 206 78 175 113 q 299 42 237 42 q 417 102 366 42 q 498 269 469 161 q 528 458 528 376 q 500 568 528 531 q 411 605 471 605 q 288 546 340 605 q 205 377 235 487 q 175 188 175 267 m 646 908 l 620 789 l 508 789 l 534 908 l 646 908 m 427 908 l 401 789 l 290 789 l 315 908 l 427 908 z "},"ō":{"ha":704,"x_min":56,"x_max":647,"o":"m 277 -12 q 114 47 172 -12 q 56 217 56 106 q 66 313 56 258 q 103 439 79 384 q 181 557 134 507 q 291 633 229 607 q 425 659 353 659 q 552 629 503 659 q 625 548 602 600 q 647 430 647 497 q 630 301 647 370 q 559 131 606 201 q 441 25 512 61 q 277 -12 371 -12 m 175 188 q 206 78 175 113 q 299 42 237 42 q 417 102 366 42 q 498 269 469 161 q 528 458 528 376 q 500 568 528 531 q 411 605 471 605 q 288 546 340 605 q 205 377 235 487 q 175 188 175 267 m 629 806 l 289 806 l 307 890 l 646 890 l 629 806 z "},"ŏ":{"ha":704,"x_min":56,"x_max":685,"o":"m 277 -12 q 114 47 172 -12 q 56 217 56 106 q 66 313 56 258 q 103 439 79 384 q 181 557 134 507 q 291 633 229 607 q 425 659 353 659 q 552 629 503 659 q 625 548 602 600 q 647 430 647 497 q 630 301 647 370 q 559 131 606 201 q 441 25 512 61 q 277 -12 371 -12 m 175 188 q 206 78 175 113 q 299 42 237 42 q 417 102 366 42 q 498 269 469 161 q 528 458 528 376 q 500 568 528 531 q 411 605 471 605 q 288 546 340 605 q 205 377 235 487 q 175 188 175 267 m 685 928 q 606 824 646 862 q 525 771 566 787 q 433 755 484 755 q 327 807 364 755 q 290 953 290 859 l 345 963 q 448 841 353 841 q 516 851 488 841 q 574 886 545 861 q 637 957 604 911 l 685 928 z "},"ő":{"ha":704,"x_min":56,"x_max":760,"o":"m 277 -12 q 114 47 172 -12 q 56 217 56 106 q 66 313 56 258 q 103 439 79 384 q 181 557 134 507 q 291 633 229 607 q 425 659 353 659 q 552 629 503 659 q 625 548 602 600 q 647 430 647 497 q 630 301 647 370 q 559 131 606 201 q 441 25 512 61 q 277 -12 371 -12 m 175 188 q 206 78 175 113 q 299 42 237 42 q 417 102 366 42 q 498 269 469 161 q 528 458 528 376 q 500 568 528 531 q 411 605 471 605 q 288 546 340 605 q 205 377 235 487 q 175 188 175 267 m 760 978 l 752 944 l 514 726 l 475 761 l 667 978 l 760 978 m 553 978 l 545 944 l 307 726 l 268 761 l 460 978 l 553 978 z "},"ø":{"ha":704,"x_min":-29,"x_max":732,"o":"m 98 66 q 56 217 56 124 q 66 313 56 258 q 103 439 79 384 q 181 557 134 507 q 291 633 229 607 q 425 659 353 659 q 553 629 500 659 l 644 741 l 732 741 l 604 583 q 647 430 647 525 q 630 301 647 370 q 559 131 606 201 q 441 25 512 61 q 277 -12 371 -12 q 149 20 202 -12 l 58 -92 l -29 -92 l 98 66 m 174 156 l 502 565 q 411 605 474 605 q 287 546 340 605 q 203 377 233 486 q 173 188 173 267 l 173 170 q 174 156 173 162 m 528 493 l 201 84 q 299 42 231 42 q 388 73 347 42 q 459 163 428 104 q 510 308 490 222 q 530 458 530 393 q 528 493 530 477 z "},"ǿ":{"ha":704,"x_min":-29,"x_max":732,"o":"m 98 66 q 56 217 56 124 q 66 313 56 258 q 103 439 79 384 q 181 557 134 507 q 291 633 229 607 q 425 659 353 659 q 553 629 500 659 l 644 741 l 732 741 l 604 583 q 647 430 647 525 q 630 301 647 370 q 559 131 606 201 q 441 25 512 61 q 277 -12 371 -12 q 149 20 202 -12 l 58 -92 l -29 -92 l 98 66 m 174 156 l 502 565 q 411 605 474 605 q 287 546 340 605 q 203 377 233 486 q 173 188 173 267 l 173 170 q 174 156 173 162 m 528 493 l 201 84 q 299 42 231 42 q 388 73 347 42 q 459 163 428 104 q 510 308 490 222 q 530 458 530 393 q 528 493 530 477 m 666 978 l 659 944 l 405 726 l 363 766 l 541 978 l 666 978 z "},"œ":{"ha":1072,"x_min":56,"x_max":1046,"o":"m 989 135 q 893 48 939 80 q 801 3 847 16 q 699 -11 755 -11 q 623 1 654 -11 q 569 34 591 13 q 528 92 547 56 l 522 92 q 405 12 458 36 q 277 -12 351 -12 q 114 47 172 -12 q 56 217 56 106 q 66 313 56 258 q 103 439 79 384 q 181 557 134 507 q 291 633 229 607 q 425 659 353 659 q 514 644 477 659 q 575 605 551 629 q 618 542 600 581 l 625 542 q 882 660 741 660 q 1005 627 964 660 q 1046 523 1046 593 q 938 350 1046 408 q 617 292 830 292 q 609 204 609 252 q 637 101 609 133 q 728 68 665 68 q 841 96 790 68 q 947 179 892 123 l 989 135 m 629 350 q 738 357 691 351 q 819 375 785 363 q 876 401 853 386 q 911 436 898 417 q 929 475 924 454 q 935 518 935 496 q 915 583 935 559 q 858 606 896 606 q 765 572 810 606 q 684 480 719 538 q 629 350 649 422 m 175 188 q 206 78 175 113 q 299 42 237 42 q 417 102 366 42 q 498 269 469 161 q 528 458 528 376 q 500 568 528 531 q 411 605 471 605 q 288 546 340 605 q 205 377 235 487 q 175 188 175 267 z "},"ŕ":{"ha":566,"x_min":59,"x_max":606,"o":"m 270 654 l 311 654 l 263 488 l 271 485 q 397 616 336 574 q 524 659 458 659 q 606 652 573 659 l 574 500 l 504 500 q 487 553 498 535 q 451 572 475 572 q 390 545 425 572 q 319 470 355 517 q 266 382 283 422 q 238 294 248 342 l 176 0 l 59 0 l 162 463 q 176 560 176 527 q 170 590 176 579 q 151 605 164 600 q 104 612 137 610 l 112 648 l 270 654 m 597 978 l 589 944 l 336 726 l 294 766 l 472 978 l 597 978 z "},"ř":{"ha":566,"x_min":59,"x_max":606,"o":"m 270 654 l 311 654 l 263 488 l 271 485 q 397 616 336 574 q 524 659 458 659 q 606 652 573 659 l 574 500 l 504 500 q 487 553 498 535 q 451 572 475 572 q 390 545 425 572 q 319 470 355 517 q 266 382 283 422 q 238 294 248 342 l 176 0 l 59 0 l 162 463 q 176 560 176 527 q 170 590 176 579 q 151 605 164 600 q 104 612 137 610 l 112 648 l 270 654 m 326 732 l 237 960 l 290 985 l 383 820 l 390 820 l 564 985 l 606 946 l 418 732 l 326 732 z "},"ŗ":{"ha":566,"x_min":-48,"x_max":606,"o":"m 270 654 l 311 654 l 263 488 l 271 485 q 397 616 336 574 q 524 659 458 659 q 606 652 573 659 l 574 500 l 504 500 q 487 553 498 535 q 451 572 475 572 q 390 545 425 572 q 319 470 355 517 q 266 382 283 422 q 238 294 248 342 l 176 0 l 59 0 l 162 463 q 176 560 176 527 q 170 590 176 579 q 151 605 164 600 q 104 612 137 610 l 112 648 l 270 654 m 195 -67 q 195 -78 195 -73 l 195 -88 q 132 -230 195 -177 q -48 -292 69 -283 l -48 -240 q 36 -214 4 -236 q 82 -157 68 -192 q 97 -67 96 -123 l 195 -67 z "},"ś":{"ha":530,"x_min":-1,"x_max":579,"o":"m 448 490 q 413 579 440 551 q 328 606 385 606 q 270 594 296 606 q 229 560 244 583 q 214 507 214 537 q 224 461 214 481 q 259 418 235 440 q 326 366 283 395 q 418 281 392 322 q 445 185 445 239 q 414 77 445 121 q 331 11 384 33 q 212 -11 278 -11 q 100 -2 152 -11 q -1 20 48 7 l 31 167 l 84 167 q 120 74 89 104 q 210 43 151 43 q 304 73 270 43 q 338 153 338 103 q 328 205 338 182 q 296 249 317 228 q 234 297 274 270 q 165 352 191 326 q 124 409 138 378 q 109 477 109 439 q 137 574 109 533 q 216 637 165 616 q 336 659 267 659 q 533 630 448 659 l 502 490 l 448 490 m 579 978 l 572 944 l 318 726 l 276 766 l 454 978 l 579 978 z "},"ŝ":{"ha":530,"x_min":-1,"x_max":544,"o":"m 448 490 q 413 579 440 551 q 328 606 385 606 q 270 594 296 606 q 229 560 244 583 q 214 507 214 537 q 224 461 214 481 q 259 418 235 440 q 326 366 283 395 q 418 281 392 322 q 445 185 445 239 q 414 77 445 121 q 331 11 384 33 q 212 -11 278 -11 q 100 -2 152 -11 q -1 20 48 7 l 31 167 l 84 167 q 120 74 89 104 q 210 43 151 43 q 304 73 270 43 q 338 153 338 103 q 328 205 338 182 q 296 249 317 228 q 234 297 274 270 q 165 352 191 326 q 124 409 138 378 q 109 477 109 439 q 137 574 109 533 q 216 637 165 616 q 336 659 267 659 q 533 630 448 659 l 502 490 l 448 490 m 454 971 l 544 743 l 490 719 l 397 884 l 390 884 l 216 719 l 174 758 l 362 971 l 454 971 z "},"š":{"ha":530,"x_min":-1,"x_max":588,"o":"m 448 490 q 413 579 440 551 q 328 606 385 606 q 270 594 296 606 q 229 560 244 583 q 214 507 214 537 q 224 461 214 481 q 259 418 235 440 q 326 366 283 395 q 418 281 392 322 q 445 185 445 239 q 414 77 445 121 q 331 11 384 33 q 212 -11 278 -11 q 100 -2 152 -11 q -1 20 48 7 l 31 167 l 84 167 q 120 74 89 104 q 210 43 151 43 q 304 73 270 43 q 338 153 338 103 q 328 205 338 182 q 296 249 317 228 q 234 297 274 270 q 165 352 191 326 q 124 409 138 378 q 109 477 109 439 q 137 574 109 533 q 216 637 165 616 q 336 659 267 659 q 533 630 448 659 l 502 490 l 448 490 m 308 732 l 218 960 l 271 985 l 365 820 l 372 820 l 545 985 l 588 946 l 399 732 l 308 732 z "},"ş":{"ha":530,"x_min":-30,"x_max":533,"o":"m 448 490 q 413 579 440 551 q 328 606 385 606 q 270 594 296 606 q 229 560 244 583 q 214 507 214 537 q 224 461 214 481 q 259 418 235 440 q 326 366 283 395 q 418 281 392 322 q 445 185 445 239 q 408 68 445 115 q 302 0 372 20 l 213 -59 q 216 -92 216 -68 q 152 -230 216 -177 q -30 -292 87 -282 l -30 -240 q 71 -201 35 -235 q 108 -102 106 -167 l 113 -79 l 221 -11 l 212 -11 q 100 -2 152 -11 q -1 20 48 7 l 31 167 l 84 167 q 120 74 89 104 q 210 43 151 43 q 304 73 270 43 q 338 153 338 103 q 328 205 338 182 q 296 249 317 228 q 234 297 274 270 q 165 352 191 326 q 124 409 138 378 q 109 477 109 439 q 137 574 109 533 q 216 637 165 616 q 336 659 267 659 q 533 630 448 659 l 502 490 l 448 490 z "},"ș":{"ha":530,"x_min":-1,"x_max":533,"o":"m 448 490 q 413 579 440 551 q 328 606 385 606 q 270 594 296 606 q 229 560 244 583 q 214 507 214 537 q 224 461 214 481 q 259 418 235 440 q 326 366 283 395 q 418 281 392 322 q 445 185 445 239 q 414 77 445 121 q 331 11 384 33 q 212 -11 278 -11 q 100 -2 152 -11 q -1 20 48 7 l 31 167 l 84 167 q 120 74 89 104 q 210 43 151 43 q 304 73 270 43 q 338 153 338 103 q 328 205 338 182 q 296 249 317 228 q 234 297 274 270 q 165 352 191 326 q 124 409 138 378 q 109 477 109 439 q 137 574 109 533 q 216 637 165 616 q 336 659 267 659 q 533 630 448 659 l 502 490 l 448 490 m 250 -67 q 251 -78 251 -73 l 251 -88 q 188 -230 251 -177 q 7 -292 125 -283 l 7 -240 q 92 -214 60 -236 q 137 -157 123 -192 q 153 -67 151 -123 l 250 -67 z "},"ß":{"ha":787,"x_min":-182,"x_max":779,"o":"m 172 -12 q 110 -182 149 -118 q 13 -274 71 -245 q -129 -303 -45 -303 q -182 -296 -159 -303 l -167 -237 q -119 -242 -151 -242 q -61 -233 -83 -242 q -19 -202 -38 -223 q 18 -139 1 -180 q 51 -31 35 -98 l 189 580 l 106 580 l 115 614 q 180 637 158 619 q 216 699 201 655 q 243 771 227 736 q 281 837 259 806 q 332 893 303 868 q 398 936 360 918 q 483 964 435 954 q 589 974 530 974 q 664 965 629 974 q 725 939 699 957 q 765 893 750 922 q 779 825 779 865 q 761 741 779 779 q 709 672 743 704 q 619 604 675 640 q 539 549 563 568 q 506 513 515 530 q 496 476 496 497 q 503 441 496 456 q 531 411 511 427 q 596 368 551 395 q 665 320 639 342 q 705 278 690 299 q 727 234 720 257 q 734 177 734 210 q 702 74 734 117 q 614 9 669 31 q 488 -12 559 -12 q 281 20 393 -12 l 306 136 l 362 136 q 401 65 370 87 q 492 42 433 42 q 589 72 553 42 q 624 153 624 101 q 614 205 624 183 q 581 248 604 227 q 507 298 557 268 q 448 339 467 323 q 417 371 429 354 q 400 405 406 387 q 395 444 395 422 q 408 500 395 475 q 448 551 420 525 q 545 625 475 578 q 615 682 590 656 q 654 738 641 707 q 668 812 668 769 q 641 892 668 864 q 562 920 613 920 q 474 904 510 920 q 405 850 437 887 q 349 754 372 812 q 303 595 325 696 l 172 -12 m 43 648 z "},"ſ":{"ha":381,"x_min":-182,"x_max":634,"o":"m 172 -12 q 110 -182 149 -118 q 13 -274 71 -245 q -129 -303 -45 -303 q -182 -296 -159 -303 l -167 -237 q -119 -242 -151 -242 q -61 -233 -83 -242 q -19 -202 -38 -223 q 18 -139 1 -180 q 51 -31 35 -98 l 188 580 l 106 580 l 114 614 q 156 622 143 618 q 177 633 170 627 q 190 649 184 639 q 200 673 195 660 q 218 729 205 687 q 329 912 254 851 q 519 974 404 974 q 634 963 586 974 l 608 848 l 548 848 q 523 903 538 886 q 478 920 508 920 q 411 898 439 920 q 363 829 383 875 q 328 710 343 784 l 172 -12 m 469 648 z "},"ť":{"ha":599,"x_min":85,"x_max":700,"o":"m 458 125 q 348 23 402 58 q 233 -11 294 -11 q 125 26 161 -11 q 90 132 90 62 q 102 228 90 175 l 186 580 l 85 580 l 93 614 q 156 632 133 619 q 196 665 180 644 q 225 719 212 686 q 259 816 239 752 l 353 816 l 315 648 l 530 648 l 515 580 l 300 580 l 235 317 q 208 153 208 207 q 225 90 208 111 q 278 68 243 68 q 343 93 309 68 q 418 165 378 117 l 458 125 m 699 970 q 700 937 700 964 q 691 857 700 890 q 664 796 682 823 q 618 744 646 770 q 536 676 590 718 l 505 718 q 561 784 541 749 q 589 863 581 820 q 597 970 597 907 l 699 970 z "},"ț":{"ha":479,"x_min":-13,"x_max":530,"o":"m 458 125 q 348 23 402 58 q 233 -11 294 -11 q 125 26 161 -11 q 90 132 90 62 q 102 228 90 175 l 186 580 l 85 580 l 93 614 q 156 632 133 619 q 196 665 180 644 q 225 719 212 686 q 259 816 239 752 l 353 816 l 315 648 l 530 648 l 515 580 l 300 580 l 235 317 q 208 153 208 207 q 225 90 208 111 q 278 68 243 68 q 343 93 309 68 q 418 165 378 117 l 458 125 m 230 -67 q 231 -78 231 -73 l 231 -88 q 168 -230 231 -177 q -13 -292 104 -283 l -13 -240 q 71 -214 39 -236 q 117 -157 103 -192 q 132 -67 131 -123 l 230 -67 z "},"ŧ":{"ha":498,"x_min":41,"x_max":543,"o":"m 470 125 q 360 23 414 58 q 245 -11 306 -11 q 138 26 173 -11 q 102 132 102 62 q 115 228 102 175 l 136 319 l 41 319 l 54 378 l 151 378 l 199 580 l 98 580 l 105 614 q 169 632 145 619 q 208 665 192 644 q 237 719 224 686 q 271 816 251 752 l 365 816 l 328 648 l 543 648 l 528 580 l 312 580 l 262 378 l 433 378 l 420 319 l 247 319 l 247 317 q 220 153 220 207 q 238 90 220 111 q 290 68 256 68 q 356 93 321 68 q 431 165 390 117 l 470 125 z "},"ù":{"ha":743,"x_min":90,"x_max":684,"o":"m 104 648 l 317 648 l 231 303 q 215 228 222 265 q 208 159 208 190 q 224 90 208 111 q 276 68 241 68 q 339 91 305 68 q 411 162 373 114 q 471 252 449 210 q 505 354 493 295 l 567 648 l 684 648 l 581 185 q 572 137 577 167 q 566 88 566 107 q 582 48 566 60 q 642 33 598 36 l 634 0 l 440 0 l 484 170 l 475 173 q 348 34 409 79 q 224 -11 286 -11 q 124 25 158 -11 q 90 133 90 62 q 94 181 90 153 q 104 238 98 208 l 161 479 q 171 526 168 509 q 173 556 173 544 q 157 599 173 587 q 98 614 140 611 l 104 648 m 425 978 l 515 755 l 467 726 l 308 944 l 315 978 l 425 978 z "},"ú":{"ha":743,"x_min":90,"x_max":686,"o":"m 104 648 l 317 648 l 231 303 q 215 228 222 265 q 208 159 208 190 q 224 90 208 111 q 276 68 241 68 q 339 91 305 68 q 411 162 373 114 q 471 252 449 210 q 505 354 493 295 l 567 648 l 684 648 l 581 185 q 572 137 577 167 q 566 88 566 107 q 582 48 566 60 q 642 33 598 36 l 634 0 l 440 0 l 484 170 l 475 173 q 348 34 409 79 q 224 -11 286 -11 q 124 25 158 -11 q 90 133 90 62 q 94 181 90 153 q 104 238 98 208 l 161 479 q 171 526 168 509 q 173 556 173 544 q 157 599 173 587 q 98 614 140 611 l 104 648 m 686 978 l 678 944 l 425 726 l 382 766 l 561 978 l 686 978 z "},"û":{"ha":743,"x_min":90,"x_max":684,"o":"m 104 648 l 317 648 l 231 303 q 215 228 222 265 q 208 159 208 190 q 224 90 208 111 q 276 68 241 68 q 339 91 305 68 q 411 162 373 114 q 471 252 449 210 q 505 354 493 295 l 567 648 l 684 648 l 581 185 q 572 137 577 167 q 566 88 566 107 q 582 48 566 60 q 642 33 598 36 l 634 0 l 440 0 l 484 170 l 475 173 q 348 34 409 79 q 224 -11 286 -11 q 124 25 158 -11 q 90 133 90 62 q 94 181 90 153 q 104 238 98 208 l 161 479 q 171 526 168 509 q 173 556 173 544 q 157 599 173 587 q 98 614 140 611 l 104 648 m 562 971 l 651 743 l 597 719 l 504 884 l 497 884 l 323 719 l 281 758 l 469 971 l 562 971 z "},"ũ":{"ha":743,"x_min":90,"x_max":711,"o":"m 104 648 l 317 648 l 231 303 q 215 228 222 265 q 208 159 208 190 q 224 90 208 111 q 276 68 241 68 q 339 91 305 68 q 411 162 373 114 q 471 252 449 210 q 505 354 493 295 l 567 648 l 684 648 l 581 185 q 572 137 577 167 q 566 88 566 107 q 582 48 566 60 q 642 33 598 36 l 634 0 l 440 0 l 484 170 l 475 173 q 348 34 409 79 q 224 -11 286 -11 q 124 25 158 -11 q 90 133 90 62 q 94 181 90 153 q 104 238 98 208 l 161 479 q 171 526 168 509 q 173 556 173 544 q 157 599 173 587 q 98 614 140 611 l 104 648 m 665 926 l 711 893 q 651 814 677 842 q 604 776 625 787 q 555 765 582 765 q 527 769 540 765 q 503 780 514 773 q 469 806 492 787 q 440 828 449 822 q 423 837 431 834 q 406 840 415 840 q 376 834 389 840 q 346 810 362 827 q 309 765 330 793 l 262 797 q 325 880 303 856 q 369 915 347 903 q 421 926 391 926 q 441 923 432 926 q 459 917 450 921 q 475 908 468 913 q 501 888 481 903 q 542 858 529 865 q 569 850 555 850 q 598 857 585 850 q 628 880 612 864 q 665 926 644 897 z "},"ü":{"ha":743,"x_min":90,"x_max":684,"o":"m 104 648 l 317 648 l 231 303 q 215 228 222 265 q 208 159 208 190 q 224 90 208 111 q 276 68 241 68 q 339 91 305 68 q 411 162 373 114 q 471 252 449 210 q 505 354 493 295 l 567 648 l 684 648 l 581 185 q 572 137 577 167 q 566 88 566 107 q 582 48 566 60 q 642 33 598 36 l 634 0 l 440 0 l 484 170 l 475 173 q 348 34 409 79 q 224 -11 286 -11 q 124 25 158 -11 q 90 133 90 62 q 94 181 90 153 q 104 238 98 208 l 161 479 q 171 526 168 509 q 173 556 173 544 q 157 599 173 587 q 98 614 140 611 l 104 648 m 665 908 l 640 789 l 528 789 l 553 908 l 665 908 m 447 908 l 421 789 l 309 789 l 335 908 l 447 908 z "},"ū":{"ha":743,"x_min":90,"x_max":684,"o":"m 104 648 l 317 648 l 231 303 q 215 228 222 265 q 208 159 208 190 q 224 90 208 111 q 276 68 241 68 q 339 91 305 68 q 411 162 373 114 q 471 252 449 210 q 505 354 493 295 l 567 648 l 684 648 l 581 185 q 572 137 577 167 q 566 88 566 107 q 582 48 566 60 q 642 33 598 36 l 634 0 l 440 0 l 484 170 l 475 173 q 348 34 409 79 q 224 -11 286 -11 q 124 25 158 -11 q 90 133 90 62 q 94 181 90 153 q 104 238 98 208 l 161 479 q 171 526 168 509 q 173 556 173 544 q 157 599 173 587 q 98 614 140 611 l 104 648 m 648 806 l 309 806 l 326 890 l 666 890 l 648 806 z "},"ŭ":{"ha":743,"x_min":90,"x_max":705,"o":"m 104 648 l 317 648 l 231 303 q 215 228 222 265 q 208 159 208 190 q 224 90 208 111 q 276 68 241 68 q 339 91 305 68 q 411 162 373 114 q 471 252 449 210 q 505 354 493 295 l 567 648 l 684 648 l 581 185 q 572 137 577 167 q 566 88 566 107 q 582 48 566 60 q 642 33 598 36 l 634 0 l 440 0 l 484 170 l 475 173 q 348 34 409 79 q 224 -11 286 -11 q 124 25 158 -11 q 90 133 90 62 q 94 181 90 153 q 104 238 98 208 l 161 479 q 171 526 168 509 q 173 556 173 544 q 157 599 173 587 q 98 614 140 611 l 104 648 m 705 928 q 626 824 665 862 q 545 771 586 787 q 452 755 504 755 q 347 807 384 755 q 309 953 309 859 l 364 963 q 468 841 372 841 q 536 851 507 841 q 594 886 565 861 q 656 957 623 911 l 705 928 z "},"ů":{"ha":743,"x_min":90,"x_max":684,"o":"m 104 648 l 317 648 l 231 303 q 215 228 222 265 q 208 159 208 190 q 224 90 208 111 q 276 68 241 68 q 339 91 305 68 q 411 162 373 114 q 471 252 449 210 q 505 354 493 295 l 567 648 l 684 648 l 581 185 q 572 137 577 167 q 566 88 566 107 q 582 48 566 60 q 642 33 598 36 l 634 0 l 440 0 l 484 170 l 475 173 q 348 34 409 79 q 224 -11 286 -11 q 124 25 158 -11 q 90 133 90 62 q 94 181 90 153 q 104 238 98 208 l 161 479 q 171 526 168 509 q 173 556 173 544 q 157 599 173 587 q 98 614 140 611 l 104 648 m 460 726 q 371 752 402 726 q 339 827 339 779 q 350 890 339 858 q 387 948 361 923 q 446 985 412 972 q 519 998 480 998 q 611 972 580 998 q 642 897 642 946 q 621 812 642 852 q 558 749 600 771 q 460 726 517 726 m 408 831 q 422 785 408 802 q 468 768 437 768 q 525 788 500 768 q 561 837 549 807 q 573 895 573 867 q 557 940 573 924 q 513 956 542 956 q 460 939 484 956 q 421 893 435 922 q 408 831 408 864 z "},"ű":{"ha":743,"x_min":90,"x_max":779,"o":"m 104 648 l 317 648 l 231 303 q 215 228 222 265 q 208 159 208 190 q 224 90 208 111 q 276 68 241 68 q 339 91 305 68 q 411 162 373 114 q 471 252 449 210 q 505 354 493 295 l 567 648 l 684 648 l 581 185 q 572 137 577 167 q 566 88 566 107 q 582 48 566 60 q 642 33 598 36 l 634 0 l 440 0 l 484 170 l 475 173 q 348 34 409 79 q 224 -11 286 -11 q 124 25 158 -11 q 90 133 90 62 q 94 181 90 153 q 104 238 98 208 l 161 479 q 171 526 168 509 q 173 556 173 544 q 157 599 173 587 q 98 614 140 611 l 104 648 m 779 978 l 772 944 l 534 726 l 494 761 l 687 978 l 779 978 m 572 978 l 565 944 l 327 726 l 288 761 l 480 978 l 572 978 z "},"ų":{"ha":743,"x_min":90,"x_max":684,"o":"m 104 648 l 317 648 l 231 303 q 215 228 222 265 q 208 159 208 190 q 224 90 208 111 q 276 68 241 68 q 339 91 305 68 q 411 162 373 114 q 471 252 449 210 q 505 354 493 295 l 567 648 l 684 648 l 581 185 q 572 137 577 167 q 566 88 566 107 q 582 48 566 60 q 642 33 598 36 l 634 0 l 576 0 q 470 -98 500 -58 q 440 -173 440 -138 q 454 -218 440 -205 q 496 -231 467 -231 q 537 -223 518 -231 q 572 -208 557 -216 l 583 -254 q 526 -281 558 -271 q 468 -292 494 -292 q 380 -266 409 -292 q 351 -185 351 -239 q 392 -93 351 -140 q 511 0 433 -45 l 440 0 l 484 170 l 475 173 q 348 34 409 79 q 224 -11 286 -11 q 124 25 158 -11 q 90 133 90 62 q 94 181 90 153 q 104 238 98 208 l 161 479 q 171 526 168 509 q 173 556 173 544 q 157 599 173 587 q 98 614 140 611 l 104 648 z "},"ẁ":{"ha":1010,"x_min":52,"x_max":1021,"o":"m 664 113 q 825 375 770 263 q 880 558 880 488 q 867 602 880 590 q 821 615 853 613 l 827 648 l 1002 648 l 1021 614 q 983 522 997 554 q 945 443 968 489 q 897 352 922 397 q 836 252 871 307 q 758 133 801 197 q 655 -11 714 69 l 574 -11 l 547 273 q 539 359 543 306 q 534 442 536 413 l 527 443 q 427 242 490 353 q 271 -11 364 132 l 180 -11 l 129 500 q 119 564 125 539 q 98 600 113 588 q 52 615 84 612 l 59 648 l 237 648 l 277 113 q 415 351 373 269 q 478 491 458 432 q 509 615 498 551 l 517 648 l 614 648 l 664 113 m 593 978 l 683 755 l 635 726 l 475 944 l 483 978 l 593 978 z "},"ẃ":{"ha":1010,"x_min":52,"x_max":1021,"o":"m 664 113 q 825 375 770 263 q 880 558 880 488 q 867 602 880 590 q 821 615 853 613 l 827 648 l 1002 648 l 1021 614 q 983 522 997 554 q 945 443 968 489 q 897 352 922 397 q 836 252 871 307 q 758 133 801 197 q 655 -11 714 69 l 574 -11 l 547 273 q 539 359 543 306 q 534 442 536 413 l 527 443 q 427 242 490 353 q 271 -11 364 132 l 180 -11 l 129 500 q 119 564 125 539 q 98 600 113 588 q 52 615 84 612 l 59 648 l 237 648 l 277 113 q 415 351 373 269 q 478 491 458 432 q 509 615 498 551 l 517 648 l 614 648 l 664 113 m 819 978 l 812 944 l 558 726 l 516 766 l 694 978 l 819 978 z "},"ŵ":{"ha":1010,"x_min":52,"x_max":1021,"o":"m 664 113 q 825 375 770 263 q 880 558 880 488 q 867 602 880 590 q 821 615 853 613 l 827 648 l 1002 648 l 1021 614 q 983 522 997 554 q 945 443 968 489 q 897 352 922 397 q 836 252 871 307 q 758 133 801 197 q 655 -11 714 69 l 574 -11 l 547 273 q 539 359 543 306 q 534 442 536 413 l 527 443 q 427 242 490 353 q 271 -11 364 132 l 180 -11 l 129 500 q 119 564 125 539 q 98 600 113 588 q 52 615 84 612 l 59 648 l 237 648 l 277 113 q 415 351 373 269 q 478 491 458 432 q 509 615 498 551 l 517 648 l 614 648 l 664 113 m 695 971 l 785 743 l 731 719 l 637 884 l 631 884 l 457 719 l 415 758 l 603 971 l 695 971 z "},"ẅ":{"ha":1010,"x_min":52,"x_max":1021,"o":"m 664 113 q 825 375 770 263 q 880 558 880 488 q 867 602 880 590 q 821 615 853 613 l 827 648 l 1002 648 l 1021 614 q 983 522 997 554 q 945 443 968 489 q 897 352 922 397 q 836 252 871 307 q 758 133 801 197 q 655 -11 714 69 l 574 -11 l 547 273 q 539 359 543 306 q 534 442 536 413 l 527 443 q 427 242 490 353 q 271 -11 364 132 l 180 -11 l 129 500 q 119 564 125 539 q 98 600 113 588 q 52 615 84 612 l 59 648 l 237 648 l 277 113 q 415 351 373 269 q 478 491 458 432 q 509 615 498 551 l 517 648 l 614 648 l 664 113 m 799 908 l 773 789 l 661 789 l 687 908 l 799 908 m 581 908 l 555 789 l 443 789 l 469 908 l 581 908 z "},"ỳ":{"ha":639,"x_min":-171,"x_max":652,"o":"m 125 500 q 113 572 119 552 q 93 603 106 592 q 49 615 79 613 l 56 648 l 231 648 l 282 109 q 511 558 511 422 q 498 602 511 590 q 452 615 484 613 l 458 648 l 633 648 l 652 614 q 560 419 616 520 q 423 198 504 318 q 243 -52 342 78 q 115 -202 167 -151 q 42 -261 75 -241 q -23 -289 8 -281 q -90 -298 -55 -298 q -132 -294 -109 -298 q -171 -284 -155 -290 l -142 -157 l -89 -157 q -78 -194 -88 -180 q -48 -208 -68 -208 q -11 -203 -26 -208 q 22 -189 5 -199 q 64 -156 39 -178 q 120 -97 89 -134 q 190 -7 151 -60 l 125 500 m 347 978 l 437 755 l 389 726 l 229 944 l 237 978 l 347 978 z "},"ý":{"ha":639,"x_min":-171,"x_max":652,"o":"m 125 500 q 113 572 119 552 q 93 603 106 592 q 49 615 79 613 l 56 648 l 231 648 l 282 109 q 511 558 511 422 q 498 602 511 590 q 452 615 484 613 l 458 648 l 633 648 l 652 614 q 560 419 616 520 q 423 198 504 318 q 243 -52 342 78 q 115 -202 167 -151 q 42 -261 75 -241 q -23 -289 8 -281 q -90 -298 -55 -298 q -132 -294 -109 -298 q -171 -284 -155 -290 l -142 -157 l -89 -157 q -78 -194 -88 -180 q -48 -208 -68 -208 q -11 -203 -26 -208 q 22 -189 5 -199 q 64 -156 39 -178 q 120 -97 89 -134 q 190 -7 151 -60 l 125 500 m 623 978 l 616 944 l 362 726 l 320 766 l 498 978 l 623 978 z "},"ŷ":{"ha":639,"x_min":-171,"x_max":652,"o":"m 125 500 q 113 572 119 552 q 93 603 106 592 q 49 615 79 613 l 56 648 l 231 648 l 282 109 q 511 558 511 422 q 498 602 511 590 q 452 615 484 613 l 458 648 l 633 648 l 652 614 q 560 419 616 520 q 423 198 504 318 q 243 -52 342 78 q 115 -202 167 -151 q 42 -261 75 -241 q -23 -289 8 -281 q -90 -298 -55 -298 q -132 -294 -109 -298 q -171 -284 -155 -290 l -142 -157 l -89 -157 q -78 -194 -88 -180 q -48 -208 -68 -208 q -11 -203 -26 -208 q 22 -189 5 -199 q 64 -156 39 -178 q 120 -97 89 -134 q 190 -7 151 -60 l 125 500 m 499 971 l 589 743 l 535 719 l 441 884 l 435 884 l 261 719 l 219 758 l 407 971 l 499 971 z "},"ÿ":{"ha":639,"x_min":-171,"x_max":652,"o":"m 125 500 q 113 572 119 552 q 93 603 106 592 q 49 615 79 613 l 56 648 l 231 648 l 282 109 q 511 558 511 422 q 498 602 511 590 q 452 615 484 613 l 458 648 l 633 648 l 652 614 q 560 419 616 520 q 423 198 504 318 q 243 -52 342 78 q 115 -202 167 -151 q 42 -261 75 -241 q -23 -289 8 -281 q -90 -298 -55 -298 q -132 -294 -109 -298 q -171 -284 -155 -290 l -142 -157 l -89 -157 q -78 -194 -88 -180 q -48 -208 -68 -208 q -11 -203 -26 -208 q 22 -189 5 -199 q 64 -156 39 -178 q 120 -97 89 -134 q 190 -7 151 -60 l 125 500 m 603 908 l 577 789 l 465 789 l 491 908 l 603 908 m 385 908 l 359 789 l 247 789 l 273 908 l 385 908 z "},"ź":{"ha":625,"x_min":-5,"x_max":633,"o":"m 541 191 l 499 0 l 8 0 l -5 33 l 366 460 q 481 589 445 551 l 477 593 l 319 593 q 267 589 283 593 q 235 572 251 584 q 200 537 218 560 q 158 470 181 513 l 98 470 l 138 648 l 620 648 l 633 614 l 146 60 l 150 55 l 303 55 q 366 59 344 55 q 404 76 387 64 q 437 113 420 88 q 480 191 454 138 l 541 191 m 626 978 l 618 944 l 365 726 l 323 766 l 501 978 l 626 978 z "},"ž":{"ha":625,"x_min":-5,"x_max":635,"o":"m 541 191 l 499 0 l 8 0 l -5 33 l 366 460 q 481 589 445 551 l 477 593 l 319 593 q 267 589 283 593 q 235 572 251 584 q 200 537 218 560 q 158 470 181 513 l 98 470 l 138 648 l 620 648 l 633 614 l 146 60 l 150 55 l 303 55 q 366 59 344 55 q 404 76 387 64 q 437 113 420 88 q 480 191 454 138 l 541 191 m 355 732 l 266 960 l 319 985 l 412 820 l 419 820 l 593 985 l 635 946 l 447 732 l 355 732 z "},"ż":{"ha":625,"x_min":-5,"x_max":633,"o":"m 541 191 l 499 0 l 8 0 l -5 33 l 366 460 q 481 589 445 551 l 477 593 l 319 593 q 267 589 283 593 q 235 572 251 584 q 200 537 218 560 q 158 470 181 513 l 98 470 l 138 648 l 620 648 l 633 614 l 146 60 l 150 55 l 303 55 q 366 59 344 55 q 404 76 387 64 q 437 113 420 88 q 480 191 454 138 l 541 191 m 503 914 l 472 783 l 352 783 l 383 914 l 503 914 z "},"ŋ":{"ha":739,"x_min":59,"x_max":653,"o":"m 512 345 q 529 422 522 385 q 536 490 536 459 q 519 559 536 538 q 467 580 503 580 q 406 558 439 580 q 337 492 373 536 q 276 403 301 448 q 238 294 252 358 l 176 0 l 59 0 l 162 463 q 171 509 165 479 q 177 560 177 540 q 171 590 177 579 q 152 605 165 600 q 104 612 138 610 l 113 648 l 267 654 l 305 654 l 260 478 l 268 475 q 396 614 334 569 q 519 659 458 659 q 619 623 585 659 q 653 515 653 587 q 650 475 653 499 q 639 411 647 452 l 543 -24 q 445 -232 511 -166 q 275 -298 380 -298 q 222 -295 250 -298 q 171 -286 195 -292 l 197 -165 l 248 -165 q 256 -205 250 -190 q 270 -230 262 -221 q 288 -241 277 -238 q 310 -245 298 -245 q 347 -234 331 -245 q 375 -200 362 -223 q 399 -139 388 -176 q 422 -47 410 -101 l 512 345 z "},"ð":{"ha":707,"x_min":55,"x_max":694,"o":"m 262 768 l 437 852 q 387 889 410 875 q 332 918 363 903 l 353 973 q 511 888 441 941 l 667 964 l 694 910 l 555 844 q 593 797 576 822 q 624 738 610 772 q 647 667 639 703 q 659 594 656 630 q 661 530 661 558 q 638 335 661 444 q 569 150 615 226 q 449 31 522 73 q 276 -11 375 -11 q 154 17 204 -11 q 80 97 104 45 q 55 217 55 148 q 69 329 55 267 q 107 440 83 391 q 163 525 131 488 q 234 585 195 561 q 316 620 273 608 q 409 632 360 632 q 493 619 458 632 q 554 577 528 606 l 564 582 q 479 806 556 715 l 288 713 l 262 768 m 174 185 q 203 77 174 112 q 296 43 233 43 q 389 74 347 43 q 459 163 430 105 q 506 299 489 222 q 524 431 524 377 q 494 542 524 505 q 406 578 465 578 q 314 548 355 578 q 242 458 273 517 q 192 321 211 400 q 174 185 174 242 m 425 659 z "},"þ":{"ha":724,"x_min":-14,"x_max":667,"o":"m 137 -120 q 129 -170 130 -153 q 127 -199 127 -188 q 134 -231 127 -220 q 155 -249 140 -243 q 201 -258 169 -255 l 196 -292 l -14 -292 l 228 775 q 238 824 232 792 q 243 876 243 856 q 226 916 243 904 q 164 928 209 927 l 172 964 l 344 970 l 383 970 l 264 495 l 273 492 q 395 620 338 580 q 511 659 452 659 q 626 603 585 659 q 667 444 667 547 q 647 297 667 371 q 592 163 627 223 q 512 65 556 104 q 420 8 469 27 q 318 -11 372 -11 q 168 28 228 -11 l 137 -120 m 218 236 q 210 181 212 200 q 208 144 208 162 q 231 67 208 91 q 309 43 254 43 q 373 56 344 43 q 428 96 402 70 q 475 158 454 121 q 513 243 496 195 q 538 343 530 292 q 547 439 547 394 q 527 545 547 510 q 463 580 507 580 q 395 556 429 580 q 321 481 361 533 q 259 380 281 430 q 224 264 237 330 l 218 236 z "},"ⁱ":{"ha":298,"x_min":158,"x_max":378,"o":"m 378 1165 l 357 1071 l 267 1071 l 288 1165 l 378 1165 m 269 670 q 264 643 265 652 q 262 624 262 633 q 274 602 262 608 q 316 593 285 595 l 309 562 l 158 562 l 226 869 q 235 928 235 909 q 222 949 235 943 q 182 956 209 955 l 188 988 l 304 994 l 339 994 l 269 670 z "},"ⁿ":{"ha":555,"x_min":158,"x_max":573,"o":"m 300 994 l 334 994 l 307 890 l 313 888 q 397 971 359 945 q 477 997 435 997 q 549 973 526 997 q 573 903 573 949 q 562 829 573 880 l 526 670 q 521 644 523 654 q 519 625 519 633 q 524 607 519 613 q 541 597 529 601 q 573 593 552 594 l 566 562 l 412 562 l 471 805 q 481 851 477 830 q 485 890 485 872 q 474 925 485 913 q 442 937 463 937 q 393 921 416 937 q 346 879 369 905 q 310 826 323 852 q 290 770 296 801 l 248 562 l 158 562 l 230 889 q 232 903 231 897 q 234 916 233 909 q 235 928 235 923 q 222 948 235 943 q 182 956 210 954 l 188 988 l 300 994 z "},"ﬀ":{"ha":812,"x_min":-182,"x_max":1041,"o":"m 172 -12 q 109 -184 149 -120 q 11 -275 68 -248 q -129 -303 -47 -303 q -182 -296 -159 -303 l -167 -237 q -119 -242 -151 -242 q -61 -233 -83 -242 q -19 -202 -38 -223 q 18 -139 1 -180 q 51 -31 35 -98 l 189 580 l 106 580 l 115 614 q 161 624 148 618 q 183 639 175 629 q 199 667 192 649 q 218 729 205 685 q 329 912 254 851 q 520 974 404 974 q 635 963 587 974 l 608 848 l 549 848 q 524 903 539 886 q 479 920 509 920 q 413 899 440 920 q 367 836 386 878 q 331 722 347 793 l 314 648 l 596 648 q 610 681 603 659 l 625 729 q 735 912 661 851 q 926 974 810 974 q 1041 963 993 974 l 1015 848 l 955 848 q 930 903 945 886 q 885 920 915 920 q 819 899 846 920 q 773 836 792 878 q 737 722 753 793 l 720 648 l 876 648 l 861 580 l 705 580 l 578 -12 q 515 -184 555 -120 q 417 -275 475 -248 q 277 -303 359 -303 q 224 -296 248 -303 l 239 -237 q 287 -242 256 -242 q 346 -233 323 -242 q 388 -202 368 -223 q 424 -139 407 -180 q 457 -31 441 -98 l 595 580 l 298 580 l 172 -12 z "},"ﬁ":{"ha":783,"x_min":-182,"x_max":786,"o":"m 172 -12 q 109 -184 149 -120 q 11 -275 68 -248 q -129 -303 -47 -303 q -182 -296 -159 -303 l -167 -237 q -119 -242 -151 -242 q -61 -233 -83 -242 q -19 -202 -38 -223 q 18 -139 1 -180 q 51 -31 35 -98 l 189 580 l 106 580 l 115 614 q 161 624 148 618 q 183 639 175 629 q 199 667 192 649 q 218 729 205 685 q 327 912 254 851 q 511 974 399 974 q 593 967 558 974 l 566 848 l 511 848 q 497 899 511 882 q 459 917 483 917 q 387 877 416 917 q 332 726 358 837 l 314 648 l 469 648 l 454 580 l 298 580 l 172 -12 m 786 914 l 755 783 l 635 783 l 666 914 l 786 914 m 618 170 q 609 119 611 135 q 607 92 607 103 q 614 60 607 72 q 635 43 621 49 q 682 33 649 37 l 675 0 l 465 0 l 568 457 q 580 520 576 496 q 583 559 583 543 q 577 589 583 578 q 558 606 572 600 q 511 612 545 611 l 519 648 l 684 654 l 724 654 l 618 170 z "},"ﬃ":{"ha":1162,"x_min":-182,"x_max":1165,"o":"m 172 -12 q 109 -184 149 -120 q 11 -275 68 -248 q -129 -303 -47 -303 q -182 -296 -159 -303 l -167 -237 q -119 -242 -151 -242 q -61 -233 -83 -242 q -19 -202 -38 -223 q 18 -139 1 -180 q 51 -31 35 -98 l 189 580 l 106 580 l 115 614 q 161 624 148 618 q 183 639 175 629 q 199 667 192 649 q 218 729 205 685 q 329 912 254 851 q 520 974 404 974 q 635 963 587 974 l 608 848 l 549 848 q 524 903 539 886 q 479 920 509 920 q 413 899 440 920 q 367 836 386 878 q 331 722 347 793 l 314 648 l 569 648 q 583 681 576 659 l 597 729 q 706 912 633 851 q 890 974 778 974 q 972 967 937 974 l 945 848 l 890 848 q 876 899 890 882 q 838 917 862 917 q 766 877 795 917 q 711 726 737 837 l 693 648 l 848 648 l 833 580 l 677 580 l 551 -12 q 488 -184 528 -120 q 390 -275 448 -248 q 250 -303 332 -303 q 197 -296 220 -303 l 212 -237 q 260 -242 229 -242 q 318 -233 296 -242 q 360 -202 341 -223 q 397 -139 380 -180 q 430 -31 414 -98 l 568 580 l 298 580 l 172 -12 m 1165 914 l 1134 783 l 1014 783 l 1045 914 l 1165 914 m 998 170 q 988 119 990 135 q 986 92 986 103 q 993 60 986 72 q 1014 43 1000 49 q 1061 33 1028 37 l 1055 0 l 844 0 l 947 457 q 959 520 956 496 q 962 559 962 543 q 957 589 962 578 q 937 606 951 600 q 890 612 924 611 l 898 648 l 1063 654 l 1103 654 l 998 170 z "},"ﬂ":{"ha":777,"x_min":-182,"x_max":789,"o":"m 172 -12 q 109 -184 149 -120 q 11 -275 68 -248 q -129 -303 -47 -303 q -182 -296 -159 -303 l -167 -237 q -119 -242 -151 -242 q -61 -233 -83 -242 q -19 -202 -38 -223 q 18 -139 1 -180 q 51 -31 35 -98 l 189 580 l 106 580 l 115 614 q 161 624 148 618 q 183 639 175 629 q 199 667 192 649 q 218 729 205 685 q 327 912 254 851 q 511 974 399 974 q 593 967 558 974 l 593 964 l 749 970 l 789 970 l 612 170 q 603 120 605 137 q 601 92 601 104 q 608 60 601 72 q 629 43 614 49 q 675 33 643 37 l 670 0 l 458 0 l 633 779 q 643 823 640 808 q 647 852 646 838 q 648 876 648 865 q 635 913 648 903 q 584 927 621 924 l 566 848 l 511 848 q 497 899 511 882 q 459 917 483 917 q 387 877 416 917 q 332 726 358 837 l 314 648 l 469 648 l 454 580 l 298 580 l 172 -12 z "},"ﬄ":{"ha":1156,"x_min":-182,"x_max":1168,"o":"m 172 -12 q 109 -184 149 -120 q 11 -275 68 -248 q -129 -303 -47 -303 q -182 -296 -159 -303 l -167 -237 q -119 -242 -151 -242 q -61 -233 -83 -242 q -19 -202 -38 -223 q 18 -139 1 -180 q 51 -31 35 -98 l 189 580 l 106 580 l 115 614 q 161 624 148 618 q 183 639 175 629 q 199 667 192 649 q 218 729 205 685 q 329 912 254 851 q 520 974 404 974 q 635 963 587 974 l 608 848 l 549 848 q 524 903 539 886 q 479 920 509 920 q 413 899 440 920 q 367 836 386 878 q 331 722 347 793 l 314 648 l 569 648 q 583 681 576 659 l 597 729 q 707 912 633 851 q 892 974 780 974 q 979 966 941 974 l 979 964 l 1128 970 l 1168 970 l 991 170 q 982 120 984 137 q 980 92 980 104 q 987 60 980 72 q 1008 43 994 49 q 1055 33 1022 37 l 1049 0 l 838 0 l 1013 779 q 1022 823 1019 808 q 1026 852 1025 838 q 1027 876 1027 865 q 1016 911 1027 900 q 970 926 1004 923 l 952 848 l 894 848 q 880 898 894 880 q 840 917 865 917 q 766 876 796 917 q 715 743 736 834 l 693 648 l 848 648 l 833 580 l 677 580 l 551 -12 q 488 -184 528 -120 q 390 -275 448 -248 q 250 -303 332 -303 q 197 -296 220 -303 l 212 -237 q 260 -242 229 -242 q 318 -233 296 -242 q 360 -202 341 -223 q 397 -139 380 -180 q 430 -31 414 -98 l 568 580 l 298 580 l 172 -12 z "},"&":{"ha":916,"x_min":35,"x_max":876,"o":"m 541 94 q 395 15 467 41 q 248 -11 323 -11 q 132 15 180 -11 q 59 84 83 40 q 35 181 35 127 q 64 298 35 244 q 153 400 94 352 q 310 501 212 448 q 278 587 289 545 q 268 676 268 630 q 305 808 268 747 q 407 903 342 869 q 551 937 472 937 q 689 898 640 937 q 739 791 739 860 q 707 685 739 732 q 618 596 676 637 q 438 494 561 555 q 511 362 460 450 q 598 220 562 273 q 697 333 663 278 q 730 432 730 387 q 679 481 730 477 l 686 515 l 849 515 l 865 481 q 775 320 836 400 q 631 169 715 239 q 674 108 656 129 q 709 78 692 87 q 747 70 726 70 q 798 78 775 70 q 850 106 821 86 l 876 60 q 778 4 820 20 q 692 -11 736 -11 q 611 12 646 -11 q 541 94 577 35 m 412 546 q 541 622 493 586 q 609 694 588 657 q 631 776 631 731 q 607 852 631 826 q 538 879 583 879 q 454 854 490 879 q 398 785 418 829 q 379 688 379 742 q 388 613 379 648 q 412 546 397 578 m 336 446 q 235 374 273 408 q 177 301 198 341 q 155 213 155 260 q 175 129 155 162 q 227 82 195 96 q 298 67 258 67 q 365 76 334 67 q 428 99 397 84 q 507 146 458 114 q 427 280 479 187 q 336 446 374 374 z "},"`":{"ha":376,"x_min":176,"x_max":384,"o":"m 294 978 l 384 755 l 336 726 l 176 944 l 184 978 l 294 978 z "},"̀":{"ha":0,"x_min":-224,"x_max":-16,"o":"m -106 978 l -16 755 l -64 726 l -224 944 l -216 978 l -106 978 z "},"´":{"ha":376,"x_min":181,"x_max":484,"o":"m 484 978 l 477 944 l 223 726 l 181 766 l 359 978 l 484 978 z "},"́":{"ha":0,"x_min":-219,"x_max":84,"o":"m 84 978 l 77 944 l -177 726 l -219 766 l -41 978 l 84 978 z "},"ˆ":{"ha":376,"x_min":100,"x_max":469,"o":"m 380 971 l 469 743 l 416 719 l 322 884 l 315 884 l 142 719 l 100 758 l 288 971 l 380 971 z "},"̂":{"ha":0,"x_min":-300,"x_max":69,"o":"m -20 971 l 69 743 l 16 719 l -78 884 l -85 884 l -258 719 l -300 758 l -113 971 l -20 971 z "},"ˇ":{"ha":376,"x_min":138,"x_max":507,"o":"m 227 732 l 138 960 l 191 985 l 284 820 l 291 820 l 465 985 l 507 946 l 319 732 l 227 732 z "},"̌":{"ha":0,"x_min":-262,"x_max":107,"o":"m -173 732 l -262 960 l -210 985 l -116 820 l -109 820 l 64 985 l 107 946 l -81 732 l -173 732 z "},"̕":{"ha":376,"x_min":160,"x_max":370,"o":"m 369 970 q 370 937 370 964 q 360 855 370 890 q 331 793 351 821 q 282 738 312 765 q 192 667 252 711 l 160 709 q 238 814 212 751 q 264 970 264 876 l 369 970 z "},"˜":{"ha":376,"x_min":77,"x_max":527,"o":"m 480 926 l 527 893 q 467 814 493 842 q 419 776 441 787 q 371 765 397 765 q 342 769 355 765 q 318 780 330 773 q 285 806 307 787 q 256 828 264 822 q 239 837 247 834 q 222 840 231 840 q 191 834 205 840 q 161 810 178 827 q 125 765 145 793 l 77 797 q 140 880 119 856 q 184 915 162 903 q 237 926 206 926 q 257 923 248 926 q 275 917 266 921 q 290 908 283 913 q 317 888 297 903 q 358 858 345 865 q 385 850 371 850 q 414 857 400 850 q 444 880 427 864 q 480 926 460 897 z "},"̃":{"ha":0,"x_min":-323,"x_max":127,"o":"m 80 926 l 127 893 q 67 814 93 842 q 19 776 41 787 q -29 765 -3 765 q -58 769 -45 765 q -82 780 -71 773 q -115 806 -93 787 q -144 828 -136 822 q -161 837 -153 834 q -178 840 -170 840 q -209 834 -195 840 q -239 810 -222 827 q -275 765 -255 793 l -323 797 q -260 880 -281 856 q -216 915 -238 903 q -163 926 -194 926 q -143 923 -153 926 q -125 917 -134 921 q -110 908 -117 913 q -83 888 -103 903 q -42 858 -56 865 q -16 850 -29 850 q 14 857 0 850 q 43 880 27 864 q 80 926 60 897 z "},"¨":{"ha":376,"x_min":122,"x_max":478,"o":"m 478 908 l 452 789 l 340 789 l 366 908 l 478 908 m 260 908 l 234 789 l 122 789 l 148 908 l 260 908 z "},"̈":{"ha":0,"x_min":-278,"x_max":78,"o":"m 78 908 l 52 789 l -60 789 l -34 908 l 78 908 m -140 908 l -166 789 l -278 789 l -252 908 l -140 908 z "},"¯":{"ha":376,"x_min":123,"x_max":480,"o":"m 463 806 l 123 806 l 140 890 l 480 890 l 463 806 z "},"̄":{"ha":0,"x_min":-277,"x_max":80,"o":"m 62 806 l -277 806 l -260 890 l 80 890 l 62 806 z "},"˘":{"ha":376,"x_min":123,"x_max":518,"o":"m 518 928 q 439 824 479 862 q 358 771 399 787 q 266 755 317 755 q 160 807 197 755 q 123 953 123 859 l 178 963 q 281 841 186 841 q 350 851 321 841 q 408 886 378 861 q 470 957 437 911 l 518 928 z "},"̆":{"ha":0,"x_min":-277,"x_max":118,"o":"m 118 928 q 39 824 79 862 q -42 771 -1 787 q -134 755 -83 755 q -240 807 -203 755 q -277 953 -277 859 l -222 963 q -119 841 -214 841 q -51 851 -79 841 q 7 886 -22 861 q 70 957 37 911 l 118 928 z "},"˚":{"ha":376,"x_min":153,"x_max":456,"o":"m 275 726 q 185 752 216 726 q 153 827 153 779 q 164 890 153 858 q 201 948 176 923 q 260 985 226 972 q 333 998 294 998 q 425 972 394 998 q 456 897 456 946 q 435 812 456 852 q 372 749 414 771 q 275 726 331 726 m 222 831 q 236 785 222 802 q 282 768 251 768 q 339 788 315 768 q 375 837 363 807 q 387 895 387 867 q 372 940 387 924 q 328 956 356 956 q 274 939 298 956 q 236 893 250 922 q 222 831 222 864 z "},"̊":{"ha":0,"x_min":-247,"x_max":56,"o":"m -125 726 q -215 752 -184 726 q -247 827 -247 779 q -236 890 -247 858 q -199 948 -224 923 q -140 985 -174 972 q -67 998 -106 998 q 25 972 -6 998 q 56 897 56 946 q 35 812 56 852 q -28 749 14 771 q -125 726 -69 726 m -178 831 q -164 785 -178 802 q -118 768 -149 768 q -61 788 -85 768 q -25 837 -37 807 q -13 895 -13 867 q -28 940 -13 924 q -73 956 -44 956 q -126 939 -102 956 q -164 893 -151 922 q -178 831 -178 864 z "},"˝":{"ha":376,"x_min":85,"x_max":576,"o":"m 576 978 l 569 944 l 331 726 l 292 761 l 484 978 l 576 978 m 370 978 l 362 944 l 124 726 l 85 761 l 277 978 l 370 978 z "},"̋":{"ha":0,"x_min":-299,"x_max":193,"o":"m 193 978 l 185 944 l -53 726 l -92 761 l 100 978 l 193 978 m -14 978 l -22 944 l -260 726 l -299 761 l -106 978 l -14 978 z "},"˙":{"ha":376,"x_min":225,"x_max":376,"o":"m 376 914 l 345 783 l 225 783 l 256 914 l 376 914 z "},"̇":{"ha":0,"x_min":-175,"x_max":-24,"o":"m -24 914 l -55 783 l -175 783 l -144 914 l -24 914 z "},"¸":{"ha":376,"x_min":-86,"x_max":272,"o":"m 272 18 l 157 -59 q 159 -92 159 -68 q 95 -230 159 -177 q -86 -292 31 -282 l -86 -240 q 15 -201 -21 -235 q 52 -102 50 -167 l 56 -79 l 254 45 l 272 18 z "},"̧":{"ha":0,"x_min":-458,"x_max":-100,"o":"m -100 18 l -216 -59 q -213 -92 -213 -68 q -277 -230 -213 -177 q -458 -292 -341 -282 l -458 -240 q -358 -201 -393 -235 q -321 -102 -322 -167 l -316 -79 l -119 45 l -100 18 z "},"˛":{"ha":376,"x_min":-19,"x_max":216,"o":"m 216 7 q 105 -93 139 -50 q 71 -173 71 -135 q 84 -218 71 -205 q 126 -231 98 -231 q 168 -223 149 -231 q 202 -208 187 -216 l 213 -254 q 157 -281 189 -271 q 98 -292 125 -292 q 10 -266 39 -292 q -19 -185 -19 -239 q 26 -88 -19 -138 q 155 7 72 -38 l 216 7 z "},"̨":{"ha":0,"x_min":-391,"x_max":-155,"o":"m -155 7 q -267 -93 -233 -50 q -301 -173 -301 -135 q -288 -218 -301 -205 q -245 -231 -274 -231 q -204 -223 -223 -231 q -170 -208 -184 -216 l -159 -254 q -215 -281 -183 -271 q -273 -292 -247 -292 q -361 -266 -332 -292 q -391 -185 -391 -239 q -345 -88 -391 -138 q -217 7 -300 -38 l -155 7 z "},"̦":{"ha":0,"x_min":-460,"x_max":-217,"o":"m -218 -67 q -217 -78 -217 -73 l -217 -88 q -280 -230 -217 -177 q -460 -292 -343 -283 l -460 -240 q -376 -214 -408 -236 q -331 -157 -345 -192 q -315 -67 -317 -123 l -218 -67 z "},",":{"ha":277,"x_min":-76,"x_max":176,"o":"m 176 157 q 171 99 176 133 q 156 34 166 65 q 134 -21 146 3 q 100 -70 121 -45 q 45 -124 79 -95 q -45 -189 10 -154 l -76 -147 q -25 -101 -43 -120 q 4 -62 -7 -82 q 25 -17 16 -43 q 45 58 34 9 q 61 157 56 107 l 176 157 z "},";":{"ha":359,"x_min":-43,"x_max":308,"o":"m 308 612 l 273 454 l 144 454 l 179 612 l 308 612 m 208 157 q 203 99 208 133 q 189 34 199 65 q 166 -21 179 3 q 133 -70 153 -45 q 77 -124 112 -95 q -12 -189 43 -154 l -43 -147 q 7 -101 -11 -120 q 37 -62 25 -82 q 57 -17 48 -43 q 77 58 66 9 q 94 157 88 107 l 208 157 z "},":":{"ha":359,"x_min":44,"x_max":308,"o":"m 308 612 l 273 454 l 144 454 l 179 612 l 308 612 m 208 157 l 173 0 l 44 0 l 79 157 l 208 157 z "},".":{"ha":277,"x_min":3,"x_max":166,"o":"m 166 157 l 132 0 l 3 0 l 37 157 l 166 157 z "},"…":{"ha":998,"x_min":97,"x_max":888,"o":"m 260 157 l 227 0 l 97 0 l 130 157 l 260 157 m 574 157 l 541 0 l 411 0 l 444 157 l 574 157 m 888 157 l 854 0 l 725 0 l 758 157 l 888 157 z "},"-":{"ha":443,"x_min":69,"x_max":388,"o":"m 366 304 l 69 304 l 92 410 l 388 410 l 366 304 z "},"!":{"ha":389,"x_min":59,"x_max":399,"o":"m 399 926 l 216 282 l 149 282 l 260 926 l 399 926 m 222 157 l 188 0 l 59 0 l 94 157 l 222 157 z "},"¡":{"ha":389,"x_min":-12,"x_max":329,"o":"m 165 491 l 200 648 l 329 648 l 294 491 l 165 491 m -12 -277 l 172 366 l 239 366 l 127 -277 l -12 -277 z "},"?":{"ha":566,"x_min":120,"x_max":614,"o":"m 195 282 l 200 305 q 219 361 206 336 q 257 419 231 387 q 332 502 283 452 q 413 593 388 560 q 453 656 438 625 q 475 716 469 687 q 482 779 482 745 q 456 855 482 828 q 387 882 430 882 q 300 850 336 882 q 245 755 263 817 l 157 755 l 181 866 q 317 922 267 907 q 415 937 368 937 q 525 915 480 937 q 592 858 570 894 q 614 777 614 821 q 604 713 614 744 q 572 649 594 682 q 511 576 550 616 q 409 476 473 536 q 347 412 368 437 q 314 362 326 387 q 293 299 302 338 l 290 282 l 195 282 m 283 157 l 249 0 l 120 0 l 155 157 l 283 157 z "},"¿":{"ha":566,"x_min":-48,"x_max":446,"o":"m 282 491 l 317 648 l 446 648 l 411 491 l 282 491 m 370 366 l 366 343 q 347 287 359 313 q 308 229 334 262 q 233 146 282 196 q 173 81 201 113 q 125 17 145 50 q 94 -52 105 -16 q 83 -131 83 -88 q 109 -207 83 -180 q 179 -234 135 -234 q 266 -202 229 -234 q 321 -106 302 -170 l 408 -106 l 385 -218 q 248 -274 298 -259 q 151 -288 198 -288 q 40 -267 85 -288 q -27 -209 -5 -245 q -48 -129 -48 -173 q -41 -75 -48 -100 q -21 -24 -35 -49 q 15 28 -7 1 q 65 83 37 55 q 157 172 94 112 q 212 228 191 205 q 243 268 232 250 q 260 303 254 286 q 273 349 266 320 l 276 366 l 370 366 z "},"‘":{"ha":296,"x_min":155,"x_max":385,"o":"m 155 650 q 161 736 155 704 q 183 804 168 770 q 216 862 195 833 q 271 921 238 891 q 353 983 304 951 l 385 941 q 334 885 355 916 q 297 809 313 854 q 276 718 282 764 q 270 650 270 671 l 155 650 z "},"’":{"ha":296,"x_min":126,"x_max":355,"o":"m 355 970 q 345 867 355 905 q 313 787 333 821 q 254 713 291 750 q 157 638 216 677 l 126 680 q 178 736 157 705 q 214 812 199 767 q 235 903 229 857 q 241 970 241 950 l 355 970 z "}}}
